<svg xmlns="http://www.w3.org/2000/svg" viewBox="0 0 50 50"><path fill="none" d="M11.6 19.1h27v.1h-27z"/><path d="M11.6 40.3h27V19.2h-27v21.1zm23.2-13.5v9.6h-9.6v-9.6h9.6z" fill="none"/><path d="M29 27.2h4.9c2.1 0 3.7 1.7 3.7 3.7v4.9c0 2.1-1.7 3.7-3.7 3.7H29c-2.1 0-3.7-1.7-3.7-3.7V31c-.1-2.1 1.6-3.8 3.7-3.8zM10.4 5H7.9C5.2 5 3 7.2 3 9.9v7.6h4.9v-.1h34.6v.1h5V9.9c0-2.7-2.2-5-5-5H40" fill="#06df86"/><path d="M42.5 17.5v27.1H7.9V17.5H3v27.1c0 2.7 2.2 4.9 4.9 5h34.6c2.7 0 4.9-2.2 5-4.9V17.5h-5zM12.6 0c1.4 0 2.5 1.1 2.5 2.5v5c0 1.4-1.1 2.5-2.5 2.5s-2.5-1.1-2.5-2.5v-5c0-1.4 1.1-2.5 2.5-2.5zm24.9 0C38.9 0 40 1.1 40 2.5v5c0 1.4-1.1 2.5-2.5 2.5S35 8.9 35 7.5v-5C35 1.1 36.1 0 37.5 0z" fill="#fff"/></svg>