<svg data-name="Calque 1" xmlns="http://www.w3.org/2000/svg" viewBox="0 0 50 50"><path fill="#191b28" d="M0 0h50v50H0z"/><path fill="none" d="M8.185 33.151l2.563-1.48 4.925 8.53-2.563 1.48zm7.375 1.299l-1.35-2.36v.01l1.35 2.35zm1.71 2.95h14c.48 0 1.6-.31 3.79-2.39a39.51 39.51 0 002.78-3c.68-.79 2.12-2.6 3.1-3.81l1-1.22a1.16 1.16 0 00.32-.87 1.27 1.27 0 00-.53-.85 1.5 1.5 0 00-2.18.34c-1.6 1.86-3.58 4-5.86 6.38a4.2 4.2 0 01-3.34 1.62h-5.8a1.39 1.39 0 010-2.78h5.74a1.47 1.47 0 001.06-.44l.09-.12a1.44 1.44 0 00.33-.92 1.48 1.48 0 00-1.48-1.47h-10a5.79 5.79 0 00-3.84 1.8c-.86.89-1.61 1.71-2.23 2.43l1.35 2.36z"/><path d="M45 25.84a4 4 0 00-1.61-2.77 4.29 4.29 0 00-6 .73c-1 1.11-2.06 2.33-3.28 3.65a4.29 4.29 0 00-3.82-2.36h-10a8.48 8.48 0 00-5.84 2.65c-.62.64-1.19 1.25-1.69 1.81l1.46 2.55c.62-.72 1.37-1.53 2.23-2.43a5.79 5.79 0 013.84-1.8h10a1.48 1.48 0 011.48 1.47 1.44 1.44 0 01-.33.92l-.09.12a1.47 1.47 0 01-1.06.44h-5.74a1.39 1.39 0 000 2.78h5.74a4.2 4.2 0 003.34-1.6c2.29-2.38 4.26-4.52 5.86-6.38a1.5 1.5 0 012.18-.34 1.27 1.27 0 01.53.85 1.16 1.16 0 01-.32.87l-1 1.22c-1 1.22-2.43 3-3.1 3.81A39.51 39.51 0 0135 35c-2.18 2.08-3.31 2.39-3.79 2.39h-14l-1.71-3 3.28 5.73h12.4c1.63 0 3.44-1 5.7-3.16a42.25 42.25 0 003-3.19c.72-.84 2.22-2.71 3.21-3.95L44 28.8a3.91 3.91 0 001-2.96z" fill="#fff"/><path d="M14.21 32.1l-1.46-2.55-.14-.24a1.68 1.68 0 00-2.29-.61l-4.48 2.6a1.67 1.67 0 00-.61 2.29l6 10.44a1.68 1.68 0 001.45.84 1.66 1.66 0 00.84-.22L18 42.06a1.68 1.68 0 00.79-1.87l-3.28-5.73zm-1.1 9.58l-4.93-8.53 2.57-1.48 4.93 8.53zM23 11.46a4.14 4.14 0 011.17-1.88 2.82 2.82 0 011.93-.72 2.86 2.86 0 012 .76A3.54 3.54 0 0129 11a1.05 1.05 0 001.18.67 1 1 0 00.74-1.46 5.79 5.79 0 00-1.48-2 5.22 5.22 0 00-6.72 0 6.13 6.13 0 00-1.87 3.27H23z" fill="#06df86"/><path d="M30.19 15.61a1 1 0 00-1.18.64 3.88 3.88 0 01-1 1.39 3 3 0 01-3.86.06A4 4 0 0123 15.81h3.52a.73.73 0 000-1.46h-3.81v-1.43h3.81a.73.73 0 100-1.46h-7.1a.73.73 0 000 1.46h1.21v1.43h-1.2a.73.73 0 000 1.46h1.42a6.15 6.15 0 001.88 3.29 5.23 5.23 0 006.7 0 5.8 5.8 0 001.49-2 1 1 0 00-.73-1.49z" fill="#fff"/></svg>