<svg data-name="Calque 1" xmlns="http://www.w3.org/2000/svg" viewBox="0 0 50 50"><path d="M23.26 20.15a2.94 2.94 0 012-.76 3 3 0 012.08.8 3.73 3.73 0 01.95 1.42 1.1 1.1 0 001.24.71 1.1 1.1 0 00.77-1.54 6.11 6.11 0 00-1.55-2.13 5.14 5.14 0 00-3.51-1.27 5.2 5.2 0 00-3.55 1.31 6.53 6.53 0 00-2 3.53H22a4.3 4.3 0 011.26-2.07z" fill="#06df86"/><path d="M29.59 26.49a1.09 1.09 0 00-1.24.66 4.24 4.24 0 01-1 1.47 3 3 0 01-2.07.78 3 3 0 01-2-.72 4.24 4.24 0 01-1.24-2h3.7a.77.77 0 00.74-.59.76.76 0 00-.74-.94h-4v-1.51h4a.77.77 0 000-1.53h-7.46a.77.77 0 100 1.53h1.26v1.51h-1.26a.77.77 0 00-.77.76.78.78 0 00.77.77h1.49a6.51 6.51 0 002 3.46 5.5 5.5 0 007 0A6.18 6.18 0 0030.35 28a1.1 1.1 0 00-.76-1.51z" fill="#191b28"/><path d="M36.45 13.24A15.74 15.74 0 0141 22.69l-1.5-1.52a1 1 0 00-1.42 1.42l3.29 3.29a1 1 0 001.42 0l3.29-3.29a1 1 0 000-1.42 1 1 0 00-1.41 0L43 22.94a17.77 17.77 0 00-30.3-11.08 1 1 0 001.41 1.41 15.79 15.79 0 0122.34-.03z" stroke-miterlimit="10" stroke="#191b28" fill="#191b28"/><path d="M37.83 35.58a1 1 0 00-1.41 0 15.82 15.82 0 01-26.94-9.74L11 27.36a1 1 0 001.42 0 1 1 0 000-1.41l-3.3-3.29a1 1 0 00-1.41 0L4.41 26a1 1 0 101.42 1.41l1.66-1.71A17.79 17.79 0 0037.8 37a.94.94 0 00.03-1.42z" stroke="#06df86" stroke-miterlimit="10" fill="#06df86"/><path d="M20.82 14a.86.86 0 00-.54-.31.81.81 0 00-.59.17.74.74 0 00-.31.54.79.79 0 00.16.59l1.21 1.54a.81.81 0 00.91.26 1.14 1.14 0 00.22-.12.83.83 0 00.12-1.11zM25 12a.8.8 0 00-.77.83l.06 2a.8.8 0 00.82.77.58.58 0 00.26-.05.79.79 0 00.53-.78l-.06-2a.83.83 0 00-.25-.56A.81.81 0 0025 12zm5.36 1.55a.8.8 0 00-1.11.22l-1.11 1.62a.81.81 0 00.22 1.11.79.79 0 00.73.09.78.78 0 00.39-.3l1.1-1.62a.8.8 0 00-.22-1.12z" fill="#06df86"/><path d="M29.67 34.79a.76.76 0 00.53.3.8.8 0 00.6-.16.81.81 0 00.31-.54.84.84 0 00-.17-.59l-1.21-1.54a.79.79 0 00-.91-.26.78.78 0 00-.22.12.82.82 0 00-.3.54.79.79 0 00.16.59zm-4.16 2.04a.82.82 0 00.78-.84l-.07-2a.8.8 0 00-.82-.78 1.19 1.19 0 00-.26.05.81.81 0 00-.53.79l.07 1.95a.77.77 0 00.25.56.82.82 0 00.58.27zm-5.39-1.56a.82.82 0 001.12-.22l1.1-1.62a.81.81 0 00-.22-1.12.82.82 0 00-.73-.09.85.85 0 00-.39.31l-1.1 1.62a.81.81 0 00.22 1.12z" fill="#191b28"/></svg>