<svg data-name="Calque 1" xmlns="http://www.w3.org/2000/svg" viewBox="0 0 50 50"><path fill="#191b28" d="M0 0h50v50H0z"/><path d="M23.26 20.15a3 3 0 012-.75 3 3 0 012.07.8 3.72 3.72 0 011 1.43 1.11 1.11 0 001.24.7 1.1 1.1 0 00.77-1.54 6.09 6.09 0 00-1.55-2.13 5.48 5.48 0 00-7.06 0 6.47 6.47 0 00-2 3.53H22a4.4 4.4 0 011.26-2.04z" fill="#06df86"/><path d="M29.59 26.49a1.1 1.1 0 00-1.24.67 4.07 4.07 0 01-1 1.46 3.1 3.1 0 01-4.06.06 4.22 4.22 0 01-1.24-2h3.69a.77.77 0 100-1.53h-4v-1.5h4a.77.77 0 000-1.53h-7.46a.77.77 0 000 1.53h1.27v1.5h-1.27a.77.77 0 100 1.53h1.5a6.46 6.46 0 002 3.46 5.5 5.5 0 007 0A6.09 6.09 0 0030.35 28a1.1 1.1 0 00-.76-1.51zm6.86-13.25A15.81 15.81 0 0141 22.69l-1.5-1.52a1 1 0 10-1.42 1.42l3.29 3.29a1 1 0 001.42 0l3.29-3.29a1 1 0 10-1.42-1.42L43 22.94a17.76 17.76 0 00-30.3-11.08 1 1 0 101.42 1.42 15.78 15.78 0 0122.33-.04z" fill="#fff"/><path d="M42.08 26.67a1.5 1.5 0 01-1.08-.44l-3.29-3.29a1.5 1.5 0 010-2.12 1.5 1.5 0 012.12 0l.42.42a15.34 15.34 0 00-15-12.11 15.1 15.1 0 00-10.77 4.5 1.49 1.49 0 01-1.06.44 1.5 1.5 0 01-1.06-2.56 18.26 18.26 0 0131 10.32l1-1a1.51 1.51 0 012.13 0 1.5 1.5 0 010 2.12l-3.29 3.29a1.5 1.5 0 01-1.12.43zm-3.29-5.29a.5.5 0 00-.35.86l3.29 3.29a.5.5 0 00.71 0l3.29-3.29a.5.5 0 000-.71.5.5 0 00-.71 0l-2.46 2.56-.09-1.09a17.26 17.26 0 00-29.42-10.79.5.5 0 00.35.85.5.5 0 00.35-.15 16.09 16.09 0 0111.48-4.8 16.17 16.17 0 0111.52 4.76 16.35 16.35 0 014.71 9.75l.17 1.43-2.54-2.54a.5.5 0 00-.3-.13z" fill="#fff"/><path d="M37.83 35.58a1 1 0 00-1.42 0 15.82 15.82 0 01-26.93-9.74L11 27.36a1 1 0 001.42-1.42l-3.3-3.28a1 1 0 00-1.42 0l-3.29 3.29a1 1 0 001.42 1.42l1.66-1.67A17.79 17.79 0 0037.8 37a.93.93 0 00.03-1.42z" fill="#06df86"/><path d="M25.24 42.66A18.3 18.3 0 017.1 26.8l-.92.92a1.5 1.5 0 01-2.12-2.12l3.29-3.3a1.49 1.49 0 011.06-.44 1.49 1.49 0 011.06.44l3.29 3.29a1.5 1.5 0 01-1.06 2.56 1.49 1.49 0 01-1.06-.44l-.46-.46a15.31 15.31 0 0025.88 8 1.54 1.54 0 012.12 0 1.47 1.47 0 01.43 1.1 1.39 1.39 0 01-.5 1 18.15 18.15 0 01-12.87 5.31zM7.92 24.57l.08 1.1a17.1 17.1 0 005 10.93 17.29 17.29 0 0024.43 0 .43.43 0 00.18-.32.47.47 0 00-.14-.35.52.52 0 00-.71 0A16.32 16.32 0 019 25.89l-.15-1.39 2.5 2.5a.5.5 0 00.35.15.5.5 0 00.35-.85L8.77 23a.5.5 0 00-.35-.15.5.5 0 00-.35.15l-3.3 3.3a.5.5 0 00.71.71zM20.82 14a.81.81 0 10-1.27 1l1.21 1.54a.8.8 0 00.91.26.78.78 0 00.22-.12.8.8 0 00.11-1.12zM25 12a.82.82 0 00-.78.83l.06 2a.8.8 0 00.82.77.78.78 0 00.26 0 .8.8 0 00.53-.78l-.06-2a.8.8 0 00-.25-.56A.81.81 0 0025 12zm5.36 1.55a.81.81 0 00-1.12.22l-1.1 1.62a.81.81 0 001.34.9l1.1-1.62a.81.81 0 00-.22-1.12z" fill="#06df86"/><path d="M29.67 34.79a.81.81 0 101.27-1l-1.21-1.54a.8.8 0 00-.91-.26.78.78 0 00-.22.12.8.8 0 00-.14 1.13zm-4.16 2.04a.82.82 0 00.78-.83l-.06-2a.8.8 0 00-.82-.77.78.78 0 00-.26 0 .8.8 0 00-.53.78l.06 2a.8.8 0 00.25.56.81.81 0 00.58.26zm-5.39-1.56a.81.81 0 001.12-.22l1.1-1.62a.81.81 0 00-1.34-.9l-1.1 1.62a.81.81 0 00.22 1.12z" fill="#fff"/></svg>