<svg data-name="Calque 1" xmlns="http://www.w3.org/2000/svg" viewBox="0 0 50 50"><path d="M27.38 12h-5.11A13.62 13.62 0 008.65 25.62v14.47a2.58 2.58 0 003.15 2.42A2.6 2.6 0 0013.75 40v-1.8H35.9V40a2.54 2.54 0 105.08.14V25.62A13.62 13.62 0 0027.38 12z" fill="#191b28"/><path d="M13.15 21l.57-1.54a3.63 3.63 0 013.44-2.27h15.32a3.62 3.62 0 013.43 2.26L36.5 21a3.44 3.44 0 01-3.43 4.55H16.58A3.44 3.44 0 0113.15 21z" fill-rule="evenodd" fill="#fff"/><circle cx="34.76" cy="30.1" r="2.83" fill="#06df86"/><circle cx="14.84" cy="30.1" r="2.83" fill="#06df86"/><path d="M35 4.4a8.05 8.05 0 108 8 8.06 8.06 0 00-8-8z" stroke="#06df86" stroke-miterlimit="10" stroke-width="2" fill="#fff"/><path d="M39.67 9a.92.92 0 00-1.3 0l-4.86 4.89-2-2a.92.92 0 00-1.29 0 .91.91 0 00-.26.65.85.85 0 00.27.63l2.64 2.66a.88.88 0 00.63.25 1 1 0 00.66-.26l.31-.32 5.2-5.21a.9.9 0 000-1.29z" fill="#191b28"/></svg>