<svg xmlns="http://www.w3.org/2000/svg" viewBox="0 0 150 50"><path d="M23 27.8l5.6 1.4c-.6 2.6-2 4.7-4.2 6.3-2.1 1.6-4.6 2.3-7.3 2.3-3.4 0-6.3-1.1-8.7-3.4-2.4-2.3-3.6-5.2-3.6-8.7 0-3.6 1.2-6.5 3.6-8.8 2.4-2.3 5.3-3.4 8.7-3.4 2.7 0 5.1.8 7.2 2.3 2.1 1.6 3.5 3.6 4.3 6.1l-5.8 1.7c-.8-3-2.7-4.6-5.7-4.6-1.9 0-3.4.6-4.6 1.8-1.2 1.2-1.8 2.8-1.8 4.8s.6 3.6 1.8 4.8c1.2 1.2 2.7 1.8 4.6 1.8 2.9.1 4.9-1.4 5.9-4.4m25.2 2.9c1.3-1.3 2-2.9 2-4.9s-.7-3.7-2-5c-1.3-1.3-2.8-1.9-4.6-1.9-1.9 0-3.4.6-4.6 1.9-1.2 1.3-1.8 2.9-1.8 5s.6 3.8 1.8 5c1.2 1.2 2.8 1.9 4.6 1.9 1.8-.1 3.3-.8 4.6-2m8.1 6.5h-6.1v-1.8c-2.1 1.7-4.6 2.5-7.6 2.5s-5.7-1.2-7.9-3.5-3.4-5.2-3.4-8.7c0-3.5 1.1-6.4 3.4-8.7 2.3-2.3 4.9-3.5 7.9-3.5s5.6.8 7.6 2.5v-1.8h6.1v23zm22.3-23.1l-.3 5.8H77c-5.5 0-8.2 3.3-8.2 9.9v7.4h-6.1v-23h6.1v4.2c2.1-3 4.8-4.5 8.2-4.5.7 0 1.3.1 1.6.2m4.2.1h6.1v23h-6.1v-23zm5.7-9.4c.7.7 1.1 1.6 1.1 2.6s-.4 1.9-1.1 2.5c-.7.7-1.6 1-2.6 1-1.1 0-2-.3-2.6-1-.7-.7-1-1.5-1-2.5s.4-1.8 1.1-2.6c.7-.7 1.6-1.1 2.6-1.1.9 0 1.7.4 2.5 1.1M129.6 45h-6.8l3.7-8.6-9.6-22.2h6.8l6.1 14.6 6.3-14.6h6.8z" fill="#191b28"/><path fill="#06df86" d="M113 14.3H93.4v5h12.1l-4.1 4.5h6.6l5-5.4z"/><path fill="#191b28" d="M93.2 37.2h19.5v-5h-12l4-4.5h-6.6l-4.9 5.4z"/></svg>