<svg xmlns="http://www.w3.org/2000/svg" viewBox="0 0 275.14 237.74"><defs><linearGradient id="spinner-solid-a" x1="139.87" y1="105.73" x2="139.87" y2="119.51" gradientUnits="userSpaceOnUse"><stop offset="0" stop-color="#1b5dc5"/><stop offset=".29" stop-color="#2163cb"/><stop offset=".68" stop-color="#3274dc"/><stop offset="1" stop-color="#4487ef"/></linearGradient><pattern id="spinner-solid-b" data-name="Couleur Vagues lisses" width="109.13" height="103.21" patternUnits="userSpaceOnUse" viewBox="0 0 109.13 103.22"><path fill="none" d="M0 0h109.13v103.21H0z"/><path d="M218.25 96.5a46.3 46.3 0 01-13.64-2.13 44.94 44.94 0 00-27.28 0 44.74 44.74 0 01-27.28 0 44.94 44.94 0 00-27.28 0 46.44 46.44 0 01-13.65 2.13" stroke="#84ccd8" stroke-linecap="square" stroke-width="1.5" fill="none"/><path d="M218.25 100.8a46.71 46.71 0 01-13.64-2.12 44.74 44.74 0 00-27.28 0 44.94 44.94 0 01-27.28 0 44.74 44.74 0 00-27.28 0 46.85 46.85 0 01-13.65 2.12" stroke="#84ccd8" stroke-linecap="square" stroke-width="1.5" fill="none"/><path d="M218.25 105.1a46.71 46.71 0 01-13.64-2.1 44.74 44.74 0 00-27.28 0 44.94 44.94 0 01-27.28 0 44.74 44.74 0 00-27.28 0 46.85 46.85 0 01-13.65 2.12" stroke="#84ccd8" stroke-linecap="square" stroke-width="1.5" fill="none"/><path fill="#24b7c7" d="M0 90.31h109.13v25.8H0z"/><path d="M109.12 96.5a46.36 46.36 0 01-13.64-2.13 44.94 44.94 0 00-27.28 0 44.74 44.74 0 01-27.28 0 46.77 46.77 0 00-13.64-2.12 46.77 46.77 0 00-13.64 2.12A46.36 46.36 0 010 96.5" stroke="#84ccd8" stroke-linecap="square" stroke-width="1.5" fill="none"/><path d="M109.12 100.8a46.77 46.77 0 01-13.64-2.12 44.74 44.74 0 00-27.28 0 46.71 46.71 0 01-13.64 2.12 46.77 46.77 0 01-13.64-2.12 46.36 46.36 0 00-13.64-2.13 46.36 46.36 0 00-13.64 2.13A46.77 46.77 0 010 100.8" stroke="#84ccd8" stroke-linecap="square" stroke-width="1.5" fill="none"/><path d="M109.12 105.1a46.77 46.77 0 01-13.64-2.1 44.74 44.74 0 00-27.28 0 46.71 46.71 0 01-13.64 2.12A46.77 46.77 0 0140.92 103a46.36 46.36 0 00-13.64-2.13A46.36 46.36 0 0013.64 103 46.77 46.77 0 010 105.1m0-8.6a46.3 46.3 0 01-13.64-2.13 46.77 46.77 0 00-13.64-2.12 46.71 46.71 0 00-13.64 2.12 46.36 46.36 0 01-13.64 2.13 46.3 46.3 0 01-13.64-2.13 46.77 46.77 0 00-13.64-2.12 46.71 46.71 0 00-13.64 2.12 46.43 46.43 0 01-13.64 2.13M0 100.8a46.71 46.71 0 01-13.64-2.12 46.36 46.36 0 00-13.64-2.13 46.3 46.3 0 00-13.64 2.13 46.77 46.77 0 01-13.64 2.12 46.71 46.71 0 01-13.64-2.12 46.36 46.36 0 00-13.64-2.13 46.3 46.3 0 00-13.64 2.13 46.83 46.83 0 01-13.64 2.12M0 105.1a46.71 46.71 0 01-13.64-2.1 46.36 46.36 0 00-13.64-2.13A46.3 46.3 0 00-40.92 103a46.77 46.77 0 01-13.64 2.12A46.71 46.71 0 01-68.2 103a46.36 46.36 0 00-13.64-2.13A46.3 46.3 0 00-95.48 103a46.83 46.83 0 01-13.64 2.12M218.25 83.6a46.3 46.3 0 01-13.64-2.13 44.74 44.74 0 00-27.28 0 44.74 44.74 0 01-27.28 0 44.74 44.74 0 00-27.28 0 46.44 46.44 0 01-13.65 2.13" stroke="#84ccd8" stroke-linecap="square" stroke-width="1.5" fill="none"/><path d="M218.25 87.9a46.3 46.3 0 01-13.64-2.13 44.94 44.94 0 00-27.28 0 44.74 44.74 0 01-27.28 0 44.94 44.94 0 00-27.28 0 46.44 46.44 0 01-13.65 2.13" stroke="#84ccd8" stroke-linecap="square" stroke-width="1.5" fill="none"/><path d="M218.25 92.2a46.71 46.71 0 01-13.64-2.12 44.74 44.74 0 00-27.28 0 44.94 44.94 0 01-27.28 0 44.74 44.74 0 00-27.28 0 46.85 46.85 0 01-13.65 2.12m109.13-21.5a46.64 46.64 0 01-13.64-2.13 44.74 44.74 0 00-27.28 0 44.74 44.74 0 01-27.28 0 44.74 44.74 0 00-27.28 0 46.79 46.79 0 01-13.65 2.13" stroke="#84ccd8" stroke-linecap="square" stroke-width="1.5" fill="none"/><path d="M218.25 75a46.3 46.3 0 01-13.64-2.13 44.74 44.74 0 00-27.28 0 44.74 44.74 0 01-27.28 0 44.74 44.74 0 00-27.28 0A46.44 46.44 0 01109.12 75" stroke="#84ccd8" stroke-linecap="square" stroke-width="1.5" fill="none"/><path d="M218.25 79.3a46.3 46.3 0 01-13.64-2.13 44.74 44.74 0 00-27.28 0 44.74 44.74 0 01-27.28 0 44.74 44.74 0 00-27.28 0 46.44 46.44 0 01-13.65 2.13" stroke="#84ccd8" stroke-linecap="square" stroke-width="1.5" fill="none"/><path fill="#24b7c7" d="M0 64.51h109.13v25.8H0z"/><path d="M109.12 83.6a46.36 46.36 0 01-13.64-2.13 44.74 44.74 0 00-27.28 0 44.74 44.74 0 01-27.28 0 46.7 46.7 0 00-13.64-2.13 46.7 46.7 0 00-13.64 2.13A46.36 46.36 0 010 83.6" stroke="#84ccd8" stroke-linecap="square" stroke-width="1.5" fill="none"/><path d="M109.12 87.9a46.36 46.36 0 01-13.64-2.13 44.94 44.94 0 00-27.28 0 44.74 44.74 0 01-27.28 0 46.77 46.77 0 00-13.64-2.12 46.77 46.77 0 00-13.64 2.12A46.36 46.36 0 010 87.9" stroke="#84ccd8" stroke-linecap="square" stroke-width="1.5" fill="none"/><path d="M109.12 92.2a46.77 46.77 0 01-13.64-2.12 44.74 44.74 0 00-27.28 0 46.71 46.71 0 01-13.64 2.12 46.77 46.77 0 01-13.64-2.12A46.36 46.36 0 0027.28 88a46.36 46.36 0 00-13.64 2.13A46.77 46.77 0 010 92.2m109.12-21.5a46.7 46.7 0 01-13.64-2.13 44.74 44.74 0 00-27.28 0 46.64 46.64 0 01-13.64 2.13 46.7 46.7 0 01-13.64-2.13 46.7 46.7 0 00-13.64-2.13 46.7 46.7 0 00-13.64 2.13A46.7 46.7 0 010 70.7" stroke="#84ccd8" stroke-linecap="square" stroke-width="1.5" fill="none"/><path d="M109.12 75a46.36 46.36 0 01-13.64-2.13 44.74 44.74 0 00-27.28 0 44.74 44.74 0 01-27.28 0 46.7 46.7 0 00-13.64-2.13 46.7 46.7 0 00-13.64 2.13A46.36 46.36 0 010 75" stroke="#84ccd8" stroke-linecap="square" stroke-width="1.5" fill="none"/><path d="M109.12 79.3a46.36 46.36 0 01-13.64-2.13 44.74 44.74 0 00-27.28 0 44.74 44.74 0 01-27.28 0A46.7 46.7 0 0027.28 75a46.7 46.7 0 00-13.64 2.13A46.36 46.36 0 010 79.3m0 4.3a46.3 46.3 0 01-13.64-2.13 46.7 46.7 0 00-13.64-2.13 46.64 46.64 0 00-13.64 2.13 46.36 46.36 0 01-13.64 2.13 46.3 46.3 0 01-13.64-2.13 46.7 46.7 0 00-13.64-2.13 46.64 46.64 0 00-13.64 2.13 46.43 46.43 0 01-13.64 2.13M0 87.9a46.3 46.3 0 01-13.64-2.13 46.77 46.77 0 00-13.64-2.12 46.71 46.71 0 00-13.64 2.12 46.36 46.36 0 01-13.64 2.13 46.3 46.3 0 01-13.64-2.13 46.77 46.77 0 00-13.64-2.12 46.71 46.71 0 00-13.64 2.12 46.43 46.43 0 01-13.64 2.13M0 92.2a46.71 46.71 0 01-13.64-2.12A46.36 46.36 0 00-27.28 88a46.3 46.3 0 00-13.64 2.13 46.77 46.77 0 01-13.64 2.07 46.71 46.71 0 01-13.64-2.12A46.36 46.36 0 00-81.84 88a46.3 46.3 0 00-13.64 2.13 46.83 46.83 0 01-13.64 2.12M0 70.7a46.64 46.64 0 01-13.64-2.13 46.7 46.7 0 00-13.64-2.13 46.64 46.64 0 00-13.64 2.13 46.7 46.7 0 01-13.64 2.13 46.64 46.64 0 01-13.64-2.13 46.7 46.7 0 00-13.64-2.13 46.64 46.64 0 00-13.64 2.13 46.77 46.77 0 01-13.64 2.13M0 75a46.3 46.3 0 01-13.64-2.13 46.7 46.7 0 00-13.64-2.13 46.64 46.64 0 00-13.64 2.13A46.36 46.36 0 01-54.56 75a46.3 46.3 0 01-13.64-2.13 46.7 46.7 0 00-13.64-2.13 46.64 46.64 0 00-13.64 2.13A46.43 46.43 0 01-109.12 75M0 79.3a46.3 46.3 0 01-13.64-2.13A46.7 46.7 0 00-27.28 75a46.64 46.64 0 00-13.64 2.13 46.36 46.36 0 01-13.64 2.17 46.3 46.3 0 01-13.64-2.13A46.7 46.7 0 00-81.84 75a46.64 46.64 0 00-13.64 2.13 46.43 46.43 0 01-13.64 2.13M218.25 57.8a46.64 46.64 0 01-13.64-2.13 44.74 44.74 0 00-27.28 0 44.74 44.74 0 01-27.28 0 44.74 44.74 0 00-27.28 0 46.79 46.79 0 01-13.65 2.13" stroke="#84ccd8" stroke-linecap="square" stroke-width="1.5" fill="none"/><path d="M218.25 62.1a46.64 46.64 0 01-13.64-2.1 44.74 44.74 0 00-27.28 0 44.74 44.74 0 01-27.28 0 44.74 44.74 0 00-27.28 0 46.79 46.79 0 01-13.65 2.13" stroke="#84ccd8" stroke-linecap="square" stroke-width="1.5" fill="none"/><path d="M218.25 66.4a46.64 46.64 0 01-13.64-2.13 44.74 44.74 0 00-27.28 0 44.74 44.74 0 01-27.28 0 44.74 44.74 0 00-27.28 0 46.79 46.79 0 01-13.65 2.13m109.13-21.5a46.64 46.64 0 01-13.64-2.13 44.74 44.74 0 00-27.28 0 46.7 46.7 0 01-13.64 2.13 46.64 46.64 0 01-13.64-2.13 44.74 44.74 0 00-27.28 0 46.79 46.79 0 01-13.65 2.13" stroke="#84ccd8" stroke-linecap="square" stroke-width="1.5" fill="none"/><path d="M218.25 49.2a46.64 46.64 0 01-13.64-2.13 44.74 44.74 0 00-27.28 0 46.7 46.7 0 01-13.64 2.13 46.64 46.64 0 01-13.64-2.13 44.74 44.74 0 00-27.28 0 46.79 46.79 0 01-13.65 2.13" stroke="#84ccd8" stroke-linecap="square" stroke-width="1.5" fill="none"/><path d="M218.25 53.5a46.64 46.64 0 01-13.64-2.13 44.74 44.74 0 00-27.28 0 44.74 44.74 0 01-27.28 0 44.74 44.74 0 00-27.28 0 46.79 46.79 0 01-13.65 2.13" stroke="#84ccd8" stroke-linecap="square" stroke-width="1.5" fill="none"/><path fill="#24b7c7" d="M0 38.71h109.13v25.8H0z"/><path d="M109.12 57.8a46.7 46.7 0 01-13.64-2.13 44.74 44.74 0 00-27.28 0 46.64 46.64 0 01-13.64 2.13 46.7 46.7 0 01-13.64-2.13 46.7 46.7 0 00-13.64-2.13 46.7 46.7 0 00-13.64 2.13A46.7 46.7 0 010 57.8" stroke="#84ccd8" stroke-linecap="square" stroke-width="1.5" fill="none"/><path d="M109.12 62.1A46.7 46.7 0 0195.48 60a44.74 44.74 0 00-27.28 0 46.64 46.64 0 01-13.64 2.1A46.7 46.7 0 0140.92 60a46.7 46.7 0 00-13.64-2.13A46.7 46.7 0 0013.64 60 46.7 46.7 0 010 62.1" stroke="#84ccd8" stroke-linecap="square" stroke-width="1.5" fill="none"/><path d="M109.12 66.4a46.7 46.7 0 01-13.64-2.13 44.74 44.74 0 00-27.28 0 46.64 46.64 0 01-13.64 2.13 46.7 46.7 0 01-13.64-2.13 46.7 46.7 0 00-13.64-2.13 46.7 46.7 0 00-13.64 2.13A46.7 46.7 0 010 66.4m109.12-21.5a46.7 46.7 0 01-13.64-2.13 44.74 44.74 0 00-27.28 0 46.64 46.64 0 01-13.64 2.13 46.7 46.7 0 01-13.64-2.13 46.36 46.36 0 00-13.64-2.13 46.36 46.36 0 00-13.64 2.13A46.7 46.7 0 010 44.9" stroke="#84ccd8" stroke-linecap="square" stroke-width="1.5" fill="none"/><path d="M109.12 49.2a46.7 46.7 0 01-13.64-2.13 44.74 44.74 0 00-27.28 0 46.64 46.64 0 01-13.64 2.13 46.7 46.7 0 01-13.64-2.13 46.7 46.7 0 00-13.64-2.13 46.7 46.7 0 00-13.64 2.13A46.7 46.7 0 010 49.2" stroke="#84ccd8" stroke-linecap="square" stroke-width="1.5" fill="none"/><path d="M109.12 53.5a46.7 46.7 0 01-13.64-2.13 44.74 44.74 0 00-27.28 0 46.64 46.64 0 01-13.64 2.13 46.7 46.7 0 01-13.64-2.13 46.7 46.7 0 00-13.64-2.13 46.7 46.7 0 00-13.64 2.13A46.7 46.7 0 010 53.5m0 4.3a46.64 46.64 0 01-13.64-2.13 46.7 46.7 0 00-13.64-2.13 46.64 46.64 0 00-13.64 2.13 46.7 46.7 0 01-13.64 2.13 46.64 46.64 0 01-13.64-2.13 46.7 46.7 0 00-13.64-2.13 46.64 46.64 0 00-13.64 2.13 46.77 46.77 0 01-13.64 2.13M0 62.1A46.64 46.64 0 01-13.64 60a46.7 46.7 0 00-13.64-2.13A46.64 46.64 0 00-40.92 60a46.7 46.7 0 01-13.64 2.1A46.64 46.64 0 01-68.2 60a46.7 46.7 0 00-13.64-2.13A46.64 46.64 0 00-95.48 60a46.77 46.77 0 01-13.64 2.13M0 66.4a46.64 46.64 0 01-13.64-2.13 46.7 46.7 0 00-13.64-2.13 46.64 46.64 0 00-13.64 2.13 46.7 46.7 0 01-13.64 2.13 46.64 46.64 0 01-13.64-2.13 46.7 46.7 0 00-13.64-2.13 46.64 46.64 0 00-13.64 2.13 46.77 46.77 0 01-13.64 2.13M0 44.9a46.64 46.64 0 01-13.64-2.13 46.36 46.36 0 00-13.64-2.13 46.3 46.3 0 00-13.64 2.13 46.7 46.7 0 01-13.64 2.13 46.64 46.64 0 01-13.64-2.13 46.36 46.36 0 00-13.64-2.13 46.3 46.3 0 00-13.64 2.13 46.77 46.77 0 01-13.64 2.13M0 49.2a46.64 46.64 0 01-13.64-2.13 46.7 46.7 0 00-13.64-2.13 46.64 46.64 0 00-13.64 2.13 46.7 46.7 0 01-13.64 2.13 46.64 46.64 0 01-13.64-2.13 46.7 46.7 0 00-13.64-2.13 46.64 46.64 0 00-13.64 2.13 46.77 46.77 0 01-13.64 2.13M0 53.5a46.64 46.64 0 01-13.64-2.13 46.7 46.7 0 00-13.64-2.13 46.64 46.64 0 00-13.64 2.13 46.7 46.7 0 01-13.64 2.13 46.64 46.64 0 01-13.64-2.13 46.7 46.7 0 00-13.64-2.13 46.64 46.64 0 00-13.64 2.13 46.77 46.77 0 01-13.64 2.13M218.25 32a46.71 46.71 0 01-13.64-2.12 44.74 44.74 0 00-27.28 0A46.77 46.77 0 01163.69 32a46.71 46.71 0 01-13.64-2.12 44.74 44.74 0 00-27.28 0A46.85 46.85 0 01109.12 32" stroke="#84ccd8" stroke-linecap="square" stroke-width="1.5" fill="none"/><path d="M218.25 36.29a46.71 46.71 0 01-13.64-2.12 44.74 44.74 0 00-27.28 0 46.77 46.77 0 01-13.64 2.12 46.71 46.71 0 01-13.64-2.12 44.74 44.74 0 00-27.28 0 46.85 46.85 0 01-13.65 2.12" stroke="#84ccd8" stroke-linecap="square" stroke-width="1.5" fill="none"/><path d="M218.25 40.6a46.64 46.64 0 01-13.64-2.13 44.74 44.74 0 00-27.28 0 46.7 46.7 0 01-13.64 2.13 46.64 46.64 0 01-13.64-2.13 44.74 44.74 0 00-27.28 0 46.79 46.79 0 01-13.65 2.13m109.13-21.51A46.3 46.3 0 01204.61 17a44.94 44.94 0 00-27.28 0 46.36 46.36 0 01-13.64 2.13A46.3 46.3 0 01150.05 17a44.94 44.94 0 00-27.28 0 46.44 46.44 0 01-13.65 2.13" stroke="#84ccd8" stroke-linecap="square" stroke-width="1.5" fill="none"/><path d="M218.25 23.39a46.3 46.3 0 01-13.64-2.13 44.94 44.94 0 00-27.28 0 46.36 46.36 0 01-13.64 2.13 46.3 46.3 0 01-13.64-2.13 44.94 44.94 0 00-27.28 0 46.44 46.44 0 01-13.65 2.13" stroke="#84ccd8" stroke-linecap="square" stroke-width="1.5" fill="none"/><path d="M218.25 27.69a46.71 46.71 0 01-13.64-2.12 44.74 44.74 0 00-27.28 0 46.77 46.77 0 01-13.64 2.12 46.71 46.71 0 01-13.64-2.12 44.74 44.74 0 00-27.28 0 46.85 46.85 0 01-13.65 2.12" stroke="#84ccd8" stroke-linecap="square" stroke-width="1.5" fill="none"/><path fill="#24b7c7" d="M0 12.9h109.13v25.8H0z"/><path d="M109.12 32a46.77 46.77 0 01-13.64-2.12 44.74 44.74 0 00-27.28 0A46.71 46.71 0 0154.56 32a46.77 46.77 0 01-13.64-2.12 46.36 46.36 0 00-13.64-2.13 46.36 46.36 0 00-13.64 2.13A46.77 46.77 0 010 32" stroke="#84ccd8" stroke-linecap="square" stroke-width="1.5" fill="none"/><path d="M109.12 36.29a46.77 46.77 0 01-13.64-2.12 44.74 44.74 0 00-27.28 0 46.71 46.71 0 01-13.64 2.12 46.77 46.77 0 01-13.64-2.12A46.36 46.36 0 0027.28 32a46.36 46.36 0 00-13.64 2.13A46.77 46.77 0 010 36.29" stroke="#84ccd8" stroke-linecap="square" stroke-width="1.5" fill="none"/><path d="M109.12 40.6a46.7 46.7 0 01-13.64-2.13 44.74 44.74 0 00-27.28 0 46.64 46.64 0 01-13.64 2.13 46.7 46.7 0 01-13.64-2.13 46.36 46.36 0 00-13.64-2.13 46.36 46.36 0 00-13.64 2.13A46.7 46.7 0 010 40.6m109.12-21.51A46.36 46.36 0 0195.48 17a44.94 44.94 0 00-27.28 0 46.3 46.3 0 01-13.64 2.13A46.36 46.36 0 0140.92 17a46.77 46.77 0 00-13.64-2.12A46.77 46.77 0 0013.64 17 46.36 46.36 0 010 19.09" stroke="#84ccd8" stroke-linecap="square" stroke-width="1.5" fill="none"/><path d="M109.12 23.39a46.36 46.36 0 01-13.64-2.13 44.94 44.94 0 00-27.28 0 46.3 46.3 0 01-13.64 2.13 46.36 46.36 0 01-13.64-2.13 46.77 46.77 0 00-13.64-2.12 46.77 46.77 0 00-13.64 2.12A46.36 46.36 0 010 23.39" stroke="#84ccd8" stroke-linecap="square" stroke-width="1.5" fill="none"/><path d="M109.12 27.69a46.77 46.77 0 01-13.64-2.12 44.74 44.74 0 00-27.28 0 46.71 46.71 0 01-13.64 2.12 46.77 46.77 0 01-13.64-2.12 46.36 46.36 0 00-13.64-2.13 46.36 46.36 0 00-13.64 2.13A46.77 46.77 0 010 27.69M0 32a46.71 46.71 0 01-13.64-2.12 46.36 46.36 0 00-13.64-2.13 46.3 46.3 0 00-13.64 2.13A46.77 46.77 0 01-54.56 32a46.71 46.71 0 01-13.64-2.13 46.36 46.36 0 00-13.64-2.13 46.3 46.3 0 00-13.64 2.13A46.83 46.83 0 01-109.12 32M0 36.29a46.71 46.71 0 01-13.64-2.12A46.36 46.36 0 00-27.28 32a46.3 46.3 0 00-13.64 2.13 46.77 46.77 0 01-13.64 2.12 46.71 46.71 0 01-13.64-2.08A46.36 46.36 0 00-81.84 32a46.3 46.3 0 00-13.64 2.13 46.83 46.83 0 01-13.64 2.12M0 40.6a46.64 46.64 0 01-13.64-2.13 46.36 46.36 0 00-13.64-2.13 46.3 46.3 0 00-13.64 2.13 46.7 46.7 0 01-13.64 2.13 46.64 46.64 0 01-13.64-2.13 46.36 46.36 0 00-13.64-2.13 46.3 46.3 0 00-13.64 2.13 46.77 46.77 0 01-13.64 2.13M0 19.09A46.3 46.3 0 01-13.64 17a46.77 46.77 0 00-13.64-2.12A46.71 46.71 0 00-40.92 17a46.36 46.36 0 01-13.64 2.13A46.3 46.3 0 01-68.2 17a46.77 46.77 0 00-13.64-2.12A46.71 46.71 0 00-95.48 17a46.43 46.43 0 01-13.64 2.13M0 23.39a46.3 46.3 0 01-13.64-2.13 46.77 46.77 0 00-13.64-2.12 46.71 46.71 0 00-13.64 2.12 46.36 46.36 0 01-13.64 2.13 46.3 46.3 0 01-13.64-2.13 46.77 46.77 0 00-13.64-2.12 46.71 46.71 0 00-13.64 2.12 46.43 46.43 0 01-13.64 2.13M0 27.69a46.71 46.71 0 01-13.64-2.12 46.36 46.36 0 00-13.64-2.13 46.3 46.3 0 00-13.64 2.13 46.77 46.77 0 01-13.64 2.12 46.71 46.71 0 01-13.64-2.12 46.36 46.36 0 00-13.64-2.13 46.3 46.3 0 00-13.64 2.13 46.83 46.83 0 01-13.64 2.12m327.37-21.5a46.64 46.64 0 01-13.64-2.13 44.74 44.74 0 00-27.28 0 46.36 46.36 0 01-13.64 2.13 46.64 46.64 0 01-13.64-2.13 44.74 44.74 0 00-27.28 0 46.79 46.79 0 01-13.65 2.13" stroke="#84ccd8" stroke-linecap="square" stroke-width="1.5" fill="none"/><path d="M218.25 10.49a46.3 46.3 0 01-13.64-2.13 44.94 44.94 0 00-27.28 0 46.36 46.36 0 01-13.64 2.13 46.3 46.3 0 01-13.64-2.13 44.94 44.94 0 00-27.28 0 46.44 46.44 0 01-13.65 2.13" stroke="#84ccd8" stroke-linecap="square" stroke-width="1.5" fill="none"/><path d="M218.25 14.79a46.3 46.3 0 01-13.64-2.13 44.94 44.94 0 00-27.28 0 46.36 46.36 0 01-13.64 2.13 46.3 46.3 0 01-13.64-2.13 44.94 44.94 0 00-27.28 0 46.44 46.44 0 01-13.65 2.13m109.13-12.9a46.64 46.64 0 01-13.64-2.13 44.74 44.74 0 00-27.28 0 46.7 46.7 0 01-13.64 2.13 46.64 46.64 0 01-13.64-2.13 44.74 44.74 0 00-27.28 0 46.79 46.79 0 01-13.65 2.13" stroke="#84ccd8" stroke-linecap="square" stroke-width="1.5" fill="none"/><path fill="#24b7c7" d="M0-12.9h109.13v25.8H0z"/><path d="M109.12 6.19a46.7 46.7 0 01-13.64-2.13 44.74 44.74 0 00-27.28 0 46.3 46.3 0 01-13.64 2.13 46.7 46.7 0 01-13.64-2.13 46.7 46.7 0 00-13.64-2.13 46.7 46.7 0 00-13.64 2.13A46.7 46.7 0 010 6.19" stroke="#84ccd8" stroke-linecap="square" stroke-width="1.5" fill="none"/><path d="M109.12 10.49a46.36 46.36 0 01-13.64-2.13 44.94 44.94 0 00-27.28 0 46.3 46.3 0 01-13.64 2.13 46.36 46.36 0 01-13.64-2.13 46.77 46.77 0 00-13.64-2.12 46.77 46.77 0 00-13.64 2.12A46.36 46.36 0 010 10.49" stroke="#84ccd8" stroke-linecap="square" stroke-width="1.5" fill="none"/><path d="M109.12 14.79a46.36 46.36 0 01-13.64-2.13 44.94 44.94 0 00-27.28 0 46.3 46.3 0 01-13.64 2.13 46.36 46.36 0 01-13.64-2.13 46.77 46.77 0 00-13.64-2.12 46.77 46.77 0 00-13.64 2.12A46.36 46.36 0 010 14.79m109.12-12.9A46.7 46.7 0 0195.48-.24a44.74 44.74 0 00-27.28 0 46.64 46.64 0 01-13.64 2.13A46.7 46.7 0 0140.92-.24a46.7 46.7 0 00-13.64-2.13A46.7 46.7 0 0013.64-.24 46.7 46.7 0 010 1.89m0 4.3a46.64 46.64 0 01-13.64-2.13 46.7 46.7 0 00-13.64-2.13 46.64 46.64 0 00-13.64 2.13 46.36 46.36 0 01-13.64 2.13A46.64 46.64 0 01-68.2 4.06a46.7 46.7 0 00-13.64-2.13 46.64 46.64 0 00-13.64 2.13 46.77 46.77 0 01-13.64 2.13M0 10.49a46.3 46.3 0 01-13.64-2.13 46.77 46.77 0 00-13.64-2.12 46.71 46.71 0 00-13.64 2.12 46.36 46.36 0 01-13.64 2.13A46.3 46.3 0 01-68.2 8.36a46.77 46.77 0 00-13.64-2.12 46.71 46.71 0 00-13.64 2.12 46.43 46.43 0 01-13.64 2.13M0 14.79a46.3 46.3 0 01-13.64-2.13 46.77 46.77 0 00-13.64-2.12 46.71 46.71 0 00-13.64 2.12 46.36 46.36 0 01-13.64 2.13 46.3 46.3 0 01-13.64-2.13 46.77 46.77 0 00-13.64-2.12 46.71 46.71 0 00-13.64 2.12 46.43 46.43 0 01-13.64 2.13M0 1.89A46.64 46.64 0 01-13.64-.24a46.7 46.7 0 00-13.64-2.13A46.64 46.64 0 00-40.92-.24a46.7 46.7 0 01-13.64 2.13A46.64 46.64 0 01-68.2-.24a46.7 46.7 0 00-13.64-2.13A46.64 46.64 0 00-95.48-.24a46.77 46.77 0 01-13.64 2.13" stroke="#84ccd8" stroke-linecap="square" stroke-width="1.5" fill="none"/></pattern></defs><g data-name="Calque 2"><g data-name="Calque 1"><path d="M44.64 13.46C42.29 15 32.21 20.63 24.5 29c-11 11.94-11 15.76-16.31 26.92a86.29 86.29 0 00-8 30.46 89.3 89.3 0 003.68 32.07c4.57 16.3 11.94 27.34 19.16 38 9.15 13.47 11.28 12.9 24.84 31.28 14.38 19.51 32.47 36.53 81.65 30.36 26.06-3.27 48.39-6.07 76.23-18.59 19.11-8.58 35.87-16.35 50.27-34.41 5.73-7.2 16.29-20.8 18.62-41.2 2.3-20.09-4.69-35.43-8.24-43.23-3.31-7.28-10.3-22.14-26.51-33.89C234.82 43 225.42 36.21 211.83 34c-13.21-2.15-16.68 2.27-29.72-1.08-4.79-1.23-10.8-4.38-22.62-10.62-15.83-8.34-15.18-8.81-21.44-11.8-6.67-3.19-25.68-12-49.48-10.28-9.72.71-36.91 8.71-43.93 13.24z" opacity=".7" fill="#06df86"/><path d="M167.4 83.34c-2.14 0-4.11-.35-5-.26l20.24 22.83c.78.29 4.88 1 7 0 .55-.25 0-.35.5-.78a2.14 2.14 0 000-2.33c-1.5-1.56-3.33-2.68-5.25-4.67-3.25-3.37-4.25-3.89-8.25-7.27-1.79-1.5-2.16-2-3.74-3.37-1-.83-1-.81-3.75-3.11a5.86 5.86 0 00-1.5-1c-.12-.08 0-.04-.25-.04z" fill="#858da1"/><path fill="#474745" d="M78.68 82.28H67.94l-14.5 20.74 12.74.27 12.5-21.01z"/><path fill="#858da1" d="M65.68 103.29l42.74.78 3-21.78-32.74-.01-13 21.01z"/><path fill="#474745" d="M116.42 82.81l1.74 22.04h-9.99l3.25-22.3 5 .26z"/><path fill="#858da1" d="M157.15 83.08l-40.98-.79 1.99 22.3 55.73 1.31-16.74-22.82z"/><path d="M241.86 123.18a31.44 31.44 0 00-3.23-5.85 23.38 23.38 0 00-9.75-7c-13.49-5.83-33.85-7.18-38.74-7.53l.25 2.07-.5.78-.75.26h-.25L50.44 102.5c-.65.16-.91.88-1.25 1-5.62 2.64-7.65 11.61-6.5 18.67a7 7 0 00.5 1.3 7.69 7.69 0 00-1.5.26c-4.31 1.82-3.82 11.84-3.75 13h5.49c.06-.17.14-.45.25-.78 2.35-6.67 8.71-9.86 10.75-10.88a21.05 21.05 0 019.5-2.6c4.39-.08 7.12 1.86 8.75 2.6a18.26 18.26 0 017.74 6.74c1.64 2 2.29 5 3 8.82.25 1.37 1.31 2.57 2.25 4.41a5.59 5.59 0 002 2.59l102 .55a5.39 5.39 0 001-.52 6.5 6.5 0 002.5-3.63 8.53 8.53 0 00.26-3.37c-.42-4.28 3.63-10.18 7.75-13.49a21.36 21.36 0 0110.74-4.4c2-.31 5.65-.14 10.75 1.82 4.71 1.81 5.77 3.81 7.25 5.44a22.73 22.73 0 014.74 7.78 28.29 28.29 0 011.75 9.6l5.25.1" fill="url(#spinner-solid-a)"/><path d="M34.94 141.4a10.92 10.92 0 004.24 5.7 13.38 13.38 0 004.75 2.34v-1.82a27.74 27.74 0 012.75-12.44 14 14 0 015-5.71 15.12 15.12 0 017-2.59c1.61-.26 4.08-1.45 7-.52 1.86.6 3 1.46 5.25 3.12a23.13 23.13 0 014.74 5.19 12.35 12.35 0 012.5 5.7 14.48 14.48 0 01.25 6.48c-.38 1.76-.37 3.43-.75 4.41l-.5 1.3h119.45c-.19-.24.28-.85 0-1.3-.5-2.59-1.19-3.73-1-6 .28-3.17.53-6.48 1.76-8.82a15.9 15.9 0 016-6.48 17.89 17.89 0 019-3.11 14.74 14.74 0 0110.5 3.63 18 18 0 016 9.34 22.28 22.28 0 011 5.44 20.21 20.21 0 01-1 6.75h7.25l.5-.26c1.84-1 2.89-1.55 3.5-2.59a4.17 4.17 0 00.5-1.82v-2.07h-4.5v-1.29c-.27-9.22-6.25-15.57-7-16.34a23.1 23.1 0 00-8.75-5.71 22.48 22.48 0 00-10.75-.78 24.85 24.85 0 00-8.24 3.11 21.9 21.9 0 00-6 4.93 23.11 23.11 0 00-3.75 6.48c-1.07 2.78-1.6 4.16-1.5 6a3.72 3.72 0 01-2.75 4.41 4.69 4.69 0 01-1.5.26l-98.71-.28a5.49 5.49 0 01-.75-.52 6.65 6.65 0 01-2-3.11 9.75 9.75 0 01-.5-2.86c-.11-3.34-2.37-6.81-3.5-8.55a23.29 23.29 0 00-9-8 21.51 21.51 0 00-21 .78 16.87 16.87 0 00-5.74 4.66 30.23 30.23 0 00-2.75 4.15 3.91 3.91 0 01-1 1.56 3.67 3.67 0 01-1.5.78h-4.25" fill="#535352"/><path d="M216.52 126.65a16.11 16.11 0 018.76 5.2 20.08 20.08 0 015 12.47 18.84 18.84 0 01-2.75 11.68 17 17 0 01-7.26 6.23c-6.38 2.81-12.25.39-13.77-.26a18.34 18.34 0 01-9.76-9.61 19.11 19.11 0 01-1-10.65 17.88 17.88 0 014.26-9.61 17.2 17.2 0 019-4.93 16 16 0 017.52-.52zm-151.34-.54a16.08 16.08 0 018.74 5.18 20.12 20.12 0 015 12.45 18.89 18.89 0 01-2.75 11.67 16.93 16.93 0 01-7.25 6.22c-6.37 2.81-12.23.39-13.75-.26a18.29 18.29 0 01-9.74-9.6 19.13 19.13 0 01-1-10.63 17.85 17.85 0 014.25-9.59 17.25 17.25 0 019-4.93 16 16 0 017.5-.51z" fill="#474745"/><path d="M216.27 132.1a12 12 0 016.51 4.42 13.7 13.7 0 012.75 8 13.11 13.11 0 01-2 7.54A12.44 12.44 0 01217 157a11.48 11.48 0 01-8 .26 12.27 12.27 0 01-5.75-4.94 13.17 13.17 0 01-2.75-6.75 13.42 13.42 0 0115.77-13.51zm-151.34-.55a11.92 11.92 0 016.49 4.45 13.57 13.57 0 012.75 8 13 13 0 01-2 7.52 12.42 12.42 0 01-6.5 4.93 11.41 11.41 0 01-8 .25 12.22 12.22 0 01-5.74-4.93 13.09 13.09 0 01-2.75-6.77 11.81 11.81 0 016.75-11.93 12.36 12.36 0 019-1.52z" fill="#eee"/><path d="M48 106.27c-.18-.21-1.45.84-2 1.81a4.51 4.51 0 00-.5 1.56c-1.22 8-.55 7.86-1 9.59a1.77 1.77 0 000 1 2.39 2.39 0 002 1.3 3.2 3.2 0 002-.52 4.77 4.77 0 002-2.59 5.54 5.54 0 00.25-2.08l.75-6.74v-1.55l-.25-.78-.5-.78-1-.26H48" fill="#9f000d"/><path d="M113.16 104.07c0 14.34 2.5 31.9 7.24 42.79m57.77-41.48c4.19 13.15 7 30.06 5.62 41.6" stroke="#535352" stroke-miterlimit="10" stroke-width="2" fill="none"/><path fill="#474745" d="M162.15 82.82h-6.25l17.74 22.82 9 .27-20.49-23.09z"/><path d="M61.69 78.91l4 3.37 102 1.06a8.35 8.35 0 00-2.25-1.55 8.43 8.43 0 00-3.5-.78c-2.46-.08-8.12-.41-15.74-.78q-19.41-1.17-40.24-1.57" fill="#1b5dc5"/><path d="M233.37 122.26c-13.14-8.28-30.45-15.89-43.23-17.39" stroke="#535352" stroke-miterlimit="10" stroke-width="2" fill="none"/><path d="M241.61 126.15a2.93 2.93 0 01-1.25 2.07c-.5.24-1.3.27-3.25-1a15.42 15.42 0 01-6.24-7.52c-.66-1.73-1.23-3.23-.5-4.41a3.57 3.57 0 013.5-1.29c1.26.19 2 1 3.49 2.59a18.14 18.14 0 013.5 5.45c1 2.49.86 3.65.75 4.15m-117.22-94.6V53a12.51 12.51 0 01-12.56 12.25H52.67A12.25 12.25 0 0140.42 53V31.59a12.26 12.26 0 0112.25-12.26h59.16a12.52 12.52 0 0112.56 12.26z" fill="#fff"/><path d="M54.88 36a4.21 4.21 0 012.89-1.13 4.28 4.28 0 013 1.19 5.47 5.47 0 011.37 2.1 1.59 1.59 0 001.79 1.05 1.63 1.63 0 001.23-1.93 2 2 0 00-.11-.35 9.16 9.16 0 00-2.24-3.15 7.28 7.28 0 00-5.07-1.88 7.36 7.36 0 00-5.13 1.94 9.73 9.73 0 00-2.89 5.22h3.34A6.32 6.32 0 0154.88 36z" fill="#06df86"/><path d="M64 45.38a1.55 1.55 0 00-1.79 1 6.31 6.31 0 01-1.45 2.18 4.45 4.45 0 01-5.87.09 6.39 6.39 0 01-1.8-3h5.35a1.14 1.14 0 00.26-2.24 1.09 1.09 0 00-.26 0h-5.76v-2.25h5.78a1.15 1.15 0 000-2.27H47.68a1.12 1.12 0 00-1.23 1 1.14 1.14 0 001 1.27 1 1 0 00.25 0h1.8v2.23h-1.82a1.12 1.12 0 00-1.11 1.13 1.15 1.15 0 001.11 1.14h2.16a9.7 9.7 0 002.88 5.12 7.81 7.81 0 0010.12 0 9.35 9.35 0 002.28-3.17 1.64 1.64 0 00-.83-2.14 1.22 1.22 0 00-.29-.09z" fill="#191b28"/><path d="M51.35 26.88a1.2 1.2 0 00-.78-.45 1.2 1.2 0 00-1.3 1.05 1.18 1.18 0 00.23.87l1.75 2.28a1.17 1.17 0 001.32.39 1.92 1.92 0 00.31-.18 1.26 1.26 0 00.18-1.65zm6.04-2.96a1.17 1.17 0 00-1.11 1.23l.08 3a1.18 1.18 0 001.19 1.14.77.77 0 00.37-.07 1.17 1.17 0 00.77-1.22l-.09-3a1.24 1.24 0 00-.36-.83 1.21 1.21 0 00-.85-.25zm7.74 2.3a1.13 1.13 0 00-1.6.32l-1.6 2.4a1.22 1.22 0 00.31 1.65 1.12 1.12 0 001.06.13 1.08 1.08 0 00.56-.45l1.59-2.39a1.2 1.2 0 00-.3-1.65z" fill="#06df86"/><path d="M64.14 57.66a1.12 1.12 0 00.76.45 1.14 1.14 0 00.87-.24 1.18 1.18 0 00.45-.8 1.29 1.29 0 00-.22-.87l-1.75-2.28a1.12 1.12 0 00-1.31-.39 1 1 0 00-.32.18 1.18 1.18 0 00-.43.8 1.17 1.17 0 00.23.87zm-6.01 3.02a1.19 1.19 0 001.12-1.24l-.1-3A1.16 1.16 0 0058 55.32a1.61 1.61 0 00-.38.08 1.2 1.2 0 00-.76 1.17l.1 2.88a1.12 1.12 0 00.36.83 1.14 1.14 0 00.81.4zm-7.79-2.31a1.16 1.16 0 001.66-.32l1.59-2.4a1.23 1.23 0 00-.36-1.65 1.15 1.15 0 00-1-.13 1.22 1.22 0 00-.57.46L50 56.71a1.23 1.23 0 00.34 1.66z" fill="#191b28"/><path d="M80.88 36a4.21 4.21 0 012.89-1.13 4.28 4.28 0 013 1.19 5.47 5.47 0 011.37 2.1 1.59 1.59 0 001.79 1.05 1.63 1.63 0 001.23-1.93 1.42 1.42 0 00-.11-.35 9.16 9.16 0 00-2.24-3.15 7.28 7.28 0 00-5.07-1.88 7.36 7.36 0 00-5.13 1.94 9.73 9.73 0 00-2.89 5.22h3.34A6.32 6.32 0 0180.88 36z" fill="#06df86"/><path d="M90 45.38a1.55 1.55 0 00-1.79 1 6.31 6.31 0 01-1.45 2.18 4.45 4.45 0 01-5.87.09 6.39 6.39 0 01-1.8-3h5.35a1.14 1.14 0 00.26-2.24 1.09 1.09 0 00-.26 0h-5.76v-2.25h5.78a1.15 1.15 0 000-2.27H73.68a1.12 1.12 0 00-1.23 1 1.14 1.14 0 001 1.27 1 1 0 00.25 0h1.8v2.23h-1.82a1.12 1.12 0 00-1.11 1.13 1.15 1.15 0 001.11 1.14h2.16a9.7 9.7 0 002.88 5.12 7.81 7.81 0 0010.12 0 9.35 9.35 0 002.28-3.17 1.64 1.64 0 00-.83-2.14 1.22 1.22 0 00-.29-.09z" fill="#191b28"/><path d="M77.35 26.88a1.2 1.2 0 00-.78-.45 1.2 1.2 0 00-1.3 1.05 1.18 1.18 0 00.23.87l1.75 2.28a1.17 1.17 0 001.32.39 1.92 1.92 0 00.31-.18 1.26 1.26 0 00.18-1.65zm6.04-2.96a1.17 1.17 0 00-1.11 1.23l.08 3a1.18 1.18 0 001.19 1.14.77.77 0 00.37-.07 1.17 1.17 0 00.77-1.22l-.09-3a1.24 1.24 0 00-.36-.83 1.21 1.21 0 00-.85-.25zm7.74 2.3a1.13 1.13 0 00-1.6.32l-1.6 2.4a1.22 1.22 0 00.31 1.65 1.12 1.12 0 001.06.13 1.08 1.08 0 00.56-.45l1.59-2.39a1.2 1.2 0 00-.3-1.65z" fill="#06df86"/><path d="M90.14 57.66a1.12 1.12 0 00.76.45 1.14 1.14 0 00.87-.24 1.18 1.18 0 00.45-.8 1.29 1.29 0 00-.22-.87l-1.75-2.28a1.12 1.12 0 00-1.31-.39 1 1 0 00-.32.18 1.18 1.18 0 00-.43.8 1.17 1.17 0 00.23.87zm-6.01 3.02a1.19 1.19 0 001.12-1.24l-.1-3A1.16 1.16 0 0084 55.32a1.61 1.61 0 00-.38.08 1.2 1.2 0 00-.76 1.17l.1 2.88a1.12 1.12 0 00.36.83 1.14 1.14 0 00.81.4zm-7.79-2.31a1.16 1.16 0 001.66-.32l1.59-2.4a1.23 1.23 0 00-.36-1.65 1.15 1.15 0 00-1-.13 1.22 1.22 0 00-.57.46L76 56.71a1.23 1.23 0 00.34 1.66z" fill="#191b28"/><path d="M105.79 36a4.21 4.21 0 012.89-1.13 4.31 4.31 0 013 1.19 5.59 5.59 0 011.37 2.1 1.58 1.58 0 001.79 1.05 1.61 1.61 0 001.22-1.93 1.42 1.42 0 00-.11-.35 9 9 0 00-2.24-3.15 7.28 7.28 0 00-5.07-1.88 7.37 7.37 0 00-5.13 1.94 9.73 9.73 0 00-2.89 5.22H104a6.4 6.4 0 011.79-3.06z" fill="#06df86"/><path d="M114.94 45.38a1.57 1.57 0 00-1.8 1 6.15 6.15 0 01-1.44 2.18 4.47 4.47 0 01-5.88.09 6.29 6.29 0 01-1.79-3h5.34a1.14 1.14 0 00.27-2.24 1.24 1.24 0 00-.27 0h-5.77v-2.25h5.77a1.14 1.14 0 001-1.27 1.13 1.13 0 00-1-1H98.6a1.12 1.12 0 00-1.23 1 1.11 1.11 0 001.23 1.27h1.82v2.23H98.6a1.12 1.12 0 00-1.11 1.13 1.14 1.14 0 001.11 1.14h2.15a9.78 9.78 0 002.89 5.12 7.8 7.8 0 0010.11 0 9.08 9.08 0 002.25-3.17 1.65 1.65 0 00-.82-2.14 1.43 1.43 0 00-.24-.09z" fill="#191b28"/><path d="M102.27 26.88a1.25 1.25 0 00-.78-.45 1.13 1.13 0 00-.86.25 1.08 1.08 0 00-.44.8 1.18 1.18 0 00.23.87l1.75 2.28a1.16 1.16 0 001.31.39 2 2 0 00.32-.18 1.25 1.25 0 00.17-1.65zm6.03-2.96a1.19 1.19 0 00-1.11 1.23l.09 3a1.16 1.16 0 001.18 1.14.83.83 0 00.38-.07 1.15 1.15 0 00.76-1.22l-.08-3a1.24 1.24 0 00-.36-.83 1.22 1.22 0 00-.86-.25zm7.75 2.3a1.14 1.14 0 00-1.61.32l-1.6 2.4a1.22 1.22 0 00.32 1.65 1.1 1.1 0 001 .13 1.14 1.14 0 00.57-.45l1.59-2.39a1.21 1.21 0 00-.31-1.65z" fill="#06df86"/><path d="M115.05 57.66a1.14 1.14 0 001.63.21 1.18 1.18 0 00.45-.8 1.28 1.28 0 00-.24-.87l-1.75-2.28a1.13 1.13 0 00-1.32-.39 1 1 0 00-.31.18 1.19 1.19 0 00-.44.8 1.17 1.17 0 00.23.87zM109 60.68a1.21 1.21 0 001.13-1.24l-.1-3a1.18 1.18 0 00-1.19-1.16 1.63 1.63 0 00-.37.08 1.19 1.19 0 00-.77 1.17l.1 2.88a1.2 1.2 0 00.36.83 1.16 1.16 0 00.84.44zm-7.74-2.31a1.15 1.15 0 001.61-.32l1.59-2.4a1.21 1.21 0 00-.32-1.66 1.15 1.15 0 00-1-.13 1.2 1.2 0 00-.56.46l-1.59 2.39a1.21 1.21 0 00.27 1.66z" fill="#191b28"/><circle cx="138.62" cy="51.72" r="8.45" fill="#fff"/><circle cx="158.29" cy="58.8" r="5.22" fill="#fff"/><path d="M229.42 226.56c-1.9-.1-3.31 1.05-4 1a47.85 47.85 0 00-6 0s-1 0-1 2a2.89 2.89 0 001 2c.77.54 1.86.43 3 1 .5.25.36 1.79 1 2 1.21.41 3.42 0 5 0 2 0 2-1.34 2-2-.06-1.08 0-1 0-2 0-2 .02-3.94-1-4zm-24 3c-1.9-.1-3.31 1.05-4 1-1.09-.07-4.42-3.18-5-3l-4 2c-2 1-8 3-8 3s-1.26 1.89-1 3 2.43 1.72 3 2 12.36-.21 13 0c1.21.41 3.42 0 5 0 2 0 2-1.34 2-2-.06-1.08 0-1 0-2 0-2 .02-3.94-1-4z" fill="#00002c"/><path d="M219.42 137.56l5-1s2 9 2 14c0 7.64.67 19 0 23-.29 1.75 2.79 10.51 4 20 1.56 12.27 0 33 0 33a41.5 41.5 0 01-5 2 30.9 30.9 0 01-5 0s.1-23.32-1-31c-1-7-4.69-19.09-6-24-.83-3.1-1-9-3.44-12.08-3.34-4.21-1.56-9.92-1.56-9.92l3-14z" fill="#947558"/><path d="M211.42 136.56l-14 1-7 4a19.16 19.16 0 00-.9 5.59c0 2.6-.12 7.81.1 10.41.15 1.75 1.78 10.78 1.8 13s1.79 7.91 2 10c.43 4.2-.19 12.78 0 17 .1 2.31 1.09 7.83 1 12a179.75 179.75 0 001 18 11.25 11.25 0 005 4c1.66.55 7 0 7 0s-1-18.82-1-25c0-3.13-1-7.51-1-12 0-5 1-8 1-13a230.37 230.37 0 013-32c1.42-3.96 2-13 2-13z" fill="#c4a580"/><path d="M192.91 57.09c.06-.64.48-3.22 5.46-2.79.07.34 7.33 5.25 7.34 5.85.08 3.16 4.43 6.38 3.84 9.14-.11.5.79-.14.87.27a5.76 5.76 0 001 2s-2.44 3.48-5 4a45.43 45.43 0 01-6.57-.24c-1.31-.18-5.43 1.24-5.43 1.24s3.26-2 3.54-2.06c1.35-.54 1.88-.63 2-1.13l.11-1.3s-2.65.43-3.89-.33c-1.4-.85-1.79-1.88-1.61-4 .06-.65-1.85.09-1.83-1.46 0-1.29.11-1.3.27-3.25a34.14 34.14 0 00-.1-5.94z" fill="#fac38e"/><path d="M191.62 57a12.68 12.68 0 01-3-3.51c-.27-.61.64-2.6 1.33-3.72.6-1 1.69-.53 2.73-1.84.57-.72.3-.91.76-1.31 1-.9 2.31.16 4.23-.68.59-.25.39-.31 1-.6 1.54-.7 3.74-.77 4.79.41.32.36.26.54.57.74.81.5 1.5-.42 2.59-.13a2.65 2.65 0 011.77 1.88c.08.45 0 .83.23 1.05s.54 0 1 .08c.75.16 2.06 1.2 2 2.16s-.41 1.32-.16 2c.14.38 2 2 1.72 2.76-.24.57-.71.48-.76 1.24s.59.7.48 2c-.16 1.94-1.1 1.21-.87 2.54.1.57-.33 1.22-.46 1.66-.46 1.52-.85 6.06-1.55 6.65s-1.95-.16-3.24-.27c-.92-.08-3.27-2.18-3.67-2.93a5.08 5.08 0 01-.37-3.3c.05-.64 2.09-1.63 2.16-2.42.11-1.3-.9-1.62-1.78-2.11-1.65-.94-2.81 2.37-3.51 3-1.73 1.46-.4-7.8-2.4-7.39-2.69.44-4.21 2.8-5.59 2.04z" fill="#855445"/><path d="M211.42 71.56c1.22.82 3.27.3 5 2 1.38 1.37 7.51 1.82 9 5s2.09 2.14 2 8c-.07 4.44-2.8 13.6-3 19-.23 6 0 9.3 0 14 0 4 1 6 1 10 0 4.63-1.7.74-2 4a8.55 8.55 0 000 3c.36 1.66-11.68 2-16 2h-8c-3.4 0-9.63 4.75-10 3-.18-.87.82-3.77 1-7 .13-2.35.74-4.31 1-7 .49-5-.22-10.41.44-12.74.34.08-1.92-15.7-2.44-16.26a12.64 12.64 0 00-2-2c-1.27-.63.51-4.69 0-7-.66-3 2.06-9.85 2-10-.45-1.06 2.89-1.9 4-3 1.39-1.38 7.54-2 8-2 .62 0 6.07-.71 7.67-1.66z" fill="url(#spinner-solid-b)"/><path d="M231.29 86.45l-.25.27.36-.15z" fill="#86ccd7"/><path d="M231.4 86.57l-.36.15-2.6 2.8a6.91 6.91 0 01-2.36 2.74 26.27 26.27 0 00-.66 3.3c-.34 2.46 2.42 3.92 3 5a17.3 17.3 0 003 4c1 1-.5 2.79-1 5-.28 1.25-.63 7.78-1 9a58.26 58.26 0 00-1 6s0 4-1 5-4.06 2.19-4 3v2c0 .7-.79 3 0 3 1 0 1.37-1.62 2-1 1 1 0 4.34 0 5 .13 2.38-.1 3.86 0 4 .33.45 1-.48 2-2 .73-1.14 2.11-1.25 3-3 1.44-2.82 2.33-8.63 3-12a107.31 107.31 0 014-13 41.85 41.85 0 002-11c0-1.73-.13-1.51-1-4a30.41 30.41 0 00-3-7c-1.25-1.82-1.86-4.74-4.02-6.99z" fill="#fac38e"/><path d="M232.42 86.56c0-.41-1.7-1.7-2-2-1-1-2-3-3-4l-1-1s1.2 6 1 7c-.53 2.67-.67 3.72-1 5 0 0 6-4 6-5zm-38-4c-.71-.56-1.56-3.82-3-4-2.52-.3-4 2-5 4-.63 1.27-1 14 0 15a4.17 4.17 0 003 1s-1.58-5.42 0-7c1-1 2-1 4.14-1.08 2.72-.1 3.65 1.53 4.86 2.08 0 0-1.76-8.23-4-10z" fill="#86ccd7"/><path d="M189.42 90.56c2-1 2.88-1 3-1l4 1a4.26 4.26 0 002 2c.29 1-.21 4.49 0 5.83.41 2.44 0 4.17 0 6.17s.06 6.25 0 8 0 4 0 6c0 1.58-1 7-1 7s-1 4.19-1 5c0 .52 2 4.3 2 5s-.21 5-1 5c-.25 0 1.22.16-1 0-.64 0-.5-2-1-2-1 0-.81.93-1 1-.79.31-.73 2.48-1 3-.6 1.15 4.57 4.25 4 5s-2 0-2 0 1 2 0 2-2-3-2-3a6.23 6.23 0 01-2-2c-.76-1.12.58-2.42-1-4-1-1 1.82-5.59 1-8.94a53 53 0 01-1-12.06c0-3.16-.91-5.91-1-9v-10c0-1.76-1-5-1-7 0-2.21.5-2.75 1-3z" fill="#fac38e"/><path d="M197.77 67.48l-.64.13c-.61.12-2.54.44-2.54.44l-.17 1.51s3-1 3.35-2.08z" fill="#fff"/></g></g></svg>