<svg data-name="Calque 1" xmlns="http://www.w3.org/2000/svg" viewBox="0 0 50 50"><path fill="#191b28" d="M0 0h50v50H0z"/><path d="M16.08 29.36a59.11 59.11 0 0111.58-8.89 1.48 1.48 0 012 .57 1.48 1.48 0 01-.56 2 56.1 56.1 0 00-11.1 8.6l-.37.38-.08.08.07.08c.15.17.3.34.46.49a9.78 9.78 0 0013.82 0c4.52-4.52 7.5-12.1 8.86-22.53v-.16h-.16c-10.5 1.39-18.11 4.4-22.6 8.97a9.77 9.77 0 00-2.1 10.36l.06.15z" fill="none"/><path d="M17.54 32.1l.08-.08.37-.38A56.1 56.1 0 0129.15 23a1.48 1.48 0 00.56-2 1.48 1.48 0 00-2-.57 59.11 59.11 0 00-11.58 8.89l-.14.14-2.18 2.3-.06.07a57.82 57.82 0 00-7.17 10.36 1.48 1.48 0 00.63 2 1.48 1.48 0 002-.62 55.43 55.43 0 016.25-9.19l.09-.11 2-2.21z" fill="#fff"/><path d="M42.88 6.76l-.57.06c-12.46 1.33-21.45 4.81-26.7 10.32a12.65 12.65 0 00-1.88 14.59l2.18-2.3-.06-.15A9.77 9.77 0 0118 18.95c4.49-4.57 12.1-7.58 22.61-8.95h.16v.16c-1.36 10.43-4.34 18-8.86 22.53a9.78 9.78 0 01-13.82 0c-.16-.16-.31-.32-.46-.49l-.07-.08-2 2.21.08.09.35.36a12.65 12.65 0 009 3.73c3.52 0 8.11-2.55 10.35-5.25 4.49-5.4 7.37-13.72 8.56-24.79l.1-.59a1 1 0 00-1.12-1.12z" fill="#06df86"/></svg>