<svg data-name="Calque 1" xmlns="http://www.w3.org/2000/svg" viewBox="0 0 50 50"><path d="M26.94 35.24h-4a1 1 0 100 2h4a1 1 0 100-2z" fill="none"/><path d="M11.57 30.61h-1.35a1.44 1.44 0 00-1.3.85l-3 6.74A1.49 1.49 0 006 39.64a1.39 1.39 0 001.19.66H42.7a1.4 1.4 0 001.19-.66 1.52 1.52 0 00.1-1.46l-3.05-6.74a1.42 1.42 0 00-1.29-.85h-1.36zm15.37 6.66h-4a1 1 0 110-2h4a1 1 0 110 2z" fill="none"/><path d="M11.57 30.61h26.94-27.16z" fill="#06df86"/><path d="M26.69 35.24h-4a1 1 0 100 2h4a1 1 0 100-2z" fill="#191b28"/><path d="M46.3 37l-3-6.73a4.25 4.25 0 00-1.48-1.76 4.42 4.42 0 01-3.5 2.06h1.08a1.44 1.44 0 011.3.85l3 6.74a1.49 1.49 0 01-.11 1.46 1.39 1.39 0 01-1.19.66H6.92a1.39 1.39 0 01-1.19-.66 1.49 1.49 0 01-.11-1.46l3.05-6.74a1.44 1.44 0 011.3-.85h1.13a4.4 4.4 0 01-3.5-2.06 4.25 4.25 0 00-1.48 1.76L3.07 37a4.33 4.33 0 00.3 4.14 4.23 4.23 0 003.55 1.96h35.53A4.21 4.21 0 0046 41.16a4.33 4.33 0 00.3-4.16z" fill="#191b28"/><path d="M36 7.6H13.32a6.41 6.41 0 00-6.4 6.4v12.21a4.42 4.42 0 004.18 4.38h27.17a4.42 4.42 0 003.5-2.06 4.37 4.37 0 00.67-2.32V14A6.41 6.41 0 0036 7.6zm2 20.21H11.1a1.6 1.6 0 01-1.38-1.58V14a3.6 3.6 0 013.6-3.6H36a3.6 3.6 0 013.6 3.6v12.21a1.6 1.6 0 01-1.37 1.58z" fill="#06df86"/><path d="M28.67 20.75l-1.48-1.46 1.25-.4a.43.43 0 00.31-.4.46.46 0 00-.23-.43l-7.29-3.63a.35.35 0 00-.2-.05.43.43 0 00-.31.12.45.45 0 00-.09.52l3.52 7.27a.47.47 0 00.41.25.47.47 0 00.41-.31l.47-1.41S26.62 22 27 22.4a.46.46 0 00.64 0l1-1a.47.47 0 000-.64z" fill="#191b28"/></svg>