<svg data-name="Calque 1" xmlns="http://www.w3.org/2000/svg" viewBox="0 0 50 50"><path fill="#191b28" d="M0 0h50v50H0z"/><path d="M26.94 35.24h-4a1 1 0 100 2h4a1 1 0 100-2z" fill="none"/><path d="M11.57 30.61h-1.35a1.44 1.44 0 00-1.3.85l-3.05 6.72A1.5 1.5 0 006 39.64a1.4 1.4 0 001.19.66H42.7a1.4 1.4 0 001.19-.66 1.51 1.51 0 00.11-1.46l-3.05-6.74a1.44 1.44 0 00-1.3-.85h-1.36zm15.37 6.66h-4a1 1 0 110-2h4a1 1 0 110 2z" fill="none"/><path d="M11.57 30.61h26.94-27.16z" fill="#06df86"/><path d="M26.69 35.24h-4a1 1 0 100 2h4a1 1 0 100-2z" fill="#fff"/><path d="M46.3 37l-3.05-6.74a4.26 4.26 0 00-1.48-1.76 4.38 4.38 0 01-3.5 2.06h1.13a1.44 1.44 0 011.3.85l3.05 6.74a1.51 1.51 0 01-.11 1.46 1.4 1.4 0 01-1.19.66H6.92a1.4 1.4 0 01-1.19-.66 1.5 1.5 0 01-.11-1.46l3.05-6.74a1.44 1.44 0 011.3-.85h1.13a4.38 4.38 0 01-3.5-2.06 4.26 4.26 0 00-1.48 1.76L3.07 37a4.31 4.31 0 00.3 4.13 4.21 4.21 0 003.55 1.97h35.53A4.21 4.21 0 0046 41.16a4.31 4.31 0 00.3-4.16z" fill="#fff"/><path d="M36 7.6H13.32a6.41 6.41 0 00-6.4 6.4v12.21a4.41 4.41 0 004.18 4.38h27.17a4.41 4.41 0 004.18-4.38V14A6.41 6.41 0 0036 7.6zm2 20.21H11.1a1.6 1.6 0 01-1.38-1.58V14a3.6 3.6 0 013.6-3.6H36a3.6 3.6 0 013.6 3.6v12.21a1.6 1.6 0 01-1.38 1.58z" fill="#06df86"/><path d="M28.67 20.75l-1.48-1.46 1.25-.4a.45.45 0 00.31-.4.47.47 0 00-.24-.43l-7.28-3.63a.46.46 0 00-.2 0 .46.46 0 00-.31.12.45.45 0 00-.09.52l3.52 7.28a.46.46 0 00.41.25.45.45 0 00.4-.31l.47-1.41L27 22.4a.46.46 0 00.64 0l1-1a.46.46 0 000-.64z" fill="#fff"/></svg>