<svg xmlns="http://www.w3.org/2000/svg" xmlns:xlink="http://www.w3.org/1999/xlink" viewBox="0 0 1080 787.9"><pattern y="911.6" width="65.1" height="57" patternUnits="userSpaceOnUse" id="spinner-solid-l" viewBox="0 -66.5 65.1 57" overflow="visible"><path fill="none" d="M0-66.5h65.1v57H0z"/><path fill="none" d="M0-66.5h65.1v57H0z"/><path fill="none" d="M0-66.5h65.1v57H0z"/><path fill="#184b78" d="M16.3-9.5V-19l16.3 9.5V0zm32.5 0V-19l16.3 9.5V0z"/><path fill="#5e749a" d="M0-66.5h65.1v57H0z"/><path fill="#184b78" d="M16.3-57v-9.5L0-57v9.5zm0-9.5V-76l16.3 9.5v9.5zm0 19V-57l16.3 9.5v9.5zm0 19V-38l16.3 9.5v9.5zm0-9.5v-9.5L0-38v9.5zm32.5-19v-9.5L32.6-57v9.5zm0-9.5V-76l16.3 9.5v9.5zm0 19V-57l16.3 9.5v9.5zm0 19V-38l16.3 9.5v9.5zm0-9.5v-9.5L32.6-38v9.5zM16.3-19v-9.5L0-19v9.5zm0 9.5V-19l16.3 9.5V0zM48.8-19v-9.5L32.6-19v9.5zm0 9.5V-19l16.3 9.5V0z"/><path fill="#184b78" d="M16.3-66.5V-76l16.3 9.5v9.5zm32.5 0V-76l16.3 9.5v9.5z"/></pattern><pattern y="911.6" width="65.1" height="57" patternUnits="userSpaceOnUse" id="spinner-solid-c" viewBox="0 -66.5 65.1 57" overflow="visible"><path fill="none" d="M0-66.5h65.1v57H0z"/><path fill="none" d="M0-66.5h65.1v57H0z"/><path fill="none" d="M0-66.5h65.1v57H0z"/><path fill="#184b78" d="M16.3-9.5V-19l16.3 9.5V0zm32.5 0V-19l16.3 9.5V0z"/><path fill="#5e749a" d="M0-66.5h65.1v57H0z"/><path fill="#184b78" d="M16.3-57v-9.5L0-57v9.5zm0-9.5V-76l16.3 9.5v9.5zm0 19V-57l16.3 9.5v9.5zm0 19V-38l16.3 9.5v9.5zm0-9.5v-9.5L0-38v9.5zm32.5-19v-9.5L32.6-57v9.5zm0-9.5V-76l16.3 9.5v9.5zm0 19V-57l16.3 9.5v9.5zm0 19V-38l16.3 9.5v9.5zm0-9.5v-9.5L32.6-38v9.5zM16.3-19v-9.5L0-19v9.5zm0 9.5V-19l16.3 9.5V0zM48.8-19v-9.5L32.6-19v9.5zm0 9.5V-19l16.3 9.5V0z"/><path fill="#184b78" d="M16.3-66.5V-76l16.3 9.5v9.5zm32.5 0V-76l16.3 9.5v9.5z"/></pattern><pattern y="911.6" width="65.1" height="57" patternUnits="userSpaceOnUse" id="spinner-solid-e" viewBox="0 -66.5 65.1 57" overflow="visible"><path fill="none" d="M0-66.5h65.1v57H0z"/><path fill="none" d="M0-66.5h65.1v57H0z"/><path fill="none" d="M0-66.5h65.1v57H0z"/><path fill="#184b78" d="M16.3-9.5V-19l16.3 9.5V0zm32.5 0V-19l16.3 9.5V0z"/><path fill="#5e749a" d="M0-66.5h65.1v57H0z"/><path fill="#184b78" d="M16.3-57v-9.5L0-57v9.5zm0-9.5V-76l16.3 9.5v9.5zm0 19V-57l16.3 9.5v9.5zm0 19V-38l16.3 9.5v9.5zm0-9.5v-9.5L0-38v9.5zm32.5-19v-9.5L32.6-57v9.5zm0-9.5V-76l16.3 9.5v9.5zm0 19V-57l16.3 9.5v9.5zm0 19V-38l16.3 9.5v9.5zm0-9.5v-9.5L32.6-38v9.5zM16.3-19v-9.5L0-19v9.5zm0 9.5V-19l16.3 9.5V0zM48.8-19v-9.5L32.6-19v9.5zm0 9.5V-19l16.3 9.5V0z"/><path fill="#184b78" d="M16.3-66.5V-76l16.3 9.5v9.5zm32.5 0V-76l16.3 9.5v9.5z"/></pattern><path d="M500.7 82.5c-23.6.5-42.8 7.4-54.1 11.6-18.5 6.9-28 13.5-57.6 31.4s-44.4 26.9-58.2 34.3c-27.3 14.6-63.8 27.4-136.7 52.9-21.6 7.6-32.8 11.3-46.6 21.5-8 5.9-35.5 26.4-43 61.1-5.9 27.2 2.3 54.2 5.2 64 3.2 10.6 7.4 19.8 9.3 36.1 1.2 10.4 1.2 21 0 31.4-.7 8.8-3.1 50.1 16.9 86.1 18.4 33.3 48.3 48.7 58.2 53.5 14.5 7.2 20.7 7.1 51.8 14.5 4 1 59.5 14.5 105.3 32 46.7 17.9 40.1 23.4 77.4 37.2 32.8 12.2 79.1 29.3 133.8 18 62.4-12.9 101.8-55.8 107.6-62.3 32.9-36.8 28-61 57.6-76.8 13.6-7.3 29.5-10.1 96.6 2.3C931 551.1 955.7 570.3 986 554c29.3-15.8 38.8-51.4 44.2-71.6 15.2-56.7-14.5-75.6-8.7-150.7 4.1-52.9 19.5-52.8 16.9-93.1-.9-13.2-5.7-87.8-66.9-122.2-27.3-15.3-38.9-3.5-120.5-3.5-82.2.1-75.6-11.5-162.9-11.6-73.3-.1-86 8.1-121.6-4.1-17.9-5.7-36.6-15.3-65.8-14.7z" fill="#06df86"/><linearGradient id="spinner-solid-a" gradientUnits="userSpaceOnUse" x1="211.072" y1="618.45" x2="373.899" y2="618.45" gradientTransform="translate(242.5 118)"><stop offset="0" stop-color="#7b272d"/><stop offset=".48" stop-color="#79272d"/><stop offset=".65" stop-color="#72282e"/><stop offset=".78" stop-color="#672a2f"/><stop offset=".88" stop-color="#562d30"/><stop offset=".96" stop-color="#403132"/><stop offset="1" stop-color="#333"/></linearGradient><path d="M615.6 727.8l-24 43h-138l46-63c11.6-15.6 127.7 4.2 116 20z" fill="url(#spinner-solid-a)"/><linearGradient id="spinner-solid-b" gradientUnits="userSpaceOnUse" x1="350.599" y1="626.313" x2="507.388" y2="626.313" gradientTransform="translate(242.5 118)"><stop offset="0" stop-color="#333"/><stop offset=".02" stop-color="#383233"/><stop offset=".14" stop-color="#502e31"/><stop offset=".27" stop-color="#632b2f"/><stop offset=".42" stop-color="#71292e"/><stop offset=".62" stop-color="#79272d"/><stop offset=".99" stop-color="#7b272d"/></linearGradient><path d="M737.6 747.8l-18 23h-138l34-48c11.6-15.6 133.7 9.2 122 25z" fill="url(#spinner-solid-b)"/><path fill="#fbb305" d="M743.8 770.8L18.3 650.5l221-164.6 791.4 98.3-104.6 186.6z"/><path fill="#e29e03" d="M925.8 770.8l104.8-187v10l-97 177z"/><path fill="#e29e03" d="M1015.6 766.8v-160l13-17v177zm-964-111h13v111h-13zm-13 111v-116l13 2v114zm964 4v-136l13-24v160zm-765 0v-69l13 3v66zm-13 0v-71l13 2v69z"/><path d="M719.6 552.4l-400.3-55.9s80.5 110.4 81.5 110.5l379.9 46.8c1.2.2 2.3-.7 2.5-1.9.1-.5 0-1-.3-1.4L726.7 557c-1.6-2.5-4.2-4.2-7.1-4.6z" fill="#474745"/><path d="M638.8 574.2l-19.2-2.5c-1.8-.2-3.4-1.6-3.9-3.3l-1.7-5.9c-.7-2.5.7-5 3.2-5.7.6-.2 1.2-.2 1.8-.1l17.8 2c1.6.2 3 1.2 3.7 2.6l3 6.4c1.1 2.3.1 5.1-2.2 6.2-.8.3-1.7.4-2.5.3zm37.3 4.2l-18-2.3c-2-.3-3.7-1.7-4.3-3.7l-1.4-4.9c-.8-2.7.8-5.6 3.5-6.3.6-.2 1.3-.2 2-.2l16.8 1.9c1.7.2 3.3 1.3 4 2.9l2.5 5.3c1.2 2.6.1 5.6-2.4 6.8-.8.4-1.8.6-2.7.5zm39.1 3.5l-17.6-2.3c-2.1-.3-3.8-1.8-4.4-3.8l-1.3-4.6c-.8-2.8.8-5.7 3.7-6.5.7-.2 1.3-.2 2-.2l16.6 1.9c1.8.2 3.4 1.3 4.2 3l2.4 5c1.2 2.6.1 5.8-2.5 7-1.1.5-2.1.7-3.1.5zm-333-36.5l-18.6-2.4c-1.9-.3-3.5-1.6-4.1-3.5l-1.5-5.4c-.7-2.6.8-5.3 3.4-6 .6-.2 1.2-.2 1.9-.2l17.4 2c1.7.2 3.1 1.2 3.9 2.8l2.8 5.8c1.1 2.4.1 5.3-2.3 6.5-1 .4-1.9.6-2.9.4zm43.8 5.5l-18.4-2.4c-2-.3-3.6-1.7-4.1-3.6l-1.5-5.3c-.7-2.6.8-5.4 3.4-6.1.6-.2 1.3-.2 1.9-.2l17.2 2c1.7.2 3.2 1.3 3.9 2.8l2.7 5.7c1.2 2.5.1 5.4-2.4 6.6-.8.5-1.8.7-2.7.5zm47.4 3.4l-18.7-2.4c-1.9-.2-3.5-1.6-4-3.5l-1.5-5.5c-.7-2.6.8-5.2 3.3-6 .6-.2 1.2-.2 1.9-.2l17.4 2c1.7.2 3.1 1.2 3.8 2.7l2.8 5.9c1.1 2.4.1 5.3-2.3 6.4-.9.6-1.8.7-2.7.6zm42.9 5.4l-17.4-2.3c-2.1-.3-3.9-1.8-4.5-3.8l-1.3-4.5c-.8-2.8.9-5.8 3.7-6.6.7-.2 1.4-.2 2.1-.2l16.4 1.9c1.8.2 3.4 1.3 4.2 3l2.3 4.8c1.3 2.7.1 5.8-2.5 7.1-.9.6-2 .7-3 .6zm42.4 6.1l-18.3-2.4c-2-.3-3.6-1.7-4.2-3.6l-1.5-5.2c-.7-2.7.8-5.4 3.5-6.2.6-.2 1.3-.2 1.9-.2l17.1 2c1.7.2 3.3 1.3 4 2.8l2.6 5.6c1.2 2.5.1 5.5-2.4 6.6-.8.6-1.8.7-2.7.6zm41.4 5l-18.8-2.4c-1.9-.2-3.5-1.6-4-3.5l-1.6-5.6c-.7-2.5.8-5.2 3.3-5.9.6-.2 1.2-.2 1.8-.1l17.5 2c1.6.2 3.1 1.2 3.8 2.7l2.8 6c1.2 2.4.2 5.2-2.2 6.4-.7.4-1.7.5-2.6.4zm53.9 25.8l-19.3-2.5c-1.8-.2-3.3-1.5-3.8-3.3l-1.7-6c-.7-2.4.8-5 3.2-5.7.6-.2 1.2-.2 1.7-.1l17.9 2c1.6.2 3 1.2 3.6 2.6l3.1 6.5c1.1 2.3 0 5-2.3 6.1-.7.4-1.5.5-2.4.4zm37.8 4.3l-18.7-2.4c-1.9-.3-3.5-1.6-4-3.5l-1.5-5.5c-.7-2.6.8-5.3 3.4-6 .6-.2 1.2-.2 1.9-.1l17.4 2c1.7.2 3.1 1.2 3.8 2.7l2.8 5.9c1.1 2.4.1 5.3-2.3 6.5-1 .4-1.9.5-2.8.4zm37.9 3.4l-16.8-2.2c-2.2-.3-4.1-1.8-4.7-4l-1.1-3.9c-.8-3 .9-6.1 3.9-6.9.7-.2 1.4-.3 2.1-.2l15.9 1.8c1.9.2 3.6 1.4 4.4 3.2l2 4.3c1.3 2.8.1 6.1-2.7 7.4-.9.4-1.9.6-3 .5zm-332.2-36.4l-18.7-2.4c-1.9-.2-3.5-1.6-4-3.5l-1.6-5.5c-.7-2.6.8-5.2 3.3-6 .6-.2 1.2-.2 1.9-.2l17.5 2c1.7.2 3.1 1.2 3.8 2.7l2.8 6c1.1 2.4.1 5.3-2.4 6.4-.8.4-1.7.6-2.6.5zm43 5.4l-17.6-2.3c-2.1-.3-3.8-1.8-4.4-3.8l-1.3-4.6c-.8-2.8.8-5.7 3.7-6.5.7-.2 1.4-.2 2-.2l16.5 1.9c1.8.2 3.4 1.3 4.2 3l2.4 5c1.2 2.7.1 5.8-2.6 7-.9.4-1.9.6-2.9.5zm47.7 3.3l-18.2-2.3c-2-.2-3.7-1.7-4.2-3.6l-1.4-5.1c-.8-2.6.7-5.4 3.4-6.2.7-.2 1.4-.3 2.1-.2l17 2c1.7.2 3.2 1.3 4 2.8l2.6 5.5c1.2 2.5.1 5.5-2.4 6.7-1 .4-2 .6-2.9.4zm43.3 5.5l-17.5-2.3c-2.1-.3-3.8-1.8-4.4-3.8l-1.3-4.5c-.8-2.8.8-5.8 3.7-6.6.7-.2 1.4-.2 2.1-.2l16.4 1.9c1.8.2 3.4 1.3 4.2 3l2.3 4.9c1.3 2.7.1 5.8-2.5 7.1-.9.5-2 .6-3 .5zm42 6.1l-17.8-2.3c-2.1-.3-3.8-1.7-4.3-3.8l-1.3-4.8c-.8-2.8.9-5.6 3.6-6.4.6-.2 1.3-.2 1.9-.2l16.7 1.9c1.8.2 3.4 1.4 4.1 3l2.4 5.2c1.2 2.6 0 5.7-2.6 6.9-.8.5-1.8.6-2.7.5zm41.4 5l-18.3-2.3c-2-.3-3.6-1.7-4.1-3.6l-1.5-5.2c-.7-2.7.9-5.4 3.5-6.1.6-.2 1.2-.2 1.8-.1l17.2 2c1.7.2 3.2 1.3 3.9 2.8l2.7 5.7c1.1 2.5 0 5.5-2.6 6.6-.8.1-1.7.3-2.6.2zm61.8 28.3l-18.2-2.3c-2-.3-3.6-1.7-4.2-3.6l-1.5-5.1c-.8-2.7.8-5.4 3.4-6.2.7-.2 1.3-.2 2-.2l17.1 2c1.7.2 3.3 1.3 4 2.8l2.6 5.5c1.2 2.5.1 5.5-2.4 6.7-.9.4-1.9.5-2.8.4zm38.7 4.4l-18.9-2.4c-1.9-.2-3.5-1.6-4-3.4l-1.6-5.7c-.7-2.5.8-5.2 3.3-5.9.6-.2 1.2-.2 1.8-.1l17.6 2c1.6.2 3.1 1.2 3.8 2.7l2.9 6.1c1.1 2.4.1 5.2-2.3 6.3-.9.3-1.8.5-2.6.4zm37.8 3.4l-16.8-2.2c-2.2-.3-4.1-1.9-4.7-4l-1.1-4c-.8-3 1-6 3.9-6.8.7-.2 1.4-.2 2.1-.2l16 1.7c1.9.2 3.6 1.4 4.4 3.2l2 4.3c1.3 2.8.2 6.1-2.6 7.4-1 .5-2.1.7-3.2.6zm-333.1-36.6l-17.5-2.3c-2.1-.3-3.8-1.8-4.4-3.8l-1.3-4.6c-.8-2.8.8-5.7 3.7-6.5.7-.2 1.4-.2 2-.2l16.5 1.9c1.8.2 3.4 1.3 4.2 3l2.3 4.9c1.3 2.6.1 5.8-2.5 7.1-1 .5-2 .7-3 .5zm44.2 5.6l-18-2.3c-2-.3-3.7-1.7-4.3-3.7l-1.4-5c-.8-2.7.8-5.5 3.5-6.3.6-.2 1.3-.2 2-.2l16.9 1.9c1.7.2 3.3 1.3 4 2.9l2.5 5.4c1.2 2.5.2 5.6-2.4 6.8-.8.5-1.9.6-2.8.5zm48.1 3.4l-19.3-2.5c-1.8-.2-3.3-1.5-3.9-3.3l-1.7-6c-.7-2.4.7-5 3.2-5.7.6-.2 1.2-.2 1.8-.1l17.9 2c1.6.2 3 1.2 3.6 2.6l3 6.4c1.1 2.3.1 5.1-2.2 6.1-.7.5-1.6.6-2.4.5zm43.4 5.5l-18.7-2.4c-1.9-.3-3.5-1.6-4-3.5l-1.5-5.5c-.7-2.6.8-5.2 3.3-6 .6-.2 1.2-.2 1.9-.1l17.4 2c1.7.2 3.1 1.2 3.8 2.7l2.8 6c1.1 2.4.1 5.3-2.4 6.4-.7.4-1.7.5-2.6.4zm41.8 6l-18.7-2.4c-1.9-.3-3.5-1.6-4-3.5l-1.5-5.5c-.7-2.6.8-5.3 3.4-6 .6-.2 1.2-.2 1.9-.1l17.4 2c1.7.2 3.1 1.2 3.8 2.7l2.8 5.9c1.2 2.4.2 5.3-2.3 6.5-.9.4-1.9.6-2.8.4zm40.7 4.9l-18.3-2.3c-2-.3-3.6-1.7-4.2-3.6l-1.5-5.2c-.8-2.7.8-5.4 3.4-6.2.6-.2 1.3-.2 2-.2l17.1 2c1.7.2 3.3 1.3 4 2.8l2.6 5.6c1.2 2.5.1 5.5-2.4 6.6-.8.5-1.8.7-2.7.5z" fill="#858da1"/><path fill="#e29e03" d="M633.3 770.8l-614-106-.4-14.4 728.3 120.4z"/><path d="M862.3 474l19.2 64.6c.1.2.1.5.2.7 1.4 6.1-1.8 12.4-7.5 15 0 0-148.7 66.5-164.7 78.5-3.1 2.3-62.6 24.9-64.3 22.3-4.7-7.1 26.9-10.4 22.1-15.5-3-3.1-39.7 3.2-40.2-1.7-1-8.5 39-7.2 37.4-10.7-2.3-5-45.5 1.5-44-9.6 1-6.8 40.9 1.6 42.1-3.2 1-3.7-40.7-5.8-38.2-14.5 2.9-10 43.2 5.9 46.8.5 3.3-5-28-22.9-22.9-30.7 6-9.1 11.2 11.3 38.4 15.9 9.2 1.5 26.5 3.4 33.6 1.6 9.7-2.5 94.5-55.7 94.5-55.7 6.4-3.3 9.6-10.6 7.7-17.5l-7.6-26.1 47.4-13.9z" fill="#cf9b76"/><pattern id="spinner-solid-d" xlink:href="#spinner-solid-c" patternTransform="translate(348.72 17320.12)"/><path d="M716.6 584.8c-.7 1.8 6.8 1.4 7.3 2.2 1.2 1.8-1.5 6.4-.3 8.1 1.1 1.6 8.1 3.3 9.1 4.9 1.2 1.9-1.5 7.2.2 8.6 1.9 1.7 7.6 3.6 8.7 5.2 1.3 1.9-1.2 8.4 1 8.9 8.7 2.1 161.1-65.2 165-72 8-14-90-21-90-21s-98.6 49.3-101 55.1z" fill="url(#spinner-solid-d)"/><pattern id="spinner-solid-f" xlink:href="#spinner-solid-e" patternTransform="translate(348.72 17320.12)"/><path d="M814.6 531.8s86 29 93 19c6-8.5-57-113-57-113l-36 50v44z" fill="url(#spinner-solid-f)"/><linearGradient id="spinner-solid-g" gradientUnits="userSpaceOnUse" x1="-91.657" y1="503.333" x2="-92.527" y2="509.233" gradientTransform="rotate(-.678 12526.407 -19115.983) scale(.99997)"><stop offset="0" stop-color="#f2f2f2"/><stop offset=".13" stop-color="#ececec"/><stop offset=".29" stop-color="#dbdbdb"/><stop offset=".49" stop-color="#bfbfbf"/><stop offset=".69" stop-color="#999"/></linearGradient><path fill="url(#spinner-solid-g)" d="M46.3 644.8l188.9 26.3 2.8-4.6-1.3-3L46.2 637z"/><path d="M236.7 663.5L46.2 637l198.9-93.9s159.1-3.2 162-1.9c1.8.7 2.9 2.4 3 4.3l-175 125.7s2.1-3.5 2.1-4.9c0-1-.2-1.9-.5-2.8z" fill="#191b28"/><linearGradient id="spinner-solid-h" gradientUnits="userSpaceOnUse" x1="-97.721" y1="491.212" x2="-98.591" y2="497.122" gradientTransform="rotate(-.678 12526.407 -19115.983) scale(.99997)"><stop offset="0" stop-color="#f2f2f2"/><stop offset=".13" stop-color="#ececec"/><stop offset=".29" stop-color="#dbdbdb"/><stop offset=".49" stop-color="#bfbfbf"/><stop offset=".69" stop-color="#999"/></linearGradient><path fill="url(#spinner-solid-h)" d="M40.1 632.8L229 659.1l2.8-4.7-1.3-2.9L40 624.9z"/><path d="M230.5 651.5L40 624.9 238.9 531s159.1-3.2 162-1.9c1.8.8 2.9 2.4 3 4.3l-175 125.7s2.1-3.5 2.2-4.9c-.1-.9-.3-1.8-.6-2.7z" fill="#06df86"/><linearGradient id="spinner-solid-i" gradientUnits="userSpaceOnUse" x1="-91.595" y1="480.682" x2="-92.465" y2="486.592" gradientTransform="rotate(-.678 12526.407 -19115.983) scale(.99997)"><stop offset="0" stop-color="#f2f2f2"/><stop offset=".13" stop-color="#ececec"/><stop offset=".29" stop-color="#dbdbdb"/><stop offset=".49" stop-color="#bfbfbf"/><stop offset=".69" stop-color="#999"/></linearGradient><path fill="url(#spinner-solid-i)" d="M46 622.2l188.9 26.3 2.9-4.7-1.4-2.9L46 614.3z"/><path d="M236.4 640.9L46 614.3l198.9-93.9s159.1-3.2 162-1.9c1.7.8 2.9 2.4 3 4.3l-175 125.7s2.1-3.5 2.2-4.9c-.1-.9-.4-1.8-.7-2.7z" fill="#191b28"/><path fill="#e6e6e6" d="M165.4 579.5l86.8 14.4-39.6 27.2-90.4-14.2z"/><path d="M197.9 613.8c-.7-.1-1.4-.1-1.6-.2l8-6.3c.8-.1 1.6.1 2.3.4.2.1 0 .1.1.3.1.3.1.6-.1.8-.6.4-1.2.7-2 1.2-1 .7-2 1.3-3.1 1.9-.7.4-.8.5-1.4.9-.4.2-.4.2-1.4.8l-.6.3-.2-.1z" fill="#858da1"/><path fill="#474745" d="M168.8 609l-3.5-.7-3.5-7.6 4.1.6z"/><path fill="#858da1" d="M165.8 601.3l14 2.3-.3 7.3-10.7-1.9z"/><path fill="#474745" d="M181.2 611l1.9-7.1-3.3-.6-.2 7.5z"/><path fill="#858da1" d="M194.6 613.3l-13.5-2.2 2-7.1 18.3 2.8z"/><linearGradient id="spinner-solid-j" gradientUnits="userSpaceOnUse" x1="-4257.008" y1="1439.837" x2="-4257.008" y2="1444.427" gradientTransform="matrix(.98 .18 .18 -.98 4106.305 2763.031)"><stop offset="0" stop-color="#1b5dc5"/><stop offset=".29" stop-color="#2163cb"/><stop offset=".68" stop-color="#3274dc"/><stop offset="1" stop-color="#4487ef"/></linearGradient><path d="M224.7 605.1c-.4.6-.9 1.2-1.4 1.7-1 .9-2.3 1.5-3.6 1.7-4.8 1.1-11.5.4-13.1.2l.2-.7-.2-.3-.2-.1h-.1l-45.6-7c-.2-.1-.2-.3-.4-.4-1.7-1.2-1.8-4.2-1-6.5.1-.1.1-.3.2-.4-.2 0-.3-.1-.5-.2-1.3-.8-.6-4.1-.5-4.5l1.8.3v.3c.4 1.7 1.4 3.2 2.9 4.2.9.7 1.9 1.2 3 1.4 1 .2 2 0 3-.3 1.1-.3 2.2-.9 2.9-1.8.7-.8 1.2-1.7 1.5-2.7.3-.5.6-.9 1-1.3.2-.3.5-.6.8-.7l33.4 5.8c.1.1.2.1.3.2.3.4.6.8.6 1.3 0 .4 0 .8-.1 1.1-.4 1.4.6 3.5 1.8 4.9.9 1 2 1.7 3.3 2.1 1.2.3 2.4.3 3.6 0 1-.2 2-.6 2.7-1.4.8-.6 1.5-1.4 2-2.3.6-.9.9-1.9 1.1-3l1.7.3" fill="url(#spinner-solid-j)"/><path d="M157.9 587c.4-.7 1-1.3 1.7-1.6.5-.3 1.1-.4 1.7-.5 0 .1-.1.3-.1.6-.3 1.4-.2 2.9.2 4.2.2.8.7 1.6 1.3 2.2.6.6 1.3 1 2.1 1.3.7.4 1.5.6 2.3.6.7-.1 1.3-.4 1.9-.7.7-.4 1.3-.9 1.9-1.4.5-.5.9-1.1 1.1-1.7.3-.7.5-1.4.5-2.1 0-.6.1-1.1 0-1.5l-.1-.5 39.2 7c-.1.1 0 .3-.1.4-.3.6-.6 1.2-.7 1.9-.2 1-.1 2 .1 3 .3 1 .8 1.8 1.6 2.5.8.8 1.7 1.3 2.8 1.5 1.2.3 2.6.1 3.6-.6 1.1-.6 2-1.6 2.5-2.7.3-.5.5-1.1.6-1.7.1-.7.2-1.5.1-2.3l2.4.4.1.1c.6.4.9.7 1 1.1.1.2.1.4.1.6l-.1.7h-.2l-1.3-.2c0 .1 0 .2-.1.4-.5 2-1.6 3.7-3.2 5-1 .7-2 1.2-3.2 1.4s-2.4 0-3.6-.4c-.9-.3-1.8-.9-2.5-1.5s-1.2-1.2-1.7-2c-.4-.7-.7-1.5-.9-2.3-.2-.6-.2-1.3-.1-2 .1-.3.1-.5.1-.8-.1-.4-.4-.6-.7-.8-.2-.1-.3-.1-.5-.2l-32.4-5.7c-.1 0-.2.1-.3.1-.4.2-.6.5-.8.9-.2.3-.3.6-.3.9-.3 1-.9 1.9-1.6 2.6-.9 1-2.1 1.7-3.4 2.1-1.2.4-2.5.4-3.7.1-1.1-.3-2.2-.8-3.1-1.6-.7-.5-1.2-1.1-1.6-1.9-.3-.5-.5-1-.7-1.5 0-.2-.1-.4-.2-.6-.1-.1-.3-.3-.4-.3l-1.4-.2" fill="#535352"/><path d="M216.6 602.5c1.2 0 2.3-.5 3.2-1.2 1.2-1 2-2.3 2.4-3.8.4-1.3.3-2.7-.2-4-.4-1-1.1-1.9-2-2.5-1.3-.9-3-1.1-4.5-.7-1.5.3-2.9 1.3-3.8 2.6-.6 1-1 2.2-.9 3.4-.1 1.2.2 2.4.8 3.4s1.6 1.7 2.7 2.1c.6.4 1.4.6 2.3.7zm-49.7-8.7c1.2 0 2.3-.5 3.2-1.2 1.2-1 2-2.3 2.4-3.8.4-1.3.3-2.7-.2-4-.4-1-1.1-1.8-2-2.5-1.3-.9-3-1.1-4.5-.7-1.5.3-2.9 1.3-3.8 2.6-.7 1-1 2.2-1 3.4-.1 1.2.2 2.4.8 3.4.7 1 1.6 1.8 2.8 2.2.7.4 1.5.6 2.3.6z" fill="#474745"/><path d="M216.8 600.7c.9-.1 1.7-.4 2.4-1.1.7-.7 1.2-1.5 1.4-2.5.2-.9.1-1.8-.2-2.6-.4-.9-1-1.6-1.8-2-.8-.5-1.7-.7-2.6-.5-.8.2-1.6.6-2.2 1.3-.6.5-1.1 1.2-1.3 2-.5 2.4 1.1 4.8 3.5 5.3.2 0 .5 0 .8.1zm-49.6-8.7c.9-.1 1.7-.5 2.4-1.1.7-.7 1.2-1.5 1.4-2.5.2-.9.1-1.8-.2-2.6-.4-.9-1-1.6-1.8-2-.8-.5-1.7-.7-2.6-.5-.8.2-1.6.6-2.2 1.3-.6.5-1.1 1.2-1.3 2-.5 2.4 1.1 4.8 3.5 5.3.2 0 .5.1.8.1z" fill="#eee"/><path d="M160.2 599.3c-.1.1-.4-.3-.6-.7-.1-.2-.1-.4-.1-.5.1-2.7.3-2.6.2-3.2 0-.1 0-.2.1-.3.2-.2.4-.3.7-.3.2 0 .5.1.6.3.3.3.5.6.5 1v.7l-.1 2.2-.1.5-.1.2-.2.2h-.4l-.5-.1" fill="#9f000d"/><path d="M181.4 603.8c.8-4.7 2.7-10.3 4.9-13.6m16.5 17c2.1-4.1 4-9.5 4.3-13.3" fill="none" stroke="#535352" stroke-width="2" stroke-miterlimit="10"/><path fill="#474745" d="M196.2 613.7l-2.1-.4 7.2-6.5 3 .5z"/><path d="M163.1 609.1l1.5-.9 33.5 5.6c-.3.2-.5.3-.8.4-.4.1-.8.1-1.2.1-.8-.1-2.7-.3-5.2-.7-4.3-.5-8.7-1.1-13.3-1.8" fill="#1b5dc5"/><path d="M221.8 604.9c-4.8 1.9-10.9 3.4-15.2 3.2" fill="none" stroke="#535352" stroke-width="2" stroke-miterlimit="10"/><path d="M224.8 604.1c0-.3-.1-.6-.3-.8-.1-.1-.4-.2-1.1.2-1 .4-1.9 1.2-2.5 2.1-.3.5-.6 1-.4 1.4.2.4.6.6 1.1.6.4 0 .7-.2 1.3-.7.6-.4 1.1-1 1.5-1.6.2-.3.3-.7.4-1.2" fill="#fff"/><path d="M336.6 660.7l116.1 15.5c4.1.5 7.7-1.3 8-4.2l5.8-53.4c.3-2.8-2.7-5.5-6.7-6L345 597.3c-4.1-.5-7.6 1.3-8 4.1l-7.1 53.3c-.3 2.8 2.7 5.5 6.7 6z" fill="#90959f"/><path d="M424.3 618.9l3.6-108.3c.1-2.7-1.9-5.1-4.6-5.5l-38.1-5.3c-2.9-.4-5.6 1.6-6 4.5v.5l-4 108.2c-.1 2.7 1.9 5.1 4.6 5.5l38.4 5.5c2.9.4 5.6-1.6 6-4.5.1-.2.1-.4.1-.6z" fill="#c9cccf"/><path d="M590.4 319.1l-369.3-53.7c-11.4-1.7-22.1 6.2-23.7 17.7-.1 1-.2 1.9-.2 2.9l-2.1 257.7c-.1 10.5 7.6 19.4 18 20.9l363.1 50.9c11.5 1.6 22-6.4 23.6-17.8.1-.7.2-1.4.2-2.2l8.3-254.9c.3-10.7-7.4-19.9-17.9-21.5z" fill="#e9ecf1"/><path d="M409.7 571.9c-63 159.4 438.6 150.7 456 85.4" fill="none" stroke="#534741" stroke-width="7" stroke-miterlimit="10"/><linearGradient id="spinner-solid-k" gradientUnits="userSpaceOnUse" x1="634.866" y1="463.179" x2="634.476" y2="548.459" gradientTransform="translate(242.5 118)"><stop offset="0" stop-color="#333"/><stop offset=".16" stop-color="#393939"/><stop offset=".39" stop-color="#4a4a4a"/><stop offset=".64" stop-color="#666"/><stop offset=".92" stop-color="#8d8d8d"/><stop offset=".99" stop-color="#999"/></linearGradient><path d="M884.5 578.5l15.8 5.9c7.2 2.7 10.9 10.7 8.3 18l-20.9 57.4c-2.6 7.3-10.6 11-17.9 8.4h-.1l-15.5-5.6c-7.3-2.6-11-10.6-8.4-17.9v-.1l21-57.7c2.6-7.1 10.5-10.9 17.7-8.4z" fill="url(#spinner-solid-k)"/><path d="M304.3 372.1l8.2 3c-1.3 3.5-3.9 6.3-7.2 8-8.1 4-17.8 2.2-24-4.3-3.2-3.5-4.6-8.2-4-12.8.4-4.7 2.8-8.9 6.7-11.6 7.5-4.9 17.2-4.4 24.1 1.3 2.8 2.4 4.8 5.7 5.5 9.3l-9 1.3c-.7-4.4-3.3-6.8-7.8-7.4-2.5-.4-5.2.2-7.2 1.7-4 3.3-4.6 9.2-1.5 13.3 1.7 2 4.1 3.2 6.7 3.4 4.4.5 7.6-1.2 9.5-5.2m37.5 8.5c2.2-1.5 3.5-3.9 3.7-6.5.4-2.6-.4-5.3-2.2-7.3-1.7-2-4-3.2-6.5-3.5-2.6-.4-5.2.2-7.2 1.8-4.1 3.5-4.8 9.7-1.5 14 1.7 2 4.1 3.2 6.7 3.4 2.4.3 5-.3 7-1.9m11.1 10.5l-9.1-1.1.3-2.5c-3.6 2-7.7 2.7-11.8 2.1-4.5-.5-8.5-2.7-11.4-6.2-3-3.5-4.3-8.1-3.7-12.7.4-4.6 2.7-8.8 6.4-11.6 3.5-2.8 8-4 12.4-3.4 4.5.5 11.3 4.9 11.3 4.9l.3-2.7 8.8 1-3.5 32.2zm37.2-28.1l-1.4 8.1-1.9-.2c-8.2-1-12.8 3.1-13.8 12.3l-1.1 10.2-9.1-1.1 3.5-32.1 9.1 1.1-.7 6c3.3-3.7 8.2-5.5 13.1-4.8.8 0 1.6.1 2.3.5m6.4.7l9.1 1.1-3.5 32.1-9.1-1.1 3.5-32.1zm9.7-12c.9 1 1.4 2.4 1.2 3.8-.1 1.4-.9 2.6-2 3.3-2.5 1.6-5.8 1.2-7.9-.9-.9-1-1.3-2.4-1.2-3.7.5-2.9 3.3-4.9 6.2-4.3 1.5.1 2.8.8 3.7 1.8m55.7 63.3l-10.2-1.2 6.9-11.3-10.9-32.7 10.1 1.2 6.9 21.5 11.8-19.3 10.2 1.2z" fill="#222029"/><path fill="#1eaa66" d="M441.5 369.4l-29.3-3.5-.8 7 17.7 2.1-6.7 5.4 10.3 1.2 8.2-6.6z"/><path fill="#222029" d="M408.4 397.7l29.3 3.5.7-7.1-17.7-2.1 6.7-5.4-10.2-1.2-8.2 6.6z"/><path fill="none" d="M260.2 305.5l254.2 30.2L502.2 447l-254.3-30.2z"/><path d="M241.1 547.5l.8-7c.2-1.6 1.7-2.8 3.3-2.6l3 .3c1.6.2 2.8 1.7 2.6 3.3l-.8 7c-.2 1.6-1.7 2.8-3.3 2.6l-3-.3c-1.6-.2-2.8-1.6-2.6-3.3zm87.4 10.4l.8-7c.2-1.6 1.7-2.8 3.3-2.6l3 .3c1.6.2 2.8 1.7 2.6 3.3l-.8 7c-.2 1.6-1.7 2.8-3.3 2.6l-3-.3c-1.6-.2-2.8-1.7-2.6-3.3zm-14.9-1.3l.8-7c.2-1.6 1.7-2.8 3.3-2.6l3 .3c1.6.2 2.8 1.7 2.6 3.3l-.8 7c-.2 1.6-1.7 2.8-3.3 2.6l-3-.3c-1.6-.1-2.8-1.6-2.6-3.3zm-17-1.4l.8-7c.2-1.6 1.7-2.8 3.3-2.6l3 .3c1.6.2 2.8 1.7 2.6 3.3l-.8 7c-.2 1.6-1.7 2.8-3.3 2.6l-3-.3c-1.6-.2-2.8-1.7-2.6-3.3zm-20.8-2.8l.8-7c.2-1.6 1.7-2.8 3.3-2.6l3 .3c1.6.2 2.8 1.7 2.6 3.3l-.8 7c-.2 1.6-1.7 2.8-3.3 2.6l-3-.3c-1.6-.1-2.8-1.6-2.6-3.3zm-19.8-2.6l.8-7c.2-1.6 1.7-2.8 3.3-2.6l3 .3c1.6.2 2.8 1.7 2.6 3.3l-.8 7c-.2 1.6-1.7 2.8-3.3 2.6l-3-.3c-1.7-.2-2.8-1.7-2.6-3.3z" fill="#858da1"/><pattern id="spinner-solid-m" xlink:href="#spinner-solid-l" patternTransform="translate(348.72 17320.12)"/><path d="M602.1 324.8c-1 58.3-1 147.7-2 206l238.5 30s13-92 13-150c0-31.4-39.4-58.3-69-75-14.2-8-50-24-50-24-1.1-.3-2.3-.2-3.2.5-.4.4-.7.9-.8 1.5-.5 2.8-5.5 11.4-12 13-3.6.9-4.4-1.3-8 0s-3.6 3.9-7 5c-3.9 1.3-5.1-1.6-10-1-5.3.7-6.2 4.5-10 4s-3.6-4.5-8-6c-5.3-1.8-8.5 3.1-13 1-2.9-1.3-2.5-3.8-6-6-2.4-1.5-5.2-2.2-8-2l-44.5 3z" fill="url(#spinner-solid-m)"/><path d="M761.3 200.7c1.9 6.7-3.5 12.1-4.9 17.9-2 7.9-11.1 17.8-12.9 20.7-13.2 22-18.5 11.9-20.6 28.2-.5 3.7.1 9.8.9 18.2 1.5 15.7 7.8 20.8 5.2 27.8-3.2 8.6-7.9 11.6-7.9 11.6s-5.2 2.5-6.4 2.2c-2.8-.7-5-.9-7-.2-2.8 1-2 3.1-6.1 4.5-4.5 1.5-6.7-1.3-10-1-2.9.3-5.7 4.2-9.3 4.5-3.1.3-5.7-6-9.9-6.8-3.6-.7-8.7 3-11.2 1.9s-4.8-5.5-6.5-6.6c-2.1-1.3-4.5-2-7-2-1.1-.1-5.3.3-5.3.3s5.5-9.1 6.6-16.2c1.2-7.2 3.5-21.4-2.9-29.8-3.1-4.1-6.9-5-11.6-7.1-9.9-4.4-17.2-16.2-24.3-25-8-9.9-10-18.2-10.8-26.3-.5-4.9.2-5 3.8-16.8 1.2-3.8-4.3-12.2-4.9-18.6-1.6-16.2.5-20.5-.8-34-1.6-16.6 24.4-55.1 25.3-55.7 5.1-2.9 9.5 11.5 20.8 17.1 41 20.1 105.2 50.6 110.8 62.4 2.7 6.4 6.4 27.3 6.9 28.8z" fill="#cf9b76"/><path d="M727.1 19c25.4 6.4 42.7 22.8 57.5 36.8C797.3 67.7 805 75 810.9 87.9c8.1 17.8 4.2 27.5 15.5 40.9 4.7 5.5 10.1 9.5 21 17.2 15 10.7 15.8 8.7 20.6 13.4 14.7 14.4 3.5 30.7 16.7 52.4 7 11.5 10.2 6.8 25.5 24.5 12.2 14 23.7 27.3 23.5 44-.1 11.1-5.1 10.8-8.5 31.7-1.8 11.5-3.9 25.3 3 30.6 4.9 3.7 9.3-.7 15.7 2.3 11.7 5.5 14.1 24.1 5.7 39.9-4.9 9.2-17.5 43.5-28 52-27.9 22.7-24 44-48 46-7.3.6-11.4-14.5-17-28-1.6-3.8-32.1-1-42-13-16.5-19.9-.8-49-33-65-12.1-6-44-35-56.5-60.7l-5.6-57.3c3.8-7.3 8.3-14.2 13.4-20.6 12.6-15.6 21.5-18.7 24.1-29.3 2.7-10.9-3.3-21.2-6.4-26.4-6.4-10.7-15.4-17.8-49.5-33.7-44.3-20.7-60-23.3-69.4-39.5-1.8-3.1-6.1-11.4-8.8-10.7-2.3.6-1.3 7.8-2.3 15.6-2.1 15.6-10.9 21.5-16.1 32.4-8.1 17-2.5 35.7.6 46.2 9.2 30.8 29.6 29.3 44.9 65 5 11.8 13.1 30.5 4.5 45.8-6.9 12.3-6.9 16.9-10.9 18.1-5.3 1.6-34.8 5.9-45.3-1.1s-42 3.3-46.7-32.9c-5.3-40.4 11.7-68.4 12-87 .4-21.5 18.2-19.1 21.5-56.2.7-6.7 1.9-13.3 3.5-19.8 3-12 15-32.9 17-39 5-15 15-30 20.2-37.7 5.5-8.1 51.2-41.7 101.3-29z" fill="#552300"/><path d="M649.1 217.3c-.2.3.3.8.5 1.1 1.5 1.9 1.7 3.5 2.5 5 7.9 13.5 18.1 18.1 18.1 18.1 16.1 7.3 32.4-2.5 33.2-3 6.8-4.3 12.1-10.7 15.1-18.2h-6c-15.6-.1-53.4-1.5-60.4-3-.4-.1-2.6-.6-3 0z" fill="#fff"/><path d="M601.1 82.3c56-80 165.5-82.5 185.5 34.5" fill="none" stroke="#47c1f0" stroke-width="11" stroke-miterlimit="10"/><path d="M595.3 78.6l15.8-.3-6.5 11.5-8.4 16-8.6 23V86.5c0-4.3 3.4-7.8 7.7-7.9z" fill="#191b28"/><path d="M718.1 236.9c29.3 14.1 51.1 2.2 68.5-63.1" fill="none" stroke="#47c1f0" stroke-width="7" stroke-miterlimit="10"/><path d="M779.6 100.6l14.8.1c6.8 0 12.2 5.5 12.2 12.3v53.5c0 6.8-5.5 12.3-12.3 12.3h-14.5c-6.8 0-12.3-5.5-12.3-12.3v-53.6c.1-6.7 5.4-12.1 12.1-12.3z" fill="#191b28"/><path d="M727.3 237.5l-1.2 3.8c-.5 1.8-2.4 2.7-4.2 2.2l-13.9-4.2c-1.8-.5-2.8-2.4-2.2-4.2l1.1-3.8c.5-1.8 2.4-2.8 4.2-2.2l14 4.2c1.7.7 2.7 2.5 2.2 4.2z"/></svg>