<svg xmlns="http://www.w3.org/2000/svg" viewBox="0 0 50 50"><path d="M28.94 4.18c-.37.08-.55.18-.63.33-.03.06-.07.36-.1.79-.27 3.49-.8 5.86-1.67 7.36-.48.84-.96 1.37-2.02 2.21-1.06.84-1.67 1.49-1.99 2.12-.05.09-.25.58-.46 1.08-.95 2.31-1.73 3.92-2.56 5.3-.96 1.59-1.96 2.69-2.79 3.1-.36.18-.55.21-1.12.21h-.5v8.52c0 8.09 0 8.53.06 8.54.03.01 1.17.22 2.52.47 2.48.46 3.68.68 5.29.98.93.17 1.37.22 3.36.36 1.44.1 2.48.16 3.62.2.56.02 1.28.05 1.61.07.78.04 1.78.04 2.55 0 .33-.02.88-.05 1.22-.07 1.54-.08 2.6-.27 3.2-.55.54-.26 1.27-.8 1.85-1.36.57-.56.87-.95 1.07-1.37l.1-.22.02-1.09.02-1.09.09-.19c.13-.28.22-.38 1.05-1.23.92-.94 1.11-1.2 1.21-1.67.08-.38.03-.6-.43-1.75-.33-.83-.45-1.25-.43-1.52.03-.35.23-.65 1.08-1.62.38-.44.6-.76.68-1.01l.06-.19-.07-.24c-.09-.29-.29-.67-.68-1.31-.35-.57-.6-1.06-.66-1.33-.08-.37.03-.61.62-1.39.19-.24.4-.53.47-.64.16-.23.32-.6.32-.74s-.16-.73-.28-1.04c-.38-.96-1.24-2.13-1.98-2.69-.52-.39-.89-.49-2.42-.65-1.17-.12-4.66-.18-7.48-.12-1.38.03-1.85.03-1.88 0-.07-.06-.15-.31-.18-.59-.08-.64.17-1.64.72-2.95.11-.27.55-1.17.96-2.01.41-.84.8-1.64.86-1.79.47-1.24.65-2.32.61-3.73-.03-.93-.13-1.57-.37-2.3-.12-.37-.39-.94-.57-1.2-.72-1.07-1.87-1.78-3.25-2.01-.33-.04-.42-.04-.7.02z" fill="#06df86"/><path d="M6.58 25.88c-.31.04-.56.13-.81.31-.33.25-.52.53-.64.97-.07.24-.07.31-.07 8.27 0 8.01 0 8.02.07 8.27.15.57.49.97 1.01 1.19l.18.08 2.82.01c1.89.01 2.87 0 2.98-.03.58-.12 1.12-.67 1.23-1.27.05-.24.05-16.26 0-16.5a1.73 1.73 0 00-.44-.82c-.2-.2-.38-.31-.67-.42l-.21-.08H9.42c-1.43-.01-2.71 0-2.84.02z"/></svg>