<svg data-name="Calque 1" xmlns="http://www.w3.org/2000/svg" viewBox="0 0 50 50"><path d="M26 25.44l6.53 3.87a1.4 1.4 0 01.47 1.93 1.39 1.39 0 01-1.91.47l-7.35-4.41a1.39 1.39 0 01-.68-1.19V25H11.44a13.56 13.56 0 0027.12 0H26zm-1-14.05a13.57 13.57 0 00-13.56 13.49V25h11.62v-8.3a1.4 1.4 0 011.4-1.39h.11A1.4 1.4 0 0126 16.66V25h12.56v-.08A13.57 13.57 0 0025 11.39z" fill="none"/><path d="M26 16.66a1.4 1.4 0 00-1.4-1.39h-.11a1.4 1.4 0 00-1.4 1.39V25H26zM23.74 27.3l7.33 4.41a1.39 1.39 0 001.93-.47 1.4 1.4 0 00-.48-1.93L26 25.44V25h-2.94v1.15a1.39 1.39 0 00.68 1.15zm-12.3-2.42H7.57v.08h3.88zm27.12 0V25h3.88v-.08z" fill="#191b28"/><path d="M25 38.52A13.56 13.56 0 0111.44 25H7.56a17.44 17.44 0 0034.88 0h-3.88A13.55 13.55 0 0125 38.52z" fill="#06df86"/><path d="M25 11.39a13.57 13.57 0 0113.56 13.49h3.87a17.43 17.43 0 00-34.86 0h3.87A13.57 13.57 0 0125 11.39z" fill="#191b28"/></svg>