<svg xmlns="http://www.w3.org/2000/svg" viewBox="0 0 50 50"><path d="M25.4 31.5c-3.6 0-6.5-2.9-6.5-6.5H10l.1.2c2.3 2.7 8.4 9.1 15.3 9.1s13-6.4 15.3-9.1l.1-.2h-9c.1 3.6-2.8 6.5-6.4 6.5z" fill="none"/><path d="M25.4 15.8c-6.9 0-13 6.4-15.3 9.1l-.1.1h8.9c0-3.6 2.9-6.5 6.5-6.5s6.5 2.9 6.5 6.5h9l-.1-.2c-2.4-2.7-8.5-9-15.4-9z" fill="none"/><path d="M10.1 24.8c2.3-2.7 8.4-9.1 15.3-9.1s13 6.4 15.3 9.1l.1.2h4.6c0-.4-.2-.8-.4-1.2-.9-1.2-9.1-12.1-19.6-12.1S6.7 22.6 5.8 23.8c-.2.3-.4.7-.4 1.2H10l.1-.2z" fill="#06df86"/><path d="M40.8 25l-.1.2c-2.3 2.7-8.4 9.1-15.3 9.1s-13-6.4-15.3-9.1L10 25H5.4c0 .4.1.8.4 1.2.9 1.2 9.1 12.1 19.6 12.1S44.1 27.4 45 26.2c.3-.3.4-.7.4-1.2h-4.6zm-15.4-2.5c1.4 0 2.5 1.1 2.5 2.4v.1h4c0-3.6-2.9-6.5-6.5-6.5s-6.5 2.9-6.5 6.5h4c0-1.4 1.1-2.5 2.5-2.5z" fill="#191b28"/><path d="M25.4 31.5c3.6 0 6.5-2.9 6.5-6.5h-4c0 1.4-1.1 2.5-2.5 2.5s-2.5-1.1-2.5-2.5h-4c0 3.6 2.9 6.5 6.5 6.5z" fill="#191b28"/><path fill="none" stroke="#191b28" stroke-width="4" stroke-linecap="round" stroke-miterlimit="10" d="M9.2 41.7L40.8 8.3"/></svg>