<svg xmlns="http://www.w3.org/2000/svg" viewBox="0 0 275.14 220.35"><defs><pattern id="spinner-solid-a" data-name="Couleur Vagues lisses" width="109.13" height="103.21" patternUnits="userSpaceOnUse" viewBox="0 0 109.13 103.22"><path fill="none" d="M0 0h109.13v103.21H0z"/><path d="M218.25 96.5a46.3 46.3 0 01-13.64-2.13 44.94 44.94 0 00-27.28 0 44.74 44.74 0 01-27.28 0 44.94 44.94 0 00-27.28 0 46.44 46.44 0 01-13.65 2.13" stroke="#84ccd8" stroke-linecap="square" stroke-width="1.5" fill="none"/><path d="M218.25 100.8a46.71 46.71 0 01-13.64-2.12 44.74 44.74 0 00-27.28 0 44.94 44.94 0 01-27.28 0 44.74 44.74 0 00-27.28 0 46.85 46.85 0 01-13.65 2.12" stroke="#84ccd8" stroke-linecap="square" stroke-width="1.5" fill="none"/><path d="M218.25 105.1a46.71 46.71 0 01-13.64-2.1 44.74 44.74 0 00-27.28 0 44.94 44.94 0 01-27.28 0 44.74 44.74 0 00-27.28 0 46.85 46.85 0 01-13.65 2.12" stroke="#84ccd8" stroke-linecap="square" stroke-width="1.5" fill="none"/><path fill="#24b7c7" d="M0 90.31h109.13v25.8H0z"/><path d="M109.12 96.5a46.36 46.36 0 01-13.64-2.13 44.94 44.94 0 00-27.28 0 44.74 44.74 0 01-27.28 0 46.77 46.77 0 00-13.64-2.12 46.77 46.77 0 00-13.64 2.12A46.36 46.36 0 010 96.5" stroke="#84ccd8" stroke-linecap="square" stroke-width="1.5" fill="none"/><path d="M109.12 100.8a46.77 46.77 0 01-13.64-2.12 44.74 44.74 0 00-27.28 0 46.71 46.71 0 01-13.64 2.12 46.77 46.77 0 01-13.64-2.12 46.36 46.36 0 00-13.64-2.13 46.36 46.36 0 00-13.64 2.13A46.77 46.77 0 010 100.8" stroke="#84ccd8" stroke-linecap="square" stroke-width="1.5" fill="none"/><path d="M109.12 105.1a46.77 46.77 0 01-13.64-2.1 44.74 44.74 0 00-27.28 0 46.71 46.71 0 01-13.64 2.12A46.77 46.77 0 0140.92 103a46.36 46.36 0 00-13.64-2.13A46.36 46.36 0 0013.64 103 46.77 46.77 0 010 105.1m0-8.6a46.3 46.3 0 01-13.64-2.13 46.77 46.77 0 00-13.64-2.12 46.71 46.71 0 00-13.64 2.12 46.36 46.36 0 01-13.64 2.13 46.3 46.3 0 01-13.64-2.13 46.77 46.77 0 00-13.64-2.12 46.71 46.71 0 00-13.64 2.12 46.43 46.43 0 01-13.64 2.13M0 100.8a46.71 46.71 0 01-13.64-2.12 46.36 46.36 0 00-13.64-2.13 46.3 46.3 0 00-13.64 2.13 46.77 46.77 0 01-13.64 2.12 46.71 46.71 0 01-13.64-2.12 46.36 46.36 0 00-13.64-2.13 46.3 46.3 0 00-13.64 2.13 46.83 46.83 0 01-13.64 2.12M0 105.1a46.71 46.71 0 01-13.64-2.1 46.36 46.36 0 00-13.64-2.13A46.3 46.3 0 00-40.92 103a46.77 46.77 0 01-13.64 2.12A46.71 46.71 0 01-68.2 103a46.36 46.36 0 00-13.64-2.13A46.3 46.3 0 00-95.48 103a46.83 46.83 0 01-13.64 2.12M218.25 83.6a46.3 46.3 0 01-13.64-2.13 44.74 44.74 0 00-27.28 0 44.74 44.74 0 01-27.28 0 44.74 44.74 0 00-27.28 0 46.44 46.44 0 01-13.65 2.13" stroke="#84ccd8" stroke-linecap="square" stroke-width="1.5" fill="none"/><path d="M218.25 87.9a46.3 46.3 0 01-13.64-2.13 44.94 44.94 0 00-27.28 0 44.74 44.74 0 01-27.28 0 44.94 44.94 0 00-27.28 0 46.44 46.44 0 01-13.65 2.13" stroke="#84ccd8" stroke-linecap="square" stroke-width="1.5" fill="none"/><path d="M218.25 92.2a46.71 46.71 0 01-13.64-2.12 44.74 44.74 0 00-27.28 0 44.94 44.94 0 01-27.28 0 44.74 44.74 0 00-27.28 0 46.85 46.85 0 01-13.65 2.12m109.13-21.5a46.64 46.64 0 01-13.64-2.13 44.74 44.74 0 00-27.28 0 44.74 44.74 0 01-27.28 0 44.74 44.74 0 00-27.28 0 46.79 46.79 0 01-13.65 2.13" stroke="#84ccd8" stroke-linecap="square" stroke-width="1.5" fill="none"/><path d="M218.25 75a46.3 46.3 0 01-13.64-2.13 44.74 44.74 0 00-27.28 0 44.74 44.74 0 01-27.28 0 44.74 44.74 0 00-27.28 0A46.44 46.44 0 01109.12 75" stroke="#84ccd8" stroke-linecap="square" stroke-width="1.5" fill="none"/><path d="M218.25 79.3a46.3 46.3 0 01-13.64-2.13 44.74 44.74 0 00-27.28 0 44.74 44.74 0 01-27.28 0 44.74 44.74 0 00-27.28 0 46.44 46.44 0 01-13.65 2.13" stroke="#84ccd8" stroke-linecap="square" stroke-width="1.5" fill="none"/><path fill="#24b7c7" d="M0 64.51h109.13v25.8H0z"/><path d="M109.12 83.6a46.36 46.36 0 01-13.64-2.13 44.74 44.74 0 00-27.28 0 44.74 44.74 0 01-27.28 0 46.7 46.7 0 00-13.64-2.13 46.7 46.7 0 00-13.64 2.13A46.36 46.36 0 010 83.6" stroke="#84ccd8" stroke-linecap="square" stroke-width="1.5" fill="none"/><path d="M109.12 87.9a46.36 46.36 0 01-13.64-2.13 44.94 44.94 0 00-27.28 0 44.74 44.74 0 01-27.28 0 46.77 46.77 0 00-13.64-2.12 46.77 46.77 0 00-13.64 2.12A46.36 46.36 0 010 87.9" stroke="#84ccd8" stroke-linecap="square" stroke-width="1.5" fill="none"/><path d="M109.12 92.2a46.77 46.77 0 01-13.64-2.12 44.74 44.74 0 00-27.28 0 46.71 46.71 0 01-13.64 2.12 46.77 46.77 0 01-13.64-2.12A46.36 46.36 0 0027.28 88a46.36 46.36 0 00-13.64 2.13A46.77 46.77 0 010 92.2m109.12-21.5a46.7 46.7 0 01-13.64-2.13 44.74 44.74 0 00-27.28 0 46.64 46.64 0 01-13.64 2.13 46.7 46.7 0 01-13.64-2.13 46.7 46.7 0 00-13.64-2.13 46.7 46.7 0 00-13.64 2.13A46.7 46.7 0 010 70.7" stroke="#84ccd8" stroke-linecap="square" stroke-width="1.5" fill="none"/><path d="M109.12 75a46.36 46.36 0 01-13.64-2.13 44.74 44.74 0 00-27.28 0 44.74 44.74 0 01-27.28 0 46.7 46.7 0 00-13.64-2.13 46.7 46.7 0 00-13.64 2.13A46.36 46.36 0 010 75" stroke="#84ccd8" stroke-linecap="square" stroke-width="1.5" fill="none"/><path d="M109.12 79.3a46.36 46.36 0 01-13.64-2.13 44.74 44.74 0 00-27.28 0 44.74 44.74 0 01-27.28 0A46.7 46.7 0 0027.28 75a46.7 46.7 0 00-13.64 2.13A46.36 46.36 0 010 79.3m0 4.3a46.3 46.3 0 01-13.64-2.13 46.7 46.7 0 00-13.64-2.13 46.64 46.64 0 00-13.64 2.13 46.36 46.36 0 01-13.64 2.13 46.3 46.3 0 01-13.64-2.13 46.7 46.7 0 00-13.64-2.13 46.64 46.64 0 00-13.64 2.13 46.43 46.43 0 01-13.64 2.13M0 87.9a46.3 46.3 0 01-13.64-2.13 46.77 46.77 0 00-13.64-2.12 46.71 46.71 0 00-13.64 2.12 46.36 46.36 0 01-13.64 2.13 46.3 46.3 0 01-13.64-2.13 46.77 46.77 0 00-13.64-2.12 46.71 46.71 0 00-13.64 2.12 46.43 46.43 0 01-13.64 2.13M0 92.2a46.71 46.71 0 01-13.64-2.12A46.36 46.36 0 00-27.28 88a46.3 46.3 0 00-13.64 2.13 46.77 46.77 0 01-13.64 2.07 46.71 46.71 0 01-13.64-2.12A46.36 46.36 0 00-81.84 88a46.3 46.3 0 00-13.64 2.13 46.83 46.83 0 01-13.64 2.12M0 70.7a46.64 46.64 0 01-13.64-2.13 46.7 46.7 0 00-13.64-2.13 46.64 46.64 0 00-13.64 2.13 46.7 46.7 0 01-13.64 2.13 46.64 46.64 0 01-13.64-2.13 46.7 46.7 0 00-13.64-2.13 46.64 46.64 0 00-13.64 2.13 46.77 46.77 0 01-13.64 2.13M0 75a46.3 46.3 0 01-13.64-2.13 46.7 46.7 0 00-13.64-2.13 46.64 46.64 0 00-13.64 2.13A46.36 46.36 0 01-54.56 75a46.3 46.3 0 01-13.64-2.13 46.7 46.7 0 00-13.64-2.13 46.64 46.64 0 00-13.64 2.13A46.43 46.43 0 01-109.12 75M0 79.3a46.3 46.3 0 01-13.64-2.13A46.7 46.7 0 00-27.28 75a46.64 46.64 0 00-13.64 2.13 46.36 46.36 0 01-13.64 2.17 46.3 46.3 0 01-13.64-2.13A46.7 46.7 0 00-81.84 75a46.64 46.64 0 00-13.64 2.13 46.43 46.43 0 01-13.64 2.13M218.25 57.8a46.64 46.64 0 01-13.64-2.13 44.74 44.74 0 00-27.28 0 44.74 44.74 0 01-27.28 0 44.74 44.74 0 00-27.28 0 46.79 46.79 0 01-13.65 2.13" stroke="#84ccd8" stroke-linecap="square" stroke-width="1.5" fill="none"/><path d="M218.25 62.1a46.64 46.64 0 01-13.64-2.1 44.74 44.74 0 00-27.28 0 44.74 44.74 0 01-27.28 0 44.74 44.74 0 00-27.28 0 46.79 46.79 0 01-13.65 2.13" stroke="#84ccd8" stroke-linecap="square" stroke-width="1.5" fill="none"/><path d="M218.25 66.4a46.64 46.64 0 01-13.64-2.13 44.74 44.74 0 00-27.28 0 44.74 44.74 0 01-27.28 0 44.74 44.74 0 00-27.28 0 46.79 46.79 0 01-13.65 2.13m109.13-21.5a46.64 46.64 0 01-13.64-2.13 44.74 44.74 0 00-27.28 0 46.7 46.7 0 01-13.64 2.13 46.64 46.64 0 01-13.64-2.13 44.74 44.74 0 00-27.28 0 46.79 46.79 0 01-13.65 2.13" stroke="#84ccd8" stroke-linecap="square" stroke-width="1.5" fill="none"/><path d="M218.25 49.2a46.64 46.64 0 01-13.64-2.13 44.74 44.74 0 00-27.28 0 46.7 46.7 0 01-13.64 2.13 46.64 46.64 0 01-13.64-2.13 44.74 44.74 0 00-27.28 0 46.79 46.79 0 01-13.65 2.13" stroke="#84ccd8" stroke-linecap="square" stroke-width="1.5" fill="none"/><path d="M218.25 53.5a46.64 46.64 0 01-13.64-2.13 44.74 44.74 0 00-27.28 0 44.74 44.74 0 01-27.28 0 44.74 44.74 0 00-27.28 0 46.79 46.79 0 01-13.65 2.13" stroke="#84ccd8" stroke-linecap="square" stroke-width="1.5" fill="none"/><path fill="#24b7c7" d="M0 38.71h109.13v25.8H0z"/><path d="M109.12 57.8a46.7 46.7 0 01-13.64-2.13 44.74 44.74 0 00-27.28 0 46.64 46.64 0 01-13.64 2.13 46.7 46.7 0 01-13.64-2.13 46.7 46.7 0 00-13.64-2.13 46.7 46.7 0 00-13.64 2.13A46.7 46.7 0 010 57.8" stroke="#84ccd8" stroke-linecap="square" stroke-width="1.5" fill="none"/><path d="M109.12 62.1A46.7 46.7 0 0195.48 60a44.74 44.74 0 00-27.28 0 46.64 46.64 0 01-13.64 2.1A46.7 46.7 0 0140.92 60a46.7 46.7 0 00-13.64-2.13A46.7 46.7 0 0013.64 60 46.7 46.7 0 010 62.1" stroke="#84ccd8" stroke-linecap="square" stroke-width="1.5" fill="none"/><path d="M109.12 66.4a46.7 46.7 0 01-13.64-2.13 44.74 44.74 0 00-27.28 0 46.64 46.64 0 01-13.64 2.13 46.7 46.7 0 01-13.64-2.13 46.7 46.7 0 00-13.64-2.13 46.7 46.7 0 00-13.64 2.13A46.7 46.7 0 010 66.4m109.12-21.5a46.7 46.7 0 01-13.64-2.13 44.74 44.74 0 00-27.28 0 46.64 46.64 0 01-13.64 2.13 46.7 46.7 0 01-13.64-2.13 46.36 46.36 0 00-13.64-2.13 46.36 46.36 0 00-13.64 2.13A46.7 46.7 0 010 44.9" stroke="#84ccd8" stroke-linecap="square" stroke-width="1.5" fill="none"/><path d="M109.12 49.2a46.7 46.7 0 01-13.64-2.13 44.74 44.74 0 00-27.28 0 46.64 46.64 0 01-13.64 2.13 46.7 46.7 0 01-13.64-2.13 46.7 46.7 0 00-13.64-2.13 46.7 46.7 0 00-13.64 2.13A46.7 46.7 0 010 49.2" stroke="#84ccd8" stroke-linecap="square" stroke-width="1.5" fill="none"/><path d="M109.12 53.5a46.7 46.7 0 01-13.64-2.13 44.74 44.74 0 00-27.28 0 46.64 46.64 0 01-13.64 2.13 46.7 46.7 0 01-13.64-2.13 46.7 46.7 0 00-13.64-2.13 46.7 46.7 0 00-13.64 2.13A46.7 46.7 0 010 53.5m0 4.3a46.64 46.64 0 01-13.64-2.13 46.7 46.7 0 00-13.64-2.13 46.64 46.64 0 00-13.64 2.13 46.7 46.7 0 01-13.64 2.13 46.64 46.64 0 01-13.64-2.13 46.7 46.7 0 00-13.64-2.13 46.64 46.64 0 00-13.64 2.13 46.77 46.77 0 01-13.64 2.13M0 62.1A46.64 46.64 0 01-13.64 60a46.7 46.7 0 00-13.64-2.13A46.64 46.64 0 00-40.92 60a46.7 46.7 0 01-13.64 2.1A46.64 46.64 0 01-68.2 60a46.7 46.7 0 00-13.64-2.13A46.64 46.64 0 00-95.48 60a46.77 46.77 0 01-13.64 2.13M0 66.4a46.64 46.64 0 01-13.64-2.13 46.7 46.7 0 00-13.64-2.13 46.64 46.64 0 00-13.64 2.13 46.7 46.7 0 01-13.64 2.13 46.64 46.64 0 01-13.64-2.13 46.7 46.7 0 00-13.64-2.13 46.64 46.64 0 00-13.64 2.13 46.77 46.77 0 01-13.64 2.13M0 44.9a46.64 46.64 0 01-13.64-2.13 46.36 46.36 0 00-13.64-2.13 46.3 46.3 0 00-13.64 2.13 46.7 46.7 0 01-13.64 2.13 46.64 46.64 0 01-13.64-2.13 46.36 46.36 0 00-13.64-2.13 46.3 46.3 0 00-13.64 2.13 46.77 46.77 0 01-13.64 2.13M0 49.2a46.64 46.64 0 01-13.64-2.13 46.7 46.7 0 00-13.64-2.13 46.64 46.64 0 00-13.64 2.13 46.7 46.7 0 01-13.64 2.13 46.64 46.64 0 01-13.64-2.13 46.7 46.7 0 00-13.64-2.13 46.64 46.64 0 00-13.64 2.13 46.77 46.77 0 01-13.64 2.13M0 53.5a46.64 46.64 0 01-13.64-2.13 46.7 46.7 0 00-13.64-2.13 46.64 46.64 0 00-13.64 2.13 46.7 46.7 0 01-13.64 2.13 46.64 46.64 0 01-13.64-2.13 46.7 46.7 0 00-13.64-2.13 46.64 46.64 0 00-13.64 2.13 46.77 46.77 0 01-13.64 2.13M218.25 32a46.71 46.71 0 01-13.64-2.12 44.74 44.74 0 00-27.28 0A46.77 46.77 0 01163.69 32a46.71 46.71 0 01-13.64-2.12 44.74 44.74 0 00-27.28 0A46.85 46.85 0 01109.12 32" stroke="#84ccd8" stroke-linecap="square" stroke-width="1.5" fill="none"/><path d="M218.25 36.29a46.71 46.71 0 01-13.64-2.12 44.74 44.74 0 00-27.28 0 46.77 46.77 0 01-13.64 2.12 46.71 46.71 0 01-13.64-2.12 44.74 44.74 0 00-27.28 0 46.85 46.85 0 01-13.65 2.12" stroke="#84ccd8" stroke-linecap="square" stroke-width="1.5" fill="none"/><path d="M218.25 40.6a46.64 46.64 0 01-13.64-2.13 44.74 44.74 0 00-27.28 0 46.7 46.7 0 01-13.64 2.13 46.64 46.64 0 01-13.64-2.13 44.74 44.74 0 00-27.28 0 46.79 46.79 0 01-13.65 2.13m109.13-21.51A46.3 46.3 0 01204.61 17a44.94 44.94 0 00-27.28 0 46.36 46.36 0 01-13.64 2.13A46.3 46.3 0 01150.05 17a44.94 44.94 0 00-27.28 0 46.44 46.44 0 01-13.65 2.13" stroke="#84ccd8" stroke-linecap="square" stroke-width="1.5" fill="none"/><path d="M218.25 23.39a46.3 46.3 0 01-13.64-2.13 44.94 44.94 0 00-27.28 0 46.36 46.36 0 01-13.64 2.13 46.3 46.3 0 01-13.64-2.13 44.94 44.94 0 00-27.28 0 46.44 46.44 0 01-13.65 2.13" stroke="#84ccd8" stroke-linecap="square" stroke-width="1.5" fill="none"/><path d="M218.25 27.69a46.71 46.71 0 01-13.64-2.12 44.74 44.74 0 00-27.28 0 46.77 46.77 0 01-13.64 2.12 46.71 46.71 0 01-13.64-2.12 44.74 44.74 0 00-27.28 0 46.85 46.85 0 01-13.65 2.12" stroke="#84ccd8" stroke-linecap="square" stroke-width="1.5" fill="none"/><path fill="#24b7c7" d="M0 12.9h109.13v25.8H0z"/><path d="M109.12 32a46.77 46.77 0 01-13.64-2.12 44.74 44.74 0 00-27.28 0A46.71 46.71 0 0154.56 32a46.77 46.77 0 01-13.64-2.12 46.36 46.36 0 00-13.64-2.13 46.36 46.36 0 00-13.64 2.13A46.77 46.77 0 010 32" stroke="#84ccd8" stroke-linecap="square" stroke-width="1.5" fill="none"/><path d="M109.12 36.29a46.77 46.77 0 01-13.64-2.12 44.74 44.74 0 00-27.28 0 46.71 46.71 0 01-13.64 2.12 46.77 46.77 0 01-13.64-2.12A46.36 46.36 0 0027.28 32a46.36 46.36 0 00-13.64 2.13A46.77 46.77 0 010 36.29" stroke="#84ccd8" stroke-linecap="square" stroke-width="1.5" fill="none"/><path d="M109.12 40.6a46.7 46.7 0 01-13.64-2.13 44.74 44.74 0 00-27.28 0 46.64 46.64 0 01-13.64 2.13 46.7 46.7 0 01-13.64-2.13 46.36 46.36 0 00-13.64-2.13 46.36 46.36 0 00-13.64 2.13A46.7 46.7 0 010 40.6m109.12-21.51A46.36 46.36 0 0195.48 17a44.94 44.94 0 00-27.28 0 46.3 46.3 0 01-13.64 2.13A46.36 46.36 0 0140.92 17a46.77 46.77 0 00-13.64-2.12A46.77 46.77 0 0013.64 17 46.36 46.36 0 010 19.09" stroke="#84ccd8" stroke-linecap="square" stroke-width="1.5" fill="none"/><path d="M109.12 23.39a46.36 46.36 0 01-13.64-2.13 44.94 44.94 0 00-27.28 0 46.3 46.3 0 01-13.64 2.13 46.36 46.36 0 01-13.64-2.13 46.77 46.77 0 00-13.64-2.12 46.77 46.77 0 00-13.64 2.12A46.36 46.36 0 010 23.39" stroke="#84ccd8" stroke-linecap="square" stroke-width="1.5" fill="none"/><path d="M109.12 27.69a46.77 46.77 0 01-13.64-2.12 44.74 44.74 0 00-27.28 0 46.71 46.71 0 01-13.64 2.12 46.77 46.77 0 01-13.64-2.12 46.36 46.36 0 00-13.64-2.13 46.36 46.36 0 00-13.64 2.13A46.77 46.77 0 010 27.69M0 32a46.71 46.71 0 01-13.64-2.12 46.36 46.36 0 00-13.64-2.13 46.3 46.3 0 00-13.64 2.13A46.77 46.77 0 01-54.56 32a46.71 46.71 0 01-13.64-2.13 46.36 46.36 0 00-13.64-2.13 46.3 46.3 0 00-13.64 2.13A46.83 46.83 0 01-109.12 32M0 36.29a46.71 46.71 0 01-13.64-2.12A46.36 46.36 0 00-27.28 32a46.3 46.3 0 00-13.64 2.13 46.77 46.77 0 01-13.64 2.12 46.71 46.71 0 01-13.64-2.08A46.36 46.36 0 00-81.84 32a46.3 46.3 0 00-13.64 2.13 46.83 46.83 0 01-13.64 2.12M0 40.6a46.64 46.64 0 01-13.64-2.13 46.36 46.36 0 00-13.64-2.13 46.3 46.3 0 00-13.64 2.13 46.7 46.7 0 01-13.64 2.13 46.64 46.64 0 01-13.64-2.13 46.36 46.36 0 00-13.64-2.13 46.3 46.3 0 00-13.64 2.13 46.77 46.77 0 01-13.64 2.13M0 19.09A46.3 46.3 0 01-13.64 17a46.77 46.77 0 00-13.64-2.12A46.71 46.71 0 00-40.92 17a46.36 46.36 0 01-13.64 2.13A46.3 46.3 0 01-68.2 17a46.77 46.77 0 00-13.64-2.12A46.71 46.71 0 00-95.48 17a46.43 46.43 0 01-13.64 2.13M0 23.39a46.3 46.3 0 01-13.64-2.13 46.77 46.77 0 00-13.64-2.12 46.71 46.71 0 00-13.64 2.12 46.36 46.36 0 01-13.64 2.13 46.3 46.3 0 01-13.64-2.13 46.77 46.77 0 00-13.64-2.12 46.71 46.71 0 00-13.64 2.12 46.43 46.43 0 01-13.64 2.13M0 27.69a46.71 46.71 0 01-13.64-2.12 46.36 46.36 0 00-13.64-2.13 46.3 46.3 0 00-13.64 2.13 46.77 46.77 0 01-13.64 2.12 46.71 46.71 0 01-13.64-2.12 46.36 46.36 0 00-13.64-2.13 46.3 46.3 0 00-13.64 2.13 46.83 46.83 0 01-13.64 2.12m327.37-21.5a46.64 46.64 0 01-13.64-2.13 44.74 44.74 0 00-27.28 0 46.36 46.36 0 01-13.64 2.13 46.64 46.64 0 01-13.64-2.13 44.74 44.74 0 00-27.28 0 46.79 46.79 0 01-13.65 2.13" stroke="#84ccd8" stroke-linecap="square" stroke-width="1.5" fill="none"/><path d="M218.25 10.49a46.3 46.3 0 01-13.64-2.13 44.94 44.94 0 00-27.28 0 46.36 46.36 0 01-13.64 2.13 46.3 46.3 0 01-13.64-2.13 44.94 44.94 0 00-27.28 0 46.44 46.44 0 01-13.65 2.13" stroke="#84ccd8" stroke-linecap="square" stroke-width="1.5" fill="none"/><path d="M218.25 14.79a46.3 46.3 0 01-13.64-2.13 44.94 44.94 0 00-27.28 0 46.36 46.36 0 01-13.64 2.13 46.3 46.3 0 01-13.64-2.13 44.94 44.94 0 00-27.28 0 46.44 46.44 0 01-13.65 2.13m109.13-12.9a46.64 46.64 0 01-13.64-2.13 44.74 44.74 0 00-27.28 0 46.7 46.7 0 01-13.64 2.13 46.64 46.64 0 01-13.64-2.13 44.74 44.74 0 00-27.28 0 46.79 46.79 0 01-13.65 2.13" stroke="#84ccd8" stroke-linecap="square" stroke-width="1.5" fill="none"/><path fill="#24b7c7" d="M0-12.9h109.13v25.8H0z"/><path d="M109.12 6.19a46.7 46.7 0 01-13.64-2.13 44.74 44.74 0 00-27.28 0 46.3 46.3 0 01-13.64 2.13 46.7 46.7 0 01-13.64-2.13 46.7 46.7 0 00-13.64-2.13 46.7 46.7 0 00-13.64 2.13A46.7 46.7 0 010 6.19" stroke="#84ccd8" stroke-linecap="square" stroke-width="1.5" fill="none"/><path d="M109.12 10.49a46.36 46.36 0 01-13.64-2.13 44.94 44.94 0 00-27.28 0 46.3 46.3 0 01-13.64 2.13 46.36 46.36 0 01-13.64-2.13 46.77 46.77 0 00-13.64-2.12 46.77 46.77 0 00-13.64 2.12A46.36 46.36 0 010 10.49" stroke="#84ccd8" stroke-linecap="square" stroke-width="1.5" fill="none"/><path d="M109.12 14.79a46.36 46.36 0 01-13.64-2.13 44.94 44.94 0 00-27.28 0 46.3 46.3 0 01-13.64 2.13 46.36 46.36 0 01-13.64-2.13 46.77 46.77 0 00-13.64-2.12 46.77 46.77 0 00-13.64 2.12A46.36 46.36 0 010 14.79m109.12-12.9A46.7 46.7 0 0195.48-.24a44.74 44.74 0 00-27.28 0 46.64 46.64 0 01-13.64 2.13A46.7 46.7 0 0140.92-.24a46.7 46.7 0 00-13.64-2.13A46.7 46.7 0 0013.64-.24 46.7 46.7 0 010 1.89m0 4.3a46.64 46.64 0 01-13.64-2.13 46.7 46.7 0 00-13.64-2.13 46.64 46.64 0 00-13.64 2.13 46.36 46.36 0 01-13.64 2.13A46.64 46.64 0 01-68.2 4.06a46.7 46.7 0 00-13.64-2.13 46.64 46.64 0 00-13.64 2.13 46.77 46.77 0 01-13.64 2.13M0 10.49a46.3 46.3 0 01-13.64-2.13 46.77 46.77 0 00-13.64-2.12 46.71 46.71 0 00-13.64 2.12 46.36 46.36 0 01-13.64 2.13A46.3 46.3 0 01-68.2 8.36a46.77 46.77 0 00-13.64-2.12 46.71 46.71 0 00-13.64 2.12 46.43 46.43 0 01-13.64 2.13M0 14.79a46.3 46.3 0 01-13.64-2.13 46.77 46.77 0 00-13.64-2.12 46.71 46.71 0 00-13.64 2.12 46.36 46.36 0 01-13.64 2.13 46.3 46.3 0 01-13.64-2.13 46.77 46.77 0 00-13.64-2.12 46.71 46.71 0 00-13.64 2.12 46.43 46.43 0 01-13.64 2.13M0 1.89A46.64 46.64 0 01-13.64-.24a46.7 46.7 0 00-13.64-2.13A46.64 46.64 0 00-40.92-.24a46.7 46.7 0 01-13.64 2.13A46.64 46.64 0 01-68.2-.24a46.7 46.7 0 00-13.64-2.13A46.64 46.64 0 00-95.48-.24a46.77 46.77 0 01-13.64 2.13" stroke="#84ccd8" stroke-linecap="square" stroke-width="1.5" fill="none"/></pattern></defs><g data-name="Calque 2"><g data-name="Calque 1"><path d="M44.64 13.46C42.29 15 32.21 20.63 24.5 29c-11 11.94-11 15.76-16.31 26.92a86.29 86.29 0 00-8 30.46 89.3 89.3 0 003.68 32.07c4.57 16.3 11.94 27.34 19.16 38 9.15 13.47 11.28 12.9 24.84 31.28 14.38 19.51 32.47 36.53 81.65 30.36 26.06-3.27 48.39-6.07 76.23-18.59 19.11-8.58 35.87-16.35 50.27-34.41 5.73-7.2 16.29-20.8 18.62-41.2 2.3-20.09-4.69-35.43-8.24-43.23-3.31-7.28-10.3-22.14-26.51-33.89C234.82 43 225.42 36.21 211.83 34c-13.21-2.15-16.68 2.27-29.72-1.08-4.79-1.23-10.8-4.38-22.62-10.62-15.83-8.34-15.18-8.81-21.44-11.8-6.67-3.19-25.68-12-49.48-10.28-9.72.71-36.91 8.71-43.93 13.24z" fill="#06df86" opacity=".7"/><path d="M98.7 71.45c-.59 1.77.72 12.11 3.72 15.11 2.44 2.44 5.82 3.39 7 5s.16 3.87 0 5c-.59 4.18-10.72 4-11 6-.41 2.94 14.73 16.11 16 17 3.26 2.29 10.17-.56 14-2 .8-.3 8.36-11.2 9-14 .2-.89-8.39-4.17-9-6-.38-1.12-1.54-3.43 0-5 2.57-2.61 8.75-4.59 10-6 2.27-2.57 2.49-10.38 3-14 .62-4.43-.74-24.84-1-25-1.34-.83-16-4-22-4-13.07 0-17-.76-20 5-.82 1.56.43 22.44.28 22.89z" fill="#fac38e"/><path d="M156.42 105.56c6.7 5 3.93 56 4 82v26l-5 1c-14.92 3-44.37 8.7-62 4-15-4-12-4-12-4s.16-16.08 0-27c-.33-22.77-2.71-51.95-2.34-60.78.36-8.42-2.78-19.08 5.34-23.22 3.91-2 20-4 20-4 .26 0 4 19 14 19s12.45-19 13-19c0 0 17 0 25 6z" fill="url(#spinner-solid-a)"/><path d="M129.59 81.18c0 .09-.08.22-.14.29a7.27 7.27 0 00-.74 1.3 12.28 12.28 0 01-5.06 4.65c-4.39 1.77-8.66-1-8.88-1.19a10.34 10.34 0 01-3.84-5l1.62.07c4.19.14 14.33.21 16.23-.12.14-.06.74-.18.81 0z" fill="#fff"/><path d="M65.42 153.56c-2.37-1.5-3.41-31.78 6-44 4-5.15 13-6 13-6s0 33.55-1 42c-.75 6.63-15.24 9.76-18 8zm108-8c2.34-1.55 3.81-20.41-5-33-3.4-4.85-16-9-16-9s2.54 36.05 3 45c.3 5.92 15.27-1.19 18-3z" fill="#86ccd7"/><path d="M88.67 97.76l43.7-3.76.38 6c.17 2.54 5.86 42.93 7 55.42a3.53 3.53 0 01-3.23 3.85l-40 3.46a3.17 3.17 0 01-3.44-3.09l-6.43-59.51a2.24 2.24 0 012.02-2.37z" fill="#b3b3b3"/><path d="M90.73 98.63l44.7-3.8a30 30 0 00-.61 6c.16 2.54 5.82 43 7 55.51a3.55 3.55 0 01-3.23 3.85l-40 3.45a3.16 3.16 0 01-3.44-3.08L88.73 101a2.24 2.24 0 012-2.37z" fill="#e6e6e6"/><path d="M128.11 97.37l-46.69 3.93s3.36 3.37 3.6 5.66c.26 2.53 5.55 40.91 5.45 53.45A3.53 3.53 0 0094 164l40.15.11a3.16 3.16 0 003.17-3.36l-6.84-61.34a2.25 2.25 0 00-2.37-2.04z" fill="#f2f2f2"/><path stroke="#1d1d1b" stroke-linecap="round" stroke-miterlimit="10" fill="#b3b3b3" d="M96.46 104.68l30.57-2.54m-28.7 7.18l29.42-2.45m-26.33 7.12l26.75-2.23m-29.55 6.79l30.57-2.55m-28.7 7.19l29.42-2.45m-26.33 7.12l26.75-2.23m-30.55 6.87l30.57-2.54m-28.69 7.18l29.42-2.45m-26.34 7.12l26.75-2.23m-29.47 7.79l30.57-2.55M103.9 152l29.42-2.45m-26.34 7.13l26.75-2.23"/><path d="M100.05 140.4c-1.54.91-2.66 1-1.58 6 .39 1.85 1.82 6.71 1 10s-8 7.66-13.1 11c-.31.21-3.92-4.91-3.92-4.91a65.2 65.2 0 010-8c.32-4.28 1.21-8.32 1-8-2.63 3.94-16 8-18 7-.29-.14 3.47 29 7 30 5.09 1.41 6.85 3.95 14.34-1.53s13.74-12.47 17.13-15.72c2.09-2 4.59-2.52 6.61-4.58 4.08-4.13 5.61-3.54 8.37-8 2.58-4.16-4.13-14.56-9.33-11.47-1.46.87-5.25 6.64-6.52 4.73-1.05-1.47-1.57-7.36-3-6.52zm55.37 29.16a59.71 59.71 0 01-11.24-12.09c-2.38-3.4-2.75-8.31-3.59-9.41-4.17-5.35-4.26-5.07-6.41-6.29-5.72-3.25-5.42-5.09-11.8-3.39-.84.23-.52 2.38.44 2.45a24.64 24.64 0 014.93.94c4.38 1.33 6.54 8.46 6 8.81a1.81 1.81 0 01-2.46-.48c-1.94-2.46-5.69-6.85-6.45-6.34-1.46 1-.78 2 .53 3.93a56.07 56.07 0 014 5.87c2.36 4.4 2.71 3.63 7.1 9 .13.16 4 9.95 10 16 8 8 18 14 21 12 5.33-3.55 7.7-46.14 6-45-3 2-16 5-16 5s.17 7.62 0 12c-.25 5.07 3.26 11.07-2.05 7z" fill="#fac38e"/><path d="M143.51 38.83a2.68 2.68 0 011 1.47 5 5 0 01.32 2.87 1.11 1.11 0 00.72 1.18c.37.18.77.27 1.14.46a4.26 4.26 0 01.77 7c-.36.31-.91.44-1 1a.11.11 0 01-.13 0 .45.45 0 01.1-.67c.41-.33.79-.7 1.21-1a2.88 2.88 0 00.93-1.92 3.73 3.73 0 00-1.19-3.55 3.6 3.6 0 00-1.4-.82 2.67 2.67 0 01-1.46-1 1.73 1.73 0 010-.68 5 5 0 00-.19-2.32.81.81 0 00-.29-.39c-.2-.41-.45-.8-.63-1.22a.86.86 0 01.1-.41z" fill="#855445"/><path d="M146.34 52.83h.11a2.52 2.52 0 01-.61 1.26.39.39 0 000 .58 2.88 2.88 0 01.16 3.8 1.51 1.51 0 01-.59.5l-.1-.1c-.07-.12 0-.19.1-.26a3 3 0 00.88-2 2.44 2.44 0 00-.51-1.52c-.11-.16-.22-.33-.34-.48a.43.43 0 010-.47 12.81 12.81 0 01.74-1.3.15.15 0 01.16-.01zm-6.76-18.77c.15.16.16.38.26.57A2 2 0 01140 36a1.08 1.08 0 000 .4c.32.15.72.13.93.49a.38.38 0 01-.11.11c-.41.17-.68-.13-1-.28a8 8 0 01-.3-1.69c-.07-.38-.05-.78-.4-1.07a4 4 0 00-.38-.24 2.34 2.34 0 00-1-.55.93.93 0 01-.83-1 2.87 2.87 0 000-.41.67.67 0 01.22-.51.14.14 0 01.15 0c.05.32.15.62.17.93s.21.52.56.59a2.38 2.38 0 011.57 1.29z" fill="#855445"/><path d="M139.58 34.06a3.19 3.19 0 00-1.85-1.23.5.5 0 01-.41-.43 5.68 5.68 0 01-.12-1.09 2.76 2.76 0 01.26.92.56.56 0 00.54.56 2.51 2.51 0 011.43.9.49.49 0 01.15.37zm3.93 4.77c0 .12.14.22.1.36s-.29 0-.41-.07c-.42-.39-.81-.81-1.26-1.16a.3.3 0 01-.14-.35.14.14 0 01.18-.08 5.46 5.46 0 011.53 1.3zm-6.31-7.52h-.1a.63.63 0 01-.42-.43 4.36 4.36 0 00-.84-1.52c-.1-.11-.15-.23 0-.35h.08a6.14 6.14 0 011.16 1.85 1 1 0 01.12.45zm2.8 5.13a.25.25 0 01-.08-.25 3.73 3.73 0 000-1.56 1.83 1.83 0 01.08 1.81zm.88.45l-.93-.45a3 3 0 011.74.83c-.42.15-.6.06-.81-.38z" fill="#855445"/><path d="M140.88 36.89l.81.38a.44.44 0 01.29.26l-.11.12a1.06 1.06 0 01-1.12-.74zm3.2 24.93a9.51 9.51 0 01.26-1.29 2.07 2.07 0 01-.26 1.29zM125 25.66l.11-.1a3.86 3.86 0 011.38.36c.31.09.61.24.91.36a2 2 0 001.68.26 6.83 6.83 0 012.91.28 1.86 1.86 0 01.92.27 8 8 0 011.92 1 5.55 5.55 0 011 .92c.24.52.69.92.9 1.47.1.28.24.55.36.83v.54c-.37 0-.4-.29-.47-.51a6 6 0 00-2.9-3.34 10.21 10.21 0 00-3.62-1 3.86 3.86 0 00-1.26.12 2 2 0 01-1.4-.23 6.43 6.43 0 00-2-.77c-.22-.06-.5-.12-.44-.46z" fill="#855445"/><path d="M132 26.82c-.38.08-.71-.13-1.08-.15a10.23 10.23 0 00-2.28 0 1.26 1.26 0 01-1.23-.41c.35 0 .58.32.92.27a12.05 12.05 0 012.94 0c.2.15.53.04.73.29z" fill="#855445"/><path d="M131.25 26.54h-2.94a5.86 5.86 0 012.94 0zm3.57 1.56c-.33 0-.51-.26-.75-.4a5.92 5.92 0 01-1.17-.61 3.37 3.37 0 011.92 1.01zM131 50.18a.6.6 0 00-.09-.37c-.18.06-.31.25-.53.22a.31.31 0 01-.24-.49.83.83 0 01.6-.17 2.33 2.33 0 001.82-.9l.35-.37a1.08 1.08 0 011.24-.3 11 11 0 003.31.62 1.93 1.93 0 011.42.82.82.82 0 010 .83 4.09 4.09 0 00.65 4 4.24 4.24 0 001.34 1c.68.41.72.45.58 1.21a2.18 2.18 0 00.22 1.38 2.56 2.56 0 01.22 1.56 54.11 54.11 0 00-.26 7.53c0 .27.07.56-.16.78a.12.12 0 01-.15 0V67a1 1 0 010-.49V61.8a1 1 0 010-.49 8 8 0 01.15-2.13 1.44 1.44 0 00-.12-1.07 3.39 3.39 0 01-.28-2.08.41.41 0 00-.29-.49 3.85 3.85 0 01-2.39-2.93 2.6 2.6 0 00-1.19-1.26 8.18 8.18 0 00-2.69-1.3 3.76 3.76 0 00-2.41.12c-.3.14-.66.05-1 .2-.03-.02-.1-.12-.1-.19zm-32-8.65v-1.27a.42.42 0 01.21-.24 6 6 0 001.46-.19c.19-.06.13-.29.25-.39a.2.2 0 01.13 0c.23.05.31.24.39.42s0 .57-.37.66a5.07 5.07 0 01-.87 0c-.47 0-.65.18-.65.57s.18.6.66.62h.78a.51.51 0 01.55.54v1.14a14.23 14.23 0 00.12 2 2.39 2.39 0 002.25 2.09 4.71 4.71 0 00.92 0c.43 0 .55-.18.52-.62 0-.28-.12-.57.13-.81a.2.2 0 01.15 0 2.59 2.59 0 01.45 1.4" fill="#855445"/><path d="M104.26 49.05a13.3 13.3 0 00-1.26 1.13.63.63 0 01-.72.19h-.55v-.06a2.8 2.8 0 01.72-.86 9.75 9.75 0 01.91-.74 7.74 7.74 0 01.83-.52c.14-.06-.05-.06-.06-.1a3.11 3.11 0 01-2.27-.85 2.22 2.22 0 01-.79-1.62 1.15 1.15 0 00-.07-.36c-.11-.24.05-.46.07-.69v-1.46a.57.57 0 00-.21-.53l-.09-.1a.57.57 0 01-.13-.08M128 51c.06-.09.19-.09.28-.2a.73.73 0 00-.87 0c-.19.13-.35.18-.52 0s-.09-.34 0-.41c.41-.24.4-.78.78-1a.19.19 0 01.13 0 5.17 5.17 0 001.92 0c.19 0 .41 0 .44.29v.1a.25.25 0 01-.1.08.41.41 0 01-.19 0 .5.5 0 00-.34.1c.1 0 .18-.08.26 0a1.65 1.65 0 00.15.84c.13.2 0 .33-.19.38m1.25-1a2.51 2.51 0 001.26-.29.39.39 0 01.21-.06 6.06 6.06 0 014.39 1.17c.28.21.58.4.87.59a1.54 1.54 0 01.66 1A7.39 7.39 0 00133.9 50a2.5 2.5 0 00-1.69.19c-.31.16-.68.07-1 .26s-.21-.12-.21-.27zm10.32 17.31h.1c.29 0 .33.28.37.5a2.65 2.65 0 01.07.63c0 .89.27 1.75.29 2.64-.05.18 0 .4-.19.54l-.18-.64a21.67 21.67 0 01-.46-3.67zm0-6.23V67a.92.92 0 01-.09-.49v-4.76a.92.92 0 01.09-.49zm-20.71-10.08c-.12-.38.07-.74.58-.94a1.37 1.37 0 011.26.06.18.18 0 010 .16c-.36.13-.75-.05-1.12.1l-.46.44" fill="#855445"/><path d="M101.75 50.46a3.1 3.1 0 00-1.1.9l.1-.35c0-.43.31-.76.82-.78a.31.31 0 01.19.13z" fill="#855445"/><path d="M101 42.13a.88.88 0 01.09.53v1.86a1.38 1.38 0 00.18.74c-.2 1.61 1.46 2.71 2.93 2.65.15.19 0 .24-.14.32a10.79 10.79 0 00-1.8 1.34c-.26.24-.4.6-.72.8s-1.33 3.26-1.53 3.57c-.36.27-3.1-.55-3.51-.54s.31-4.41.25-4.72a15.78 15.78 0 013 .91 9.7 9.7 0 01-1.32 0 1.76 1.76 0 00-1.82 1.8 1.79 1.79 0 001.19 1.94 1.61 1.61 0 001.45 0c.42-.26.63.1.91.2s.1.37.06.57a13.4 13.4 0 00-.16 3.46 3.52 3.52 0 00.51 1.22 3.1 3.1 0 01-.46 2.14.94.94 0 00-.08.58c0 1-.06 2.08 0 3.11a30.58 30.58 0 01-.35 4.78 7.76 7.76 0 01-.57 2.61 6.18 6.18 0 01-.36-1c-.2-1.53-.54-3-.68-4.56a20.41 20.41 0 01-.26-3.67 2.53 2.53 0 000-.55c0-.19-.12-.32-.34-.19h-.09c-.29-.3-.74-.34-1-.63a2.83 2.83 0 01-.88-2.75c.27-.46.23-.53-.13-.88a2.64 2.64 0 01-.88-2.52l.11-.35a2.91 2.91 0 011.11-1.45.51.51 0 000-.85c-.15-.14-.34-.21-.49-.34-.53-.52-.17-.95.15-1.38 0-.26 0-.41-.34-.39a3.38 3.38 0 01-.45 0c-.23 0-.62-3 .11-2.87 1.73.35-2.3-3.2-1.24-4.58s6.32-.1 4.42-1.15a7.58 7.58 0 00-1.11-.54c-.33-.11-.28-.26-.09-.45s.29-.22.41-.36a.65.65 0 00.21-.28 5.35 5.35 0 00.72-.62 2 2 0 011-.45h1a1 1 0 01.87.4c.1.18.22.35.09.56-.58.12-1.17 0-1.75.08l-.18.09a6.19 6.19 0 000 1.36M142 71.8v-.55c.33-.24.31-.62.37-1 .17-1 .37-2 .51-3.08s.23-2.11.38-3.16c.08-.63.17-1.26.19-1.9 0-.24.05-.53.39-.58.29.2 0 .4 0 .61v.07a.69.69 0 00-.1.56v.64a4.58 4.58 0 01-.19 1.56 25.15 25.15 0 01-.47 3.36c-.11.7-.28 1.4-.34 2.1a10.43 10.43 0 00-.23 1.34c0 .19-.12.3-.34.26zm4.34-18.97a6.13 6.13 0 01-.66 1.24.45.45 0 000 .68 2.68 2.68 0 01.66 2.62 2.94 2.94 0 01-1 1.51l-.27.11c-.09-.08-.06-.18-.06-.28s.18-.24.28-.35a2.36 2.36 0 00.14-3.31c-.47-.6-.49-.61-.09-1.23a6.09 6.09 0 00.6-1.23 1.74 1.74 0 01.81-.94 2.46 2.46 0 00.55-.41c.13-.12.27-.21.44-.07a.11.11 0 010 .13 3 3 0 01-.92.78c-.28.18-.52.38-.48.75z" fill="#855445"/><path d="M143.81 62.19c-.08-.2.1-.37.05-.56-.27-.22-.19-.53-.19-.8a8.78 8.78 0 01.31-1.42.29.29 0 01.24-.24.23.23 0 01.23.09.91.91 0 00-.2.54c-.09.69-.2 1.38-.3 2.07a.37.37 0 01-.14.32z" fill="#855445"/><path d="M144.45 59.26h-.2c0-.44.4-.64.9-.48l-.07.22z" fill="#855445"/><path d="M114.08 49.67a.86.86 0 00-1.07-.43 9.44 9.44 0 01-3.18.06 11.78 11.78 0 01-1.42-.26 2.41 2.41 0 01-1.24-.89.9.9 0 00-.81-.41.53.53 0 01-.48-.22c-.06-.5-1.41 1.25-1.38.74a.62.62 0 00-.5-.26h-.79c-.54 0-3.09-.3-3.11-.85V44.6c0-.33.19-.46.5-.46s-.34 0 0 0-.38-.3-.37-.81a.84.84 0 00-.72-.9h1.2c-.18 0-.38 0-.5-.15 0 .61-2.23.13-2.21-1.46 0-.31 3.23-1.65 2.86-1.65s-.29-.16-.31-.37c-.09-1 2.56-3 3.49-3.47.19-.08.23-.24.24-.44a3 3 0 010-.85 2.64 2.64 0 01.27-.82 5.38 5.38 0 011-.83c.08-.17.23-.17.37-.17a4 4 0 011.57 0 3.09 3.09 0 011.2.89c.1.11.18.33.39.24a.44.44 0 00.2-.48 4.39 4.39 0 01.37-1.72 5.64 5.64 0 012.41-2.9 8.12 8.12 0 016.11-1.19 1 1 0 00.74-.16 8.76 8.76 0 015.49-1.27h.55c.42.35 1 .22 1.46.48a12 12 0 011.15.54 1.42 1.42 0 001.13.2 7.93 7.93 0 014.81.78 6.87 6.87 0 012.86 2.53 17.42 17.42 0 01.71 1.67v.63c0 .21.13.41.34.42a3.56 3.56 0 011.34.61c.1.23.32.36.47.55a3 3 0 01.41 2c0 .19-.12.44.15.57s.55.3.88.29c.33.31.81.4 1.12.74.65.43 1.13 1.06 1.74 1.54a4.5 4.5 0 01.56 1.09 2.41 2.41 0 01.35 1 5.77 5.77 0 010 2c0 .21-.09.42.07.61a2.93 2.93 0 001.41.91 3.66 3.66 0 012.53 2.81 3.73 3.73 0 01-.84 3.56 7.15 7.15 0 01-1.11.86 1.24 1.24 0 00-.52.83 3.51 3.51 0 01-.6 1.17.55.55 0 00.06.83 2.57 2.57 0 01-.4 3.91c-.27.21-.68.17-.9.48a25.2 25.2 0 00-.63 3 19.8 19.8 0 01-.33 3.26c-.06.8-.19 1.62-.33 2.43s-.31 1.48-.36 2.24a6.6 6.6 0 00-.27 1.53c-.24-.13-.19-.39-.37-.46a28.61 28.61 0 01-.38-3.19 4 4 0 00-.16-.57v-4.25a24.43 24.43 0 01.25-3.92 2.52 2.52 0 00-.19-1.57 2.18 2.18 0 01-.19-1.77c.11-.3-.05-.48-.31-.62a5.78 5.78 0 01-1.23-.77 4.16 4.16 0 01-1.3-3.6 2.4 2.4 0 01.26-1.1.45.45 0 00-.07-.59 1.88 1.88 0 00-1.26-.67 9.5 9.5 0 01-3.3-.6.91.91 0 00-1.12.33 5.09 5.09 0 01-1.24 1.07c-.5.31-1 .1-1.55.21-.41 0-.82-.22-1.21.13-.18.16-.4 0-.6-.09-.61-.18-.61-.19-.77.4a.43.43 0 01-.31.3.43.43 0 00-.32.45v.07c-.21.14-.35.21-.57 0a1.56 1.56 0 00-2-.29 1.12 1.12 0 00-.38.34h-.15c-.16-.54-.59-.43-1-.36-.19 0-.32 0-.43-.13-.52 0-1.06-.13-1.51.29a.82.82 0 00-.33.52" fill="#855445"/><path d="M120.26 51c-.06-.32-.31-.4-.57-.41s-.67 0-1-.07m29.03.65a9.45 9.45 0 00.59-1.08 4 4 0 00-2.38-5.25 2.29 2.29 0 01-1.33-.84.11.11 0 010-.08.07.07 0 01.07 0c.59.77 1.6.82 2.35 1.32a4.13 4.13 0 01.75 6.13zm-3.29-9.96c0-.33-.31-.58-.26-.93.5.43.45 1.06.55 1.62a11.57 11.57 0 01-.08 2c-.28-.19-.14-.48-.11-.69a4.67 4.67 0 00-.1-2zm-49 17.4a3.24 3.24 0 00.48 2.16 2.34 2.34 0 001.1.89.49.49 0 01.35.33 2.7 2.7 0 01-1.93-3.38zm-1.01-3.4a3.07 3.07 0 001.09 2.62c.3.24.25.5-.08.78a.72.72 0 00-.3-.94 3.66 3.66 0 01-.77-1.17 2.57 2.57 0 01.06-1.29zm45.45-18.59c-.23-.09-.22-.28-.2-.46a2.79 2.79 0 00-.76-2.43s0-.14-.07-.21a2.17 2.17 0 01.94 1.72c.04.46-.15.93.09 1.38zm-34.28-4.22a.29.29 0 00.06.49c.08 0 .13.14 0 .22a.15.15 0 01-.16 0c-.3-.42-.54-.17-.78.07 0 0-.11 0-.17.06a2.14 2.14 0 01.84-.82zm1.94-.17a4.15 4.15 0 00-1.27.09c-.12 0-.2 0-.3-.09a1.91 1.91 0 011.57 0zm-3.22 1.82v.9c0 .3 0 .36-.28.39a1.09 1.09 0 00.18-.81 1.14 1.14 0 01.1-.48zm-2.75 16.31a5.35 5.35 0 012.06-2 1.24 1.24 0 00.6-.46h.18c.17 0 .47 0 .44.17a.48.48 0 01-.56.4c-.4-.08-.61.07-.67.45 0 .2-.12.27-.3.21s-.33-.09-.41.07c-.24.53-.82.73-1.14 1.17zM98.92 39.2h1.22a1.14 1.14 0 01.79.27v.09a4 4 0 00-2-.27c-.08-.05-.08-.07-.01-.09zm22.43 11.36c.36-.19.74-.07 1.1-.11s.72-.07 1.08 0c.15 0 .29 0 .33.19a.44.44 0 01-.07.43.26.26 0 01-.4 0c.08-.09.27-.13.2-.31a.24.24 0 00-.31-.12c-.67.17-1.28-.23-1.93-.08z" fill="#855445"/><path d="M98.92 39.2a.19.19 0 000 .08 4.56 4.56 0 00-1.54 1.11c0-.36.31-.53.53-.74s.61-.44 1.01-.45zm45.51 2.01a3.55 3.55 0 01.14 1.91 1.21 1.21 0 000 .75V44a.52.52 0 01-.17-.57 7.06 7.06 0 00.03-2.22z" fill="#855445"/></g></g></svg>