<svg data-name="Calque 1" xmlns="http://www.w3.org/2000/svg" viewBox="0 0 50 50"><path d="M28.55 23a.34.34 0 00-.35.35v6.17h.7v-6.17a.36.36 0 00-.35-.35zm-7.39.32a.34.34 0 00-.35-.35.35.35 0 00-.35.35v6.17h.7c.01-2.04.01-4.09 0-6.17z" fill="none"/><path d="M24.69 18.11a2.94 2.94 0 10-3-2.93 2.94 2.94 0 003 2.93zm4.21 11.38v2a1.18 1.18 0 102.35 0v-2z" fill="#06df86"/><path d="M27.81 18.6h-6.66a3.71 3.71 0 00-3 3.86V30h2.35v-6.68a.35.35 0 01.35-.35.34.34 0 01.35.35v22.1a1.59 1.59 0 003.17 0V32.48a.35.35 0 01.35-.35.34.34 0 01.35.35v12.94A1.59 1.59 0 0026.62 47a1.57 1.57 0 001.58-1.58v-22.1a.34.34 0 01.35-.35.36.36 0 01.36.35v6.17h2.35v-7a3.62 3.62 0 00-3.45-3.89z" fill="#191b28"/><path d="M18.12 31.54a1.18 1.18 0 102.35 0v-2h-2.35z" fill="#06df86"/><path d="M24.84 2.21l.89 2.1a.16.16 0 00.14.1l2.28.2a.17.17 0 01.09.3L26.52 6.4a.18.18 0 00-.06.17L27 8.79a.17.17 0 01-.25.19l-2-1.18a.11.11 0 00-.08 0V2.11a.18.18 0 01.17.1z" fill="#191b28"/><path d="M21.22 4.61l2.28-.2a.15.15 0 00.14-.1l.89-2.1a.17.17 0 01.16-.1v5.66a.16.16 0 00-.09 0L22.64 9a.17.17 0 01-.25-.19l.52-2.22a.18.18 0 00-.06-.17l-1.72-1.51a.17.17 0 01.09-.3z" fill="#191b28"/><path d="M35 7.21l-.89 2.1a.15.15 0 01-.14.1l-2.28.2a.17.17 0 00-.09.3l1.72 1.49a.18.18 0 01.06.17l-.52 2.22a.17.17 0 00.25.19l2-1.18a.11.11 0 01.08 0V7.11a.18.18 0 00-.19.1z" fill="#06df86"/><path d="M38.65 9.61l-2.28-.2a.16.16 0 01-.14-.1l-.89-2.1a.16.16 0 00-.16-.1v5.66a.14.14 0 01.09 0l2 1.18a.17.17 0 00.25-.19L37 11.57a.18.18 0 010-.17l1.72-1.49a.17.17 0 00-.07-.3zm-24.31-2.4l.89 2.1a.16.16 0 00.14.1l2.28.2a.17.17 0 01.09.3L16 11.4a.18.18 0 00-.06.17l.52 2.22a.17.17 0 01-.25.19l-2-1.18a.11.11 0 00-.08 0V7.11a.18.18 0 01.21.1z" fill="#06df86"/><path d="M10.72 9.61l2.28-.2a.15.15 0 00.14-.1l.86-2.1a.17.17 0 01.16-.1v5.66h-.09l-2 1.18a.17.17 0 01-.25-.19l.52-2.22a.18.18 0 00-.06-.17l-1.65-1.46a.17.17 0 01.09-.3z" fill="#06df86"/></svg>