<svg data-name="Calque 1" xmlns="http://www.w3.org/2000/svg" viewBox="0 0 50 50"><text transform="translate(-.08 -5.57)" font-size="5" font-family="GalanoGrotesqueAlt-Light" font-weight="300">Ins<tspan x="7.83" y="0" letter-spacing=".01em">t</tspan><tspan x="9.75" y="0">ag</tspan><tspan x="15.73" y="0" letter-spacing="-.01em">r</tspan><tspan x="17.69" y="0" letter-spacing="0">am</tspan></text><path d="M24.85 7A17.85 17.85 0 1042.7 24.86 17.85 17.85 0 0024.85 7z" fill="#06df86"/><path d="M28.28 33.72h-6.87A5.43 5.43 0 0116 28.29v-6.87A5.42 5.42 0 0121.41 16h6.87a5.43 5.43 0 015.43 5.42v6.87a5.44 5.44 0 01-5.43 5.43zm-6.87-16.39a4.09 4.09 0 00-4.09 4.09v6.87a4.1 4.1 0 004.09 4.1h6.87a4.11 4.11 0 004.1-4.1v-6.87a4.1 4.1 0 00-4.1-4.09z" fill="#191b28"/><path d="M24.85 29.34a4.48 4.48 0 114.48-4.48 4.49 4.49 0 01-4.48 4.48zm0-7.6A3.12 3.12 0 1028 24.86a3.13 3.13 0 00-3.15-3.12zM31 19.89a1.17 1.17 0 11-1.16-1.17A1.17 1.17 0 0131 19.89z" fill="#191b28"/></svg>