<svg data-name="Calque 1" xmlns="http://www.w3.org/2000/svg" viewBox="0 0 50 50"><path d="M26 10H16a2 2 0 00-2 2 2 2 0 002 2h10" fill="#06df86"/><path d="M25.06 11.17v2a3.47 3.47 0 003.4 3.46h5.13A3.47 3.47 0 0037 13.19v-2a3.47 3.47 0 00-3.47-3.49h-5a3.47 3.47 0 00-3.47 3.47z" fill="#191b28"/><path fill="none" d="M6.5 30.107l2.824-1.63 5.42 9.388-2.823 1.63zm8.12 1.433l-1.49-2.59v.01l1.49 2.58zm1.88 3.25h15.37c.53 0 1.77-.34 4.17-2.63a41.7 41.7 0 003.05-3.28c.75-.88 2.34-2.86 3.42-4.2l1.08-1.34a1.29 1.29 0 00.35-1 1.46 1.46 0 00-.59-.93 1.65 1.65 0 00-2.4.38c-1.77 2-3.94 4.4-6.45 7a4.61 4.61 0 01-3.68 1.78h-6.31a1.53 1.53 0 110-3.05h6.31a1.64 1.64 0 001.18-.44l.1-.14a1.54 1.54 0 00.36-1 1.63 1.63 0 00-1.63-1.62h-11a6.35 6.35 0 00-4.22 2c-.94 1-1.77 1.87-2.45 2.66l1.48 2.59z"/><path d="M47 22.07a4.47 4.47 0 00-1.77-3 4.7 4.7 0 00-6.57.8c-1.06 1.22-2.27 2.57-3.62 4a4.72 4.72 0 00-4.2-2.59h-11a9.35 9.35 0 00-6.42 2.91c-.68.71-1.3 1.38-1.86 2L13.14 29c.68-.79 1.51-1.68 2.45-2.66a6.35 6.35 0 014.22-2h11a1.63 1.63 0 011.63 1.62 1.54 1.54 0 01-.36 1l-.1.14a1.64 1.64 0 01-1.17.49h-6.3a1.53 1.53 0 100 3.05h6.31a4.61 4.61 0 003.68-1.78c2.51-2.61 4.68-5 6.45-7a1.65 1.65 0 012.4-.38 1.46 1.46 0 01.59.93 1.29 1.29 0 01-.35 1l-1.08 1.34C41.43 26 39.84 28 39.09 28.88A41.7 41.7 0 0136 32.16c-2.4 2.29-3.64 2.63-4.17 2.63H16.5l-1.88-3.25 3.61 6.31h13.64c1.8 0 3.79-1.11 6.28-3.48a45.65 45.65 0 003.27-3.51c.79-.93 2.44-3 3.53-4.35.51-.62.88-1.09 1-1.19A4.33 4.33 0 0047 22.07z" fill="#191b28"/><path d="M13.13 29l-1.61-2.8-.16-.26a1.83 1.83 0 00-2.51-.68l-4.93 2.81a1.89 1.89 0 00-.86 1.12 1.85 1.85 0 00.19 1.4l6.63 11.49a1.84 1.84 0 001.6.92 1.82 1.82 0 00.92-.25l4.92-2.84a1.83 1.83 0 00.86-2.06h.05l-3.61-6.31zm-1.21 10.5L6.5 30.11l2.82-1.63 5.42 9.39z" fill="#06df86"/><circle cx="33" cy="12" r="1.7" fill="#fff"/></svg>