<svg data-name="Calque 1" xmlns="http://www.w3.org/2000/svg" viewBox="0 0 50 50"><path d="M36 9H10a3.55 3.55 0 00-3.55 3.55v19A3.56 3.56 0 0010 35.08h16.93a1.22 1.22 0 000-2.44H10a1.11 1.11 0 01-1.11-1.11V16.82h28.22v4.45a1.22 1.22 0 002.44 0v-8.72A3.56 3.56 0 0036 9z" fill="#191b28"/><path d="M12.07 28a1.22 1.22 0 000 2.44H15A1.22 1.22 0 1015 28zm7.09 2.46h2.9a1.22 1.22 0 100-2.44h-2.9a1.22 1.22 0 100 2.44zM29 28h-2.9a1.22 1.22 0 100 2.44H29A1.22 1.22 0 1029 28z" fill="#191b28"/><path d="M18.77 22.45v-.8a3 3 0 00-2.95-2.94h-2a3 3 0 00-2.95 2.94v.8a3 3 0 002.95 2.95h2a3 3 0 002.95-2.95zm-2.43-.8v.8a.51.51 0 01-.51.51h-2a.51.51 0 01-.51-.51v-.8a.51.51 0 01.51-.51h2a.51.51 0 01.51.51zm27.48 9.85h-.08l-.48-.08v-2a5 5 0 00-5-5h-.15a5 5 0 00-5 5v2l-.48.08h-.08A1.87 1.87 0 0031 33.34v6.24a1.88 1.88 0 001.53 1.84l.56.1a27.44 27.44 0 0010.22 0l.53-.1a1.88 1.88 0 001.54-1.84v-6.24a1.88 1.88 0 00-1.56-1.84zm-8.83-2a3.12 3.12 0 013.12-3.11h.15a3.12 3.12 0 013.1 3.11v1.68a30.92 30.92 0 00-6.38 0z" fill="#06df86"/></svg>