<svg xmlns="http://www.w3.org/2000/svg" viewBox="0 0 50 50"><path d="M11.4 24.9H7.6v.1l3.8-.1zm27.2 0v.1h3.9v-.1h-3.9z" fill="#191b28"/><path d="M25 38.5c-7.5 0-13.5-6-13.6-13.5H7.6c0 9.6 7.8 17.4 17.4 17.4S42.4 34.6 42.4 25h-3.9c0 7.5-6 13.5-13.5 13.5z" fill="#06df86"/><path d="M25 11.4c7.5 0 13.5 6 13.6 13.5h3.9c0-9.6-7.8-17.4-17.4-17.4S7.6 15.3 7.6 24.9h3.9c0-7.5 6-13.5 13.5-13.5z" fill="#191b28"/><path d="M23.9 18.9c-.9-.6-1.7-.2-1.7.9v10.1c0 1.1.8 1.5 1.7.9l7.4-4.8c.9-.6.9-1.6 0-2.2l-7.4-4.9z" fill="#191b28"/></svg>