<svg data-name="Calque 1" xmlns="http://www.w3.org/2000/svg" viewBox="0 0 50 50"><path d="M24.72 6.71a17.85 17.85 0 1017.85 17.85A17.85 17.85 0 0024.72 6.71z" fill="#191b28"/><path d="M24 32.2a1.82 1.82 0 00-1.33.52 1.7 1.7 0 00-.56 1.28 1.73 1.73 0 00.54 1.29 1.82 1.82 0 001.35.51 1.79 1.79 0 001.32-.52 1.75 1.75 0 00.5-1.28 1.72 1.72 0 00-.52-1.27 1.79 1.79 0 00-1.3-.53z" fill="#fff"/><path d="M32 20.87a6.88 6.88 0 00-2.06-5.61 7.63 7.63 0 00-5.45-1.95 7.89 7.89 0 00-5.55 2 7.19 7.19 0 00-2 3.08 1.72 1.72 0 001.32 2.18 1.68 1.68 0 001.91-1.08 4.85 4.85 0 011.18-1.89 4.29 4.29 0 013.16-1.23 4.16 4.16 0 013 1.11 3.78 3.78 0 011.16 2.87 2.84 2.84 0 010 .51H32z" fill="#06df86"/><path d="M28.6 20.88A3.29 3.29 0 0127.46 23a4.21 4.21 0 01-1.91.92 6 6 0 01-1.14.1 2 2 0 00-2 2v2.58A1.59 1.59 0 0024 30.2a1.59 1.59 0 001.59-1.59v-1.92a7.42 7.42 0 004.63-2A5.67 5.67 0 0032 20.88z" fill="#fff"/></svg>