<svg data-name="Calque 1" xmlns="http://www.w3.org/2000/svg" viewBox="0 0 50 50"><path fill="#191b28" d="M0 0h50v50H0z"/><path d="M24.72 6.71a17.85 17.85 0 1017.85 17.85A17.86 17.86 0 0024.72 6.71z" fill="#fff"/><path d="M24 32.2a1.84 1.84 0 00-1.33.52 1.7 1.7 0 00-.56 1.28 1.73 1.73 0 00.54 1.29 1.84 1.84 0 001.35.51 1.79 1.79 0 001.32-.53 1.75 1.75 0 00.5-1.27 1.72 1.72 0 00-.52-1.26 1.79 1.79 0 00-1.3-.54z" fill="#191b28"/><path d="M32 20.87a6.84 6.84 0 00-2.06-5.61 7.62 7.62 0 00-5.45-2 7.89 7.89 0 00-5.55 2 7.14 7.14 0 00-2 3.08 1.71 1.71 0 001.32 2.18 1.68 1.68 0 001.92-1.07 4.8 4.8 0 011.17-1.9 4.32 4.32 0 013.16-1.23 4.18 4.18 0 013 1.11 3.79 3.79 0 011.16 2.87 3.89 3.89 0 010 .51H32z" fill="#06df86"/><path d="M28.6 20.88A3.28 3.28 0 0127.46 23a4.14 4.14 0 01-1.92.92 5.7 5.7 0 01-1.13.11 2 2 0 00-2 2v2.58A1.59 1.59 0 0024 30.2a1.59 1.59 0 001.59-1.59v-1.92a7.49 7.49 0 004.64-2A5.71 5.71 0 0032 20.88z" fill="#191b28"/></svg>