<svg xmlns="http://www.w3.org/2000/svg" viewBox="0 0 50 50"><path d="M24.9 4.2c-11.4 0-20.6 9.2-20.6 20.6s9.2 20.6 20.6 20.6 20.6-9.2 20.6-20.6c0-11.3-9.2-20.6-20.6-20.6z" fill="#191b28"/><path fill="none" stroke="#fff" stroke-width="4" stroke-linecap="round" stroke-linejoin="round" d="M24.9 18.4V30"/><path d="M16.1 25.3c0-.4.1-.8.3-1.1.6-.8 1.7-.9 2.4-.2l5.6 5.3c.3.3.7.3 1 0L31 24c.6-.6 1.5-.6 2.1-.1.7.7.8 1.8.2 2.6-.1.1-.1.2-.2.2L26 33.6c-.6.6-1.5.6-2.1 0l-7.2-6.9c-.4-.3-.6-.8-.6-1.4z" fill="#06df86"/></svg>