<svg xmlns="http://www.w3.org/2000/svg" viewBox="0 0 50 50"><path d="M24.9 4.2c-11.4 0-20.6 9.2-20.6 20.6s9.2 20.6 20.6 20.6 20.6-9.2 20.6-20.6c0-11.3-9.2-20.6-20.6-20.6z" fill="#06df86"/><path fill="none" stroke="#191b28" stroke-width="4" stroke-linecap="round" stroke-linejoin="round" d="M24.9 32V20.4"/><path d="M33.8 25c0 .4-.1.8-.3 1.1-.6.8-1.7.9-2.4.2L25.5 21c-.3-.3-.7-.3-1 0l-5.6 5.3c-.6.6-1.5.6-2.1.1-.7-.7-.8-1.8-.2-2.6.1-.1.1-.2.2-.2l7.2-6.9c.6-.6 1.5-.6 2.1 0l7.2 6.9c.2.4.5.9.5 1.4z" fill="#191b28"/></svg>