<svg xmlns="http://www.w3.org/2000/svg" viewBox="0 0 50 50"><path d="M24.9 4.2c-11.4 0-20.6 9.2-20.6 20.6s9.2 20.6 20.6 20.6 20.6-9.2 20.6-20.6c0-11.3-9.2-20.6-20.6-20.6z" fill="#191b28"/><path fill="none" stroke="#fff" stroke-width="4" stroke-linecap="round" stroke-linejoin="round" d="M25 32l-.1-11.5"/><path d="M33.7 25.1c0 .4-.1.8-.3 1.1-.6.8-1.7.9-2.4.2l-5.6-5.3c-.3-.3-.7-.3-1 0l-5.6 5.3c-.6.6-1.5.6-2.1.1-.7-.7-.8-1.8-.2-2.6.1-.1.1-.2.2-.2l7-7c.6-.6 1.5-.6 2.1 0l7.3 6.8c.4.5.6 1 .6 1.6z" fill="#06df86"/></svg>