<svg data-name="Calque 1" xmlns="http://www.w3.org/2000/svg" viewBox="0 0 50 50"><path d="M25.39 31.5a6.51 6.51 0 01-6.5-6.5H10l.13.16c2.3 2.73 8.37 9.09 15.31 9.09s13-6.36 15.32-9.09l.13-.16h-9a6.51 6.51 0 01-6.5 6.5zm0-15.75c-6.94 0-13 6.36-15.31 9.09L10 25h8.94a6.5 6.5 0 0113 0h9l-.13-.16c-2.4-2.73-8.48-9.09-15.42-9.09z" fill="none"/><path d="M10.08 24.84c2.3-2.73 8.37-9.09 15.31-9.09s13 6.36 15.32 9.09l.13.16h4.57a2 2 0 00-.41-1.16c-.9-1.24-9.1-12.09-19.65-12.09S6.66 22.6 5.75 23.84A2 2 0 005.38 25H10z" fill="#06df86"/><path d="M40.84 25l-.13.16c-2.3 2.73-8.38 9.09-15.32 9.09s-13-6.36-15.31-9.09L10 25H5.38a2 2 0 00.37 1.16c.91 1.24 9.11 12.09 19.64 12.09S44.14 27.4 45 26.16a2 2 0 00.41-1.16zm-15.45-2.5a2.47 2.47 0 012.5 2.5h4a6.5 6.5 0 00-13 0h4a2.48 2.48 0 012.5-2.5z" fill="#191b28"/><path d="M25.39 31.5a6.51 6.51 0 006.5-6.5h-4a2.5 2.5 0 01-5 0h-4a6.51 6.51 0 006.5 6.5z" fill="#191b28"/></svg>