<svg data-name="Calque 1" xmlns="http://www.w3.org/2000/svg" viewBox="0 0 50 50"><path d="M31.83 25.37l5.62 3.33a1.21 1.21 0 01.42 1.66 1.2 1.2 0 01-1.64.4L29.91 27a1.18 1.18 0 01-.58-1v-1h-10a11.67 11.67 0 0023.34 0H31.83zM31 13.29a11.66 11.66 0 00-11.66 11.6v.07h10v-7.14a1.2 1.2 0 011.2-1.2h.1a1.2 1.2 0 011.2 1.2V25h10.83v-.07A11.66 11.66 0 0031 13.29z" fill="none"/><path d="M31.83 17.82a1.2 1.2 0 00-1.2-1.2h-.1a1.2 1.2 0 00-1.2 1.2V25h2.5zM29.91 27l6.31 3.8a1.2 1.2 0 001.64-.4 1.21 1.21 0 00-.42-1.66l-5.62-3.33V25h-2.5v1a1.18 1.18 0 00.59 1zm-10.57-2.11H16V25h3.33s.01-.09.01-.11zm23.32 0v.07H46v-.07z" fill="#191b28"/><path d="M19.33 25A11.68 11.68 0 0131 13.29V10a15 15 0 100 30v-3.38A11.66 11.66 0 0119.33 25z" fill="#06df86"/><path d="M42.6 25A11.67 11.67 0 0131 36.62V40a15 15 0 000-30v3.33A11.67 11.67 0 0142.6 25z" fill="#191b28"/><path stroke="#06df86" stroke-linecap="round" stroke-linejoin="round" stroke-width="3" fill="none" d="M13 24.63H6.45M13 16.88H4m9 15.5H9.82"/></svg>