<svg xmlns="http://www.w3.org/2000/svg" viewBox="0 0 275.11 218.92"><defs><linearGradient id="spinner-solid-a" x1="293.72" y1="140.31" x2="293.72" y2="126.53" gradientTransform="rotate(180 226.28 110)" gradientUnits="userSpaceOnUse"><stop offset="0" stop-color="#1b5dc5"/><stop offset=".29" stop-color="#2163cb"/><stop offset=".68" stop-color="#3274dc"/><stop offset="1" stop-color="#4487ef"/></linearGradient><pattern id="spinner-solid-b" data-name="Couleur Vagues lisses" width="109.14" height="103.22" patternTransform="matrix(1 0 0 -1 129.87 203.22)" patternUnits="userSpaceOnUse" viewBox="0 0 109.14 103.22"><path fill="none" d="M0 0h109.14v103.22H0z"/><path fill="none" d="M0 0h109.14v103.22H0z"/><path fill="none" d="M0 0h109.14v103.22H0z"/><path fill="none" d="M.01.01h109.13v103.21H.01z"/><path d="M218.26 6.72a46 46 0 00-13.64 2.13 44.89 44.89 0 01-27.28 0 44.74 44.74 0 00-27.28 0 44.89 44.89 0 01-27.28 0 46.49 46.49 0 00-13.65-2.13" stroke="#84ccd8" stroke-linecap="square" stroke-width="1.5" fill="none"/><path d="M218.26 2.42a46.74 46.74 0 00-13.64 2.12 44.74 44.74 0 01-27.28 0 44.89 44.89 0 00-27.28 0 44.74 44.74 0 01-27.28 0 46.81 46.81 0 00-13.65-2.12" stroke="#84ccd8" stroke-linecap="square" stroke-width="1.5" fill="none"/><path d="M218.26-1.88a46.72 46.72 0 00-13.64 2.1 44.74 44.74 0 01-27.28 0 44.89 44.89 0 00-27.28 0 44.74 44.74 0 01-27.28 0 46.81 46.81 0 00-13.65-2.12" stroke="#84ccd8" stroke-linecap="square" stroke-width="1.5" fill="none"/><path fill="#24b7c7" d="M.01-12.89h109.13v25.8H.01z"/><path d="M109.13 6.72a46.37 46.37 0 00-13.64 2.13 44.89 44.89 0 01-27.28 0 44.74 44.74 0 00-27.28 0A46.78 46.78 0 0127.29 11a46.78 46.78 0 01-13.64-2.15A46.49 46.49 0 000 6.72" stroke="#84ccd8" stroke-linecap="square" stroke-width="1.5" fill="none"/><path d="M109.13 2.42a46.74 46.74 0 00-13.64 2.12 44.74 44.74 0 01-27.28 0 46.74 46.74 0 00-13.64-2.12 46.74 46.74 0 00-13.64 2.12 46.42 46.42 0 01-13.64 2.13 46.37 46.37 0 01-13.64-2.13A46.81 46.81 0 000 2.42" stroke="#84ccd8" stroke-linecap="square" stroke-width="1.5" fill="none"/><path d="M109.13-1.88A46.72 46.72 0 0095.49.22a44.74 44.74 0 01-27.28 0A46.74 46.74 0 0054.57-1.9 46.74 46.74 0 0040.93.22a46.42 46.42 0 01-13.64 2.13A46.37 46.37 0 0113.65.22 46.79 46.79 0 000-1.88m0 8.6a46 46 0 00-13.63 2.13A46.78 46.78 0 01-27.27 11a46.78 46.78 0 01-13.64-2.15 46.42 46.42 0 00-13.64-2.13 46 46 0 00-13.64 2.13A46.78 46.78 0 01-81.83 11a46.78 46.78 0 01-13.64-2.15 46.42 46.42 0 00-13.64-2.13M0 2.42a46.68 46.68 0 00-13.63 2.12 46.42 46.42 0 01-13.64 2.13 46 46 0 01-13.64-2.13 46.74 46.74 0 00-13.64-2.12 46.74 46.74 0 00-13.64 2.12 46.42 46.42 0 01-13.64 2.13 46 46 0 01-13.64-2.13 46.74 46.74 0 00-13.64-2.12M0-1.88A46.66 46.66 0 00-13.63.22a46.42 46.42 0 01-13.64 2.13A46 46 0 01-40.91.22 46.74 46.74 0 00-54.55-1.9 46.74 46.74 0 00-68.19.22a46.42 46.42 0 01-13.64 2.13A46 46 0 01-95.47.22a46.74 46.74 0 00-13.64-2.12m327.37 21.52a46 46 0 00-13.64 2.13 44.74 44.74 0 01-27.28 0 44.74 44.74 0 00-27.28 0 44.74 44.74 0 01-27.28 0 46.49 46.49 0 00-13.65-2.13" stroke="#84ccd8" stroke-linecap="square" stroke-width="1.5" fill="none"/><path d="M218.26 15.32a46 46 0 00-13.64 2.13 44.89 44.89 0 01-27.28 0 44.74 44.74 0 00-27.28 0 44.89 44.89 0 01-27.28 0 46.49 46.49 0 00-13.65-2.13" stroke="#84ccd8" stroke-linecap="square" stroke-width="1.5" fill="none"/><path d="M218.26 11a46.74 46.74 0 00-13.64 2.12 44.74 44.74 0 01-27.28 0 44.89 44.89 0 00-27.28 0 44.74 44.74 0 01-27.28 0A46.81 46.81 0 00109.13 11m109.13 21.52a46.76 46.76 0 00-13.64 2.13 44.74 44.74 0 01-27.28 0 44.74 44.74 0 00-27.28 0 44.74 44.74 0 01-27.28 0 46.82 46.82 0 00-13.65-2.13" stroke="#84ccd8" stroke-linecap="square" stroke-width="1.5" fill="none"/><path d="M218.26 28.22a46 46 0 00-13.64 2.13 44.74 44.74 0 01-27.28 0 44.74 44.74 0 00-27.28 0 44.74 44.74 0 01-27.28 0 46.49 46.49 0 00-13.65-2.13" stroke="#84ccd8" stroke-linecap="square" stroke-width="1.5" fill="none"/><path d="M218.26 23.92a46 46 0 00-13.64 2.13 44.74 44.74 0 01-27.28 0 44.74 44.74 0 00-27.28 0 44.74 44.74 0 01-27.28 0 46.49 46.49 0 00-13.65-2.13" stroke="#84ccd8" stroke-linecap="square" stroke-width="1.5" fill="none"/><path fill="#24b7c7" d="M.01 12.91h109.13v25.8H.01z"/><path d="M109.13 19.62a46.37 46.37 0 00-13.64 2.13 44.74 44.74 0 01-27.28 0 44.74 44.74 0 00-27.28 0 46.76 46.76 0 01-13.64 2.13 46.76 46.76 0 01-13.64-2.13A46.49 46.49 0 000 19.62" stroke="#84ccd8" stroke-linecap="square" stroke-width="1.5" fill="none"/><path d="M109.13 15.32a46.37 46.37 0 00-13.64 2.13 44.89 44.89 0 01-27.28 0 44.74 44.74 0 00-27.28 0 46.74 46.74 0 01-13.64 2.12 46.74 46.74 0 01-13.64-2.12A46.49 46.49 0 000 15.32" stroke="#84ccd8" stroke-linecap="square" stroke-width="1.5" fill="none"/><path d="M109.13 11a46.74 46.74 0 00-13.64 2.12 44.74 44.74 0 01-27.28 0A46.74 46.74 0 0054.57 11a46.74 46.74 0 00-13.64 2.12 46.39 46.39 0 01-13.64 2.1 46.37 46.37 0 01-13.64-2.13A46.78 46.78 0 000 11m109.13 21.52a46.76 46.76 0 00-13.64 2.13 44.74 44.74 0 01-27.28 0 46.76 46.76 0 00-13.64-2.13 46.76 46.76 0 00-13.64 2.13 46.76 46.76 0 01-13.64 2.13 46.76 46.76 0 01-13.64-2.13A46.82 46.82 0 000 32.52" stroke="#84ccd8" stroke-linecap="square" stroke-width="1.5" fill="none"/><path d="M109.13 28.22a46.37 46.37 0 00-13.64 2.13 44.74 44.74 0 01-27.28 0 44.74 44.74 0 00-27.28 0 46.76 46.76 0 01-13.64 2.13 46.76 46.76 0 01-13.64-2.13A46.49 46.49 0 000 28.22" stroke="#84ccd8" stroke-linecap="square" stroke-width="1.5" fill="none"/><path d="M109.13 23.92a46.37 46.37 0 00-13.64 2.13 44.74 44.74 0 01-27.28 0 44.74 44.74 0 00-27.28 0 46.41 46.41 0 01-13.64 2.17 46.76 46.76 0 01-13.64-2.13A46.53 46.53 0 000 23.92m0-4.3a46 46 0 00-13.64 2.13 46.76 46.76 0 01-13.64 2.13 46.76 46.76 0 01-13.64-2.13 46.42 46.42 0 00-13.64-2.13 46 46 0 00-13.64 2.13 46.76 46.76 0 01-13.64 2.13 46.76 46.76 0 01-13.64-2.13 46.42 46.42 0 00-13.64-2.13M0 15.32a46 46 0 00-13.64 2.13 46.74 46.74 0 01-13.64 2.12 46.74 46.74 0 01-13.64-2.12 46.42 46.42 0 00-13.64-2.13 46 46 0 00-13.64 2.13 46.74 46.74 0 01-13.64 2.12 46.74 46.74 0 01-13.64-2.12 46.42 46.42 0 00-13.64-2.13M0 11a46.74 46.74 0 00-13.64 2.12 46.39 46.39 0 01-13.64 2.1 46 46 0 01-13.64-2.13A46.68 46.68 0 00-54.55 11a46.72 46.72 0 00-13.64 2.1 46.39 46.39 0 01-13.64 2.1 46 46 0 01-13.64-2.13A46.74 46.74 0 00-109.11 11M0 32.52a46.76 46.76 0 00-13.64 2.13 46.76 46.76 0 01-13.64 2.13 46.76 46.76 0 01-13.64-2.13 46.76 46.76 0 00-13.64-2.13 46.76 46.76 0 00-13.64 2.13 46.76 46.76 0 01-13.64 2.13 46.76 46.76 0 01-13.64-2.13 46.76 46.76 0 00-13.64-2.13M0 28.22a46 46 0 00-13.64 2.13 46.76 46.76 0 01-13.64 2.13 46.76 46.76 0 01-13.64-2.13 46.42 46.42 0 00-13.64-2.13 46 46 0 00-13.64 2.13 46.76 46.76 0 01-13.64 2.13 46.76 46.76 0 01-13.64-2.13 46.42 46.42 0 00-13.64-2.13M0 23.92a46 46 0 00-13.64 2.13 46.41 46.41 0 01-13.64 2.17 46.76 46.76 0 01-13.64-2.13 46.41 46.41 0 00-13.64-2.17 46 46 0 00-13.64 2.13 46.41 46.41 0 01-13.64 2.17 46.76 46.76 0 01-13.64-2.13A46.32 46.32 0 00-109.11 24m327.37 21.42a46.76 46.76 0 00-13.64 2.13 44.74 44.74 0 01-27.28 0 44.74 44.74 0 00-27.28 0 44.74 44.74 0 01-27.28 0 46.82 46.82 0 00-13.65-2.13" stroke="#84ccd8" stroke-linecap="square" stroke-width="1.5" fill="none"/><path d="M218.26 41.12a46.72 46.72 0 00-13.64 2.1 44.74 44.74 0 01-27.28 0 44.74 44.74 0 00-27.28 0 44.74 44.74 0 01-27.28 0 46.82 46.82 0 00-13.65-2.13" stroke="#84ccd8" stroke-linecap="square" stroke-width="1.5" fill="none"/><path d="M218.26 36.82A46.75 46.75 0 00204.62 39a44.74 44.74 0 01-27.28 0 44.74 44.74 0 00-27.28 0 44.74 44.74 0 01-27.28 0 46.82 46.82 0 00-13.65-2.13m109.13 21.45a46.76 46.76 0 00-13.64 2.13 44.74 44.74 0 01-27.28 0 44.74 44.74 0 00-27.28 0 44.74 44.74 0 01-27.28 0 46.82 46.82 0 00-13.65-2.13" stroke="#84ccd8" stroke-linecap="square" stroke-width="1.5" fill="none"/><path d="M218.26 54a46.76 46.76 0 00-13.64 2.13 44.74 44.74 0 01-27.28 0 44.74 44.74 0 00-27.28 0 44.74 44.74 0 01-27.28 0A46.82 46.82 0 00109.13 54" stroke="#84ccd8" stroke-linecap="square" stroke-width="1.5" fill="none"/><path d="M218.26 49.72a46.76 46.76 0 00-13.64 2.13 44.74 44.74 0 01-27.28 0 44.74 44.74 0 00-27.28 0 44.74 44.74 0 01-27.28 0 46.82 46.82 0 00-13.65-2.13" stroke="#84ccd8" stroke-linecap="square" stroke-width="1.5" fill="none"/><path fill="#24b7c7" d="M.01 38.71h109.13v25.8H.01z"/><path d="M109.13 45.42a46.76 46.76 0 00-13.64 2.13 44.74 44.74 0 01-27.28 0 46.76 46.76 0 00-13.64-2.13 46.76 46.76 0 00-13.64 2.13 46.76 46.76 0 01-13.64 2.13 46.76 46.76 0 01-13.64-2.13A46.82 46.82 0 000 45.42" stroke="#84ccd8" stroke-linecap="square" stroke-width="1.5" fill="none"/><path d="M109.13 41.12a46.72 46.72 0 00-13.64 2.1 44.74 44.74 0 01-27.28 0 45.35 45.35 0 00-27.28 0 46.76 46.76 0 01-13.64 2.13 46.76 46.76 0 01-13.64-2.13A46.79 46.79 0 000 41.12" stroke="#84ccd8" stroke-linecap="square" stroke-width="1.5" fill="none"/><path d="M109.13 36.82A46.75 46.75 0 0095.49 39a44.74 44.74 0 01-27.28 0 46.76 46.76 0 00-13.64-2.13A46.76 46.76 0 0040.93 39a46.76 46.76 0 01-13.64 2.13A46.76 46.76 0 0113.65 39 46.87 46.87 0 000 36.82m109.13 21.5a46.76 46.76 0 00-13.64 2.13 44.74 44.74 0 01-27.28 0 46.76 46.76 0 00-13.64-2.13 46.76 46.76 0 00-13.64 2.13 46.42 46.42 0 01-13.64 2.13 46.37 46.37 0 01-13.64-2.13A46.82 46.82 0 000 58.32" stroke="#84ccd8" stroke-linecap="square" stroke-width="1.5" fill="none"/><path d="M109.13 54a46.76 46.76 0 00-13.64 2.13 44.74 44.74 0 01-27.28 0A46.76 46.76 0 0054.57 54a46.76 46.76 0 00-13.64 2.13 46.71 46.71 0 01-13.64 2.09 46.76 46.76 0 01-13.64-2.13A46.78 46.78 0 000 54" stroke="#84ccd8" stroke-linecap="square" stroke-width="1.5" fill="none"/><path d="M109.13 49.72a46.76 46.76 0 00-13.64 2.13 44.74 44.74 0 01-27.28 0 46.76 46.76 0 00-13.64-2.13 46.76 46.76 0 00-13.64 2.13A46.78 46.78 0 0127.29 54a46.76 46.76 0 01-13.64-2.13A46.84 46.84 0 000 49.72m0-4.3a46.76 46.76 0 00-13.64 2.13 46.76 46.76 0 01-13.64 2.13 46.76 46.76 0 01-13.64-2.13 46.76 46.76 0 00-13.64-2.13 46.76 46.76 0 00-13.64 2.13 46.76 46.76 0 01-13.64 2.13 46.76 46.76 0 01-13.64-2.13 46.76 46.76 0 00-13.64-2.13M0 41.12a46.72 46.72 0 00-13.64 2.1 46.76 46.76 0 01-13.64 2.13 46.76 46.76 0 01-13.64-2.13 46.72 46.72 0 00-13.64-2.1 46.72 46.72 0 00-13.64 2.1 46.76 46.76 0 01-13.64 2.13 46.76 46.76 0 01-13.64-2.13 46.76 46.76 0 00-13.64-2.13" stroke="#84ccd8" stroke-linecap="square" stroke-width="1.5" fill="none"/><path d="M0 36.82A46.69 46.69 0 00-13.63 39a46.76 46.76 0 01-13.64 2.13A46.76 46.76 0 01-40.91 39a46.76 46.76 0 00-13.64-2.13A46.76 46.76 0 00-68.19 39a46.76 46.76 0 01-13.64 2.13A46.76 46.76 0 01-95.47 39a46.76 46.76 0 00-13.64-2.13M0 58.32a46.76 46.76 0 00-13.64 2.13 46.42 46.42 0 01-13.64 2.13 46 46 0 01-13.64-2.13 46.76 46.76 0 00-13.64-2.13 46.76 46.76 0 00-13.64 2.13 46.42 46.42 0 01-13.64 2.13 46 46 0 01-13.64-2.13 46.76 46.76 0 00-13.64-2.13M0 54a46.76 46.76 0 00-13.64 2.13 46.71 46.71 0 01-13.64 2.09 46.76 46.76 0 01-13.64-2.13A46.69 46.69 0 00-54.55 54a46.76 46.76 0 00-13.64 2.13 46.76 46.76 0 01-13.64 2.13 46.76 46.76 0 01-13.64-2.13A46.76 46.76 0 00-109.11 54M0 49.72a46.76 46.76 0 00-13.64 2.13A46.71 46.71 0 01-27.27 54a46.76 46.76 0 01-13.64-2.13 46.76 46.76 0 00-13.64-2.13 46.76 46.76 0 00-13.64 2.13A46.76 46.76 0 01-81.83 54a46.76 46.76 0 01-13.64-2.13 46.76 46.76 0 00-13.64-2.13m327.37 21.48a46.74 46.74 0 00-13.64 2.12 44.74 44.74 0 01-27.28 0 44.89 44.89 0 00-27.28 0 44.74 44.74 0 01-27.28 0 46.81 46.81 0 00-13.65-2.12" stroke="#84ccd8" stroke-linecap="square" stroke-width="1.5" fill="none"/><path d="M218.26 66.93a46.74 46.74 0 00-13.64 2.12 44.74 44.74 0 01-27.28 0 44.89 44.89 0 00-27.28 0 44.74 44.74 0 01-27.28 0 46.81 46.81 0 00-13.65-2.12" stroke="#84ccd8" stroke-linecap="square" stroke-width="1.5" fill="none"/><path d="M218.26 62.62a46.76 46.76 0 00-13.64 2.13 44.74 44.74 0 01-27.28 0 44.74 44.74 0 00-27.28 0 44.74 44.74 0 01-27.28 0 46.82 46.82 0 00-13.65-2.13m109.13 21.51a46.38 46.38 0 00-13.64 2.09 44.89 44.89 0 01-27.28 0 44.74 44.74 0 00-27.28 0 44.89 44.89 0 01-27.28 0 46.49 46.49 0 00-13.65-2.13" stroke="#84ccd8" stroke-linecap="square" stroke-width="1.5" fill="none"/><path d="M218.26 79.83A45.76 45.76 0 00204.62 82a44.89 44.89 0 01-27.28 0 44.74 44.74 0 00-27.28 0 44.89 44.89 0 01-27.28 0 46.49 46.49 0 00-13.65-2.13" stroke="#84ccd8" stroke-linecap="square" stroke-width="1.5" fill="none"/><path d="M218.26 75.53a46.74 46.74 0 00-13.64 2.12 44.74 44.74 0 01-27.28 0 44.89 44.89 0 00-27.28 0 44.74 44.74 0 01-27.28 0 46.81 46.81 0 00-13.65-2.12" stroke="#84ccd8" stroke-linecap="square" stroke-width="1.5" fill="none"/><path fill="#24b7c7" d="M.01 64.52h109.13v25.8H.01z"/><path d="M109.13 71.22a46.74 46.74 0 00-13.64 2.12 44.74 44.74 0 01-27.28 0 46.74 46.74 0 00-13.64-2.12 46.74 46.74 0 00-13.64 2.12 46.42 46.42 0 01-13.64 2.13 46.37 46.37 0 01-13.64-2.13A46.81 46.81 0 000 71.22" stroke="#84ccd8" stroke-linecap="square" stroke-width="1.5" fill="none"/><path d="M109.13 66.93a46.74 46.74 0 00-13.64 2.12 44.74 44.74 0 01-27.28 0 46.74 46.74 0 00-13.64-2.12 46.74 46.74 0 00-13.64 2.12 46.41 46.41 0 01-13.64 2.17 46.37 46.37 0 01-13.64-2.13A46.85 46.85 0 000 66.93" stroke="#84ccd8" stroke-linecap="square" stroke-width="1.5" fill="none"/><path d="M109.13 62.62a46.76 46.76 0 00-13.64 2.13 44.74 44.74 0 01-27.28 0 46.76 46.76 0 00-13.64-2.13 46.76 46.76 0 00-13.64 2.13 46.42 46.42 0 01-13.64 2.13 46.37 46.37 0 01-13.64-2.13A46.82 46.82 0 000 62.62m109.13 21.51a46.38 46.38 0 00-13.64 2.09 44.89 44.89 0 01-27.28 0 44.74 44.74 0 00-27.28 0 46.74 46.74 0 01-13.64 2.12 46.74 46.74 0 01-13.64-2.12A46.45 46.45 0 000 84.13" stroke="#84ccd8" stroke-linecap="square" stroke-width="1.5" fill="none"/><path d="M109.13 79.83A46.41 46.41 0 0095.49 82a44.89 44.89 0 01-27.28 0 44.74 44.74 0 00-27.28 0 46.74 46.74 0 01-13.64 2.12A46.74 46.74 0 0113.65 82 46.53 46.53 0 000 79.83" stroke="#84ccd8" stroke-linecap="square" stroke-width="1.5" fill="none"/><path d="M109.13 75.53a46.74 46.74 0 00-13.64 2.12 44.74 44.74 0 01-27.28 0 46.74 46.74 0 00-13.64-2.12 46.74 46.74 0 00-13.64 2.12 46.42 46.42 0 01-13.64 2.13 46.37 46.37 0 01-13.64-2.13A46.81 46.81 0 000 75.53m0-4.31a46.74 46.74 0 00-13.64 2.12 46.42 46.42 0 01-13.64 2.13 46 46 0 01-13.64-2.13 46.74 46.74 0 00-13.64-2.12 46.76 46.76 0 00-13.64 2.13 46.42 46.42 0 01-13.64 2.13 46 46 0 01-13.64-2.13 46.76 46.76 0 00-13.64-2.13" stroke="#84ccd8" stroke-linecap="square" stroke-width="1.5" fill="none"/><path d="M0 66.93a46.74 46.74 0 00-13.64 2.12 46.41 46.41 0 01-13.64 2.17 46 46 0 01-13.64-2.13A46.65 46.65 0 00-54.55 67a46.42 46.42 0 00-13.64 2.08 46.38 46.38 0 01-13.64 2.14 46.07 46.07 0 01-13.64-2.1A46.74 46.74 0 00-109.11 67M0 62.62a46.76 46.76 0 00-13.64 2.13 46.42 46.42 0 01-13.64 2.13 46 46 0 01-13.64-2.13 46.76 46.76 0 00-13.64-2.13 46.76 46.76 0 00-13.64 2.13 46.42 46.42 0 01-13.64 2.13 46 46 0 01-13.64-2.13 46.76 46.76 0 00-13.64-2.13M0 84.13a46.38 46.38 0 00-13.64 2.09 46.74 46.74 0 01-13.64 2.12 46.74 46.74 0 01-13.64-2.12 46.42 46.42 0 00-13.64-2.13 46 46 0 00-13.64 2.13 46.74 46.74 0 01-13.64 2.12 46.74 46.74 0 01-13.64-2.12 46.42 46.42 0 00-13.64-2.13" stroke="#84ccd8" stroke-linecap="square" stroke-width="1.5" fill="none"/><path d="M0 79.83A46 46 0 00-13.63 82a46.74 46.74 0 01-13.64 2.12A46.74 46.74 0 01-40.91 82a46.42 46.42 0 00-13.64-2.13A46 46 0 00-68.19 82a46.74 46.74 0 01-13.64 2.12A46.74 46.74 0 01-95.47 82a46.42 46.42 0 00-13.64-2.13M0 75.53a46.74 46.74 0 00-13.64 2.12 46.42 46.42 0 01-13.64 2.13 46 46 0 01-13.64-2.13 46.74 46.74 0 00-13.64-2.12 46.74 46.74 0 00-13.64 2.12 46.42 46.42 0 01-13.64 2.13 46 46 0 01-13.64-2.13 46.74 46.74 0 00-13.64-2.12M218.26 97a46.76 46.76 0 00-13.64 2.13 44.74 44.74 0 01-27.28 0 44.74 44.74 0 00-27.28 0 44.74 44.74 0 01-27.28 0A46.82 46.82 0 00109.13 97" stroke="#84ccd8" stroke-linecap="square" stroke-width="1.5" fill="none"/><path d="M218.26 92.73a46 46 0 00-13.64 2.13 44.89 44.89 0 01-27.28 0 44.74 44.74 0 00-27.28 0 44.89 44.89 0 01-27.28 0 46.49 46.49 0 00-13.65-2.13" stroke="#84ccd8" stroke-linecap="square" stroke-width="1.5" fill="none"/><path d="M218.26 88.43a46 46 0 00-13.64 2.13 44.89 44.89 0 01-27.28 0 44.74 44.74 0 00-27.28 0 44.89 44.89 0 01-27.28 0 46.49 46.49 0 00-13.65-2.13m109.13 12.9a46.76 46.76 0 00-13.64 2.13 44.74 44.74 0 01-27.28 0 44.74 44.74 0 00-27.28 0 44.74 44.74 0 01-27.28 0 46.82 46.82 0 00-13.65-2.13" stroke="#84ccd8" stroke-linecap="square" stroke-width="1.5" fill="none"/><path fill="#24b7c7" d="M.01 90.32h109.13v25.8H.01z"/><path d="M109.13 97a46.76 46.76 0 00-13.64 2.13 44.74 44.74 0 01-27.28 0A46 46 0 0054.57 97a46.76 46.76 0 00-13.64 2.13 46.71 46.71 0 01-13.64 2.09 46.71 46.71 0 01-13.64-2.09A46.82 46.82 0 000 97" stroke="#84ccd8" stroke-linecap="square" stroke-width="1.5" fill="none"/><path d="M109.13 92.73a46.37 46.37 0 00-13.64 2.13 44.89 44.89 0 01-27.28 0 44.74 44.74 0 00-27.28 0A47.1 47.1 0 0127.29 97a46.74 46.74 0 01-13.64-2.12A46.51 46.51 0 000 92.73" stroke="#84ccd8" stroke-linecap="square" stroke-width="1.5" fill="none"/><path d="M109.13 88.43a46.37 46.37 0 00-13.64 2.13 44.89 44.89 0 01-27.28 0 44.74 44.74 0 00-27.28 0 46.74 46.74 0 01-13.64 2.12 46.74 46.74 0 01-13.64-2.12A46.49 46.49 0 000 88.43m109.13 12.9a46.76 46.76 0 00-13.64 2.13 44.74 44.74 0 01-27.28 0 46.76 46.76 0 00-13.64-2.13 46.76 46.76 0 00-13.64 2.13 46.76 46.76 0 01-13.64 2.13 46.76 46.76 0 01-13.64-2.13A46.82 46.82 0 000 101.33M0 97a46.76 46.76 0 00-13.64 2.13 46.71 46.71 0 01-13.64 2.09 46.71 46.71 0 01-13.64-2.09A46.69 46.69 0 00-54.55 97a46.76 46.76 0 00-13.64 2.13 46.71 46.71 0 01-13.64 2.09 46.71 46.71 0 01-13.64-2.09A46.76 46.76 0 00-109.11 97M0 92.73a46 46 0 00-13.64 2.13A47 47 0 01-27.27 97a46.74 46.74 0 01-13.64-2.12 46.42 46.42 0 00-13.64-2.13 46 46 0 00-13.64 2.13A46.74 46.74 0 01-81.83 97a46.74 46.74 0 01-13.64-2.12 46.42 46.42 0 00-13.64-2.13M0 88.43a46 46 0 00-13.64 2.13 46.74 46.74 0 01-13.64 2.12 46.74 46.74 0 01-13.64-2.12 46.42 46.42 0 00-13.64-2.13 46 46 0 00-13.64 2.13 46.74 46.74 0 01-13.64 2.12 46.74 46.74 0 01-13.64-2.12 46.42 46.42 0 00-13.64-2.13M0 101.33a46.76 46.76 0 00-13.64 2.13 46.76 46.76 0 01-13.64 2.13 46.76 46.76 0 01-13.64-2.13 46.76 46.76 0 00-13.64-2.13 46.76 46.76 0 00-13.64 2.13 46.76 46.76 0 01-13.64 2.13 46.76 46.76 0 01-13.64-2.13 46.76 46.76 0 00-13.64-2.13" stroke="#84ccd8" stroke-linecap="square" stroke-width="1.5" fill="none"/></pattern></defs><g data-name="Calque 2"><g data-name="Calque 1"><path d="M44.65 13.46C42.3 15 32.22 20.63 24.51 29c-11 11.94-11 15.76-16.31 26.92a86.45 86.45 0 00-8 30.46 89.43 89.43 0 003.68 32.07c4.57 16.3 9.51 21.12 15.51 32.12 7.8 14.3 14.93 18.75 28.49 37.13 3.59 4.88 7 10.45 12.51 14.87 5 4 32.25 20.12 69.14 15.49 26.06-3.27 48.39-6.07 76.23-18.59 19.11-8.58 35.87-16.35 50.27-34.41 5.73-7.2 16.29-20.8 18.62-41.2 2.3-20.09-4.69-35.43-8.24-43.23-3.31-7.28-10.3-22.14-26.51-33.89C234.83 43 225.43 36.21 211.84 34c-13.21-2.15-16.68 2.27-29.72-1.08-4.79-1.23-10.8-4.38-22.62-10.62-15.83-8.34-15.18-8.81-21.44-11.8-6.67-3.19-25.68-12-49.48-10.28-9.72.71-36.91 8.71-43.93 13.24z" style="isolation:isolate" fill="#06df86" opacity=".7"/><path d="M131.07 57.34a5.86 5.86 0 00-1.5 1c-2.75 2.3-2.75 2.28-3.75 3.11-1.58 1.37-1.95 1.87-3.74 3.37-4 3.38-5 3.9-8.25 7.27-1.92 2-3.75 3.11-5.25 4.67a2.14 2.14 0 000 2.33c.5.43 0 .53.5.78 2.12 1 6.22.29 7 0L136.32 57c-.89-.09-2.86.26-5 .26-.25.04-.13 0-.25.08z" fill="#858da1"/><path fill="#474745" d="M232.54 77.25l12.74-.27-14.5-20.74h-10.74l12.5 21.01z"/><path fill="#858da1" d="M220.04 56.24l-32.74.01 3 21.78 42.74-.78-13-21.01z"/><path fill="#474745" d="M187.3 56.51l3.25 22.3h-9.99l1.74-22.04 5-.26z"/><path fill="#858da1" d="M124.83 79.86l55.73-1.31 1.99-22.3-40.98.79-16.74 22.82z"/><path d="M57.06 121.47l5.25-.1a28.11 28.11 0 011.75-9.6A22.67 22.67 0 0168.8 104c1.48-1.63 2.54-3.63 7.25-5.44 5.1-2 8.75-2.13 10.75-1.82a21.43 21.43 0 0110.74 4.4c4.12 3.31 8.17 9.21 7.75 13.49a8.33 8.33 0 00.26 3.37 6.4 6.4 0 002.5 3.63 5 5 0 001 .52l102-.55a5.58 5.58 0 002-2.59c.94-1.84 2-3 2.25-4.41.71-3.82 1.36-6.82 3-8.82A18.19 18.19 0 01226 99c1.63-.74 4.36-2.68 8.75-2.6a21.25 21.25 0 019.5 2.6c2 1 8.4 4.21 10.75 10.88.11.33.19.61.25.78h5.49c.07-1.16.56-11.18-3.75-13a8.56 8.56 0 00-1.5-.26 8.13 8.13 0 00.5-1.3c1.15-7.06-.88-16-6.5-18.67-.34-.12-.6-.84-1.25-1l-138.41 3.44h-.25l-.75-.26-.5-.78.25-2.07c-4.89.35-25.25 1.7-38.74 7.53a23.37 23.37 0 00-9.75 7 30.62 30.62 0 00-3.23 5.85" fill="url(#spinner-solid-a)"/><path d="M263.53 108.91h-4.25a3.54 3.54 0 01-1.5-.78 3.81 3.81 0 01-1-1.56 32.78 32.78 0 00-2.75-4.15 16.94 16.94 0 00-5.74-4.66 21.52 21.52 0 00-21-.78 23.22 23.22 0 00-9 8c-1.13 1.74-3.39 5.21-3.5 8.55a10.28 10.28 0 01-.5 2.86 6.65 6.65 0 01-2 3.11 5.3 5.3 0 01-.75.52l-98.71.28a4.46 4.46 0 01-1.5-.26 3.71 3.71 0 01-2.75-4.41c.1-1.84-.43-3.22-1.5-6a23.18 23.18 0 00-3.75-6.48 21.92 21.92 0 00-6-4.93 24.88 24.88 0 00-8.24-3.11 22.51 22.51 0 00-10.75.78 23.12 23.12 0 00-8.75 5.71c-.75.77-6.73 7.12-7 16.34v1.29h-4.5v2.07a4 4 0 00.5 1.82c.61 1 1.66 1.59 3.5 2.59l.5.26h7.25a19.85 19.85 0 01-1-6.75 21.93 21.93 0 011-5.44 17.94 17.94 0 016-9.34 14.78 14.78 0 0110.5-3.63 18 18 0 019 3.11 16 16 0 016 6.48c1.23 2.34 1.48 5.65 1.76 8.82.19 2.27-.5 3.41-1 6-.28.45.19 1.06 0 1.3h119.45l-.5-1.3c-.38-1-.37-2.65-.75-4.41a14.34 14.34 0 01.25-6.48 12.31 12.31 0 012.5-5.7 22.93 22.93 0 014.74-5.19c2.25-1.66 3.39-2.52 5.25-3.12 2.92-.93 5.39.26 7 .52a15.24 15.24 0 017 2.59 14 14 0 015 5.71 27.9 27.9 0 012.75 12.44v1.82a13.36 13.36 0 004.75-2.34 11 11 0 004.24-5.7" fill="#535352"/><path d="M89.72 101.13a17.22 17.22 0 019 4.93 17.94 17.94 0 014.26 9.61 19.18 19.18 0 01-1 10.65 18.32 18.32 0 01-9.76 9.61c-1.52.65-7.39 3.07-13.77.26a17 17 0 01-7.26-6.19 18.75 18.75 0 01-2.75-11.68 20 20 0 015-12.47 14.9 14.9 0 0116.28-4.68zm151.28-.55a17.22 17.22 0 019 4.93 17.94 17.94 0 014.25 9.59 19.19 19.19 0 01-1 10.63 18.33 18.33 0 01-9.74 9.6c-1.52.65-7.38 3.07-13.75.26a16.84 16.84 0 01-7.25-6.22 18.85 18.85 0 01-2.75-11.67 20.07 20.07 0 015-12.45 14.9 14.9 0 0116.24-4.67z" fill="#474745"/><path d="M82.45 106a13.8 13.8 0 012.65-.2 13.42 13.42 0 0113.12 13.71 13.21 13.21 0 01-2.75 6.75 12.3 12.3 0 01-5.75 4.94 11.42 11.42 0 01-8-.26 12.35 12.35 0 01-6.53-4.94 13 13 0 01-2-7.54 13.69 13.69 0 012.75-8 12 12 0 016.51-4.42zm160.34 1a11.82 11.82 0 016.75 12 13.14 13.14 0 01-2.75 6.77 12.25 12.25 0 01-5.74 4.93 11.36 11.36 0 01-8-.25 12.39 12.39 0 01-6.5-4.93 13 13 0 01-2-7.52 13.55 13.55 0 012.75-8 11.92 11.92 0 016.49-4.45 12.4 12.4 0 019 1.45z" fill="#eee"/><path d="M250.72 80.19H249l-1 .26-.5.78-.25.78v1.55l.75 6.74a5.44 5.44 0 00.25 2.08 4.73 4.73 0 002 2.59 3.21 3.21 0 002 .52 2.38 2.38 0 002-1.3 1.89 1.89 0 000-1c-.45-1.73.22-1.59-1-9.59a4.6 4.6 0 00-.5-1.56c-.55-1-1.82-2-2-1.81" fill="#9f000d"/><path d="M178.32 120.82c4.74-10.89 7.24-28.45 7.24-42.79m-70.63 42.91c-1.38-11.54 1.43-28.45 5.62-41.6" stroke="#535352" stroke-miterlimit="10" fill="none"/><path fill="#474745" d="M116.08 79.87l9-.27 17.74-22.82h-6.25l-20.49 23.09z"/><path d="M192.76 52.62q-20.83.41-40.24 1.57c-7.62.37-13.28.7-15.74.78A8.28 8.28 0 00131 57.3l102-1.06 4-3.37" fill="#1b5dc5"/><path d="M108.58 78.83c-12.78 1.5-30.09 9.11-43.23 17.39" stroke="#535352" stroke-miterlimit="10" fill="none"/><path d="M57.11 100.15c-.11-.5-.25-1.66.75-4.15a18 18 0 013.5-5.45c1.49-1.59 2.23-2.4 3.49-2.59a3.59 3.59 0 013.5 1.29c.73 1.18.16 2.68-.5 4.41a15.39 15.39 0 01-6.24 7.52c-2 1.27-2.75 1.24-3.25 1a2.88 2.88 0 01-1.25-2.07" fill="#fff"/><path d="M50.54 191.12c-5.2-6.85-21.71-26.57-21.71-26.57-2.66-14.82-3.62-27.9-3.34-32.17-.06-.84.75-3.76 1.74-7.17.53-1.73.62-5.45 4.18-8.42 3-2.5 9.43-4 10.71-4.36 3.64-1 5.81-3.22 5.38-3.42 11.3 5 31.08-.29 32.53 2.31 0 0 9.51 1.4 11 6 6.51 19.83 16.13 101.6 16.13 101.6s-18.16-1.46-32.44-8.21c-6.63-3.13-13.17-6.48-17.45-10.81-2.95-3-4.42-5.74-6.73-8.78z" fill="url(#spinner-solid-b)"/><path d="M83.55 78.38c1 4.08 1.29 4.06 1.75 6.8.55 3.31-3.78 2.41-3.43 3.77 1.17 4.55.67 6.88-2 9.2-2.37 2.06-8.15 2.1-8.15 2.1l.69 2.71c.3 3.9 4.74 6.2 6.06 8 .42.52-3.37-.82-6.08 0a70.91 70.91 0 01-12.3 1.92c-5.6-.26-13.38-2.77-13.38-2.77s2.19-9.56 2.29-11.6c0-.9 2.15.15 1.75-.89-2.28-5.62 5.82-14.06 4.87-20.81-.18-1.28 13.51-14.32 13.53-15.06 10.46-2.77 12.26 2.61 12.61 4a71.7 71.7 0 001.79 12.63z" fill="#fac38e"/><path d="M71.75 62.48c-4.4-.16 1.74 19.06-2.46 16.57-1.71-1-5.35-7.61-8.54-5-1.64 1.35-3.73 2.4-3 5.12.43 1.67 5.12 3 5.47 4.39.66 2.73 1.29 4.51.38 7.15-.63 1.74-4.81 7-6.76 7.53-2.73.69-5.09 2.75-6.8 1.74s-4.15-10.53-5.68-13.6c-.43-.88-1.59-2.12-1.58-3.38 0-2.9-1.71-1-2.75-5.08-.74-2.72.68-2.67.27-4.43-.37-1.58-1.34-1.22-2.06-2.37-.94-1.56 2.51-5.66 2.68-6.53.29-1.43-.68-2-1-4.07s2.06-4.74 3.59-5.33c.85-.31 1.6.06 2-.51s.1-1.31.11-2.33a5.65 5.65 0 013.1-4.57c2.2-1 4 .7 5.54-.66.61-.54.42-.89 1-1.78 1.8-2.88 6.5-3.51 10-2.58 1.44.39 1 .59 2.38.93 4.38 1.1 6.74-1.62 9.25-.08 1.11.66.61 1.2 2.08 2.53 2.68 2.45 4.85 1.14 6.46 3 1.86 2.11 4.5 6 4.16 7.42-.29 1.1-3.09 6.91-5.06 8.54-2.63 2.04-6.79-2.41-12.78-2.62z" fill="#855445"/><path d="M82.14 93.92s.64-.1.31-2.08l-.38-2.23h-7c1.18 2.11 7.07 4.31 7.07 4.31z" fill="#fff"/><rect x="143.99" y="125.14" width="14.19" height="2.42" rx="1.21" transform="rotate(-75 151.072 126.347)" fill="#bfc2c5"/><path d="M150 130.15a4.8 4.8 0 013.4 5.89l-1.07 4a4.82 4.82 0 01-5.89 3.41 4.81 4.81 0 01-3.39-5.9l1.07-4a4.8 4.8 0 015.88-3.4z" fill="#191b28"/><path d="M133.93 161.78l4.82-3.23 1.63-.9a42.37 42.37 0 018-4.33 78.07 78.07 0 009.06-4.64 30.41 30.41 0 003.18-2.93 11.37 11.37 0 00.55-3.75 4.61 4.61 0 01-.46-2 5.6 5.6 0 01-.52-1.64 2.25 2.25 0 01-.51-1.12c-.84-.76-1.3-1.9-2.35-2.46-1.66-1-2.46-.93-3.92.28-.29.24-.52.55-.94.53a1.85 1.85 0 01-1.16 1.14 6.3 6.3 0 01-2.38 1.93 2.37 2.37 0 01-2.12.22c-1.82-.52-2.1-1.9-2.23-3.44-.19-1.07-.37-2.14-.56-3.21-.11-.3-.22-.61-.35-.92-.33-.83-.43-2-1.42-2.19s-1.28 1-1.9 1.53c-.14.44-.28.88-.41 1.32-.13 1.28-.26 2.56-.4 3.84a4.81 4.81 0 01-.2 1.81c.16 1.37-.35 2.65-.49 4l-.85 2.88c-.51 2.65-1.47 5-4.07 6.32-.74.37-1.42.86-2.13 1.29a11.08 11.08 0 01-2.46 1.34 4.45 4.45 0 01-2.07 1 37.75 37.75 0 01-5.52 2.73 39.36 39.36 0 01-5.77 2.19l-11.4 4.28c-.18-2.59-.14-5-.52-7.45-3 .49-5.8 1.4-8.69 2.13-4.26 1.07-8.52 2.18-12.76 3.3a2.55 2.55 0 00-1.26.49c2.18 6.29 4.24 12.63 6.66 18.83.71 1.82 1.35 3.69 2.84 5.08a2.76 2.76 0 003.34.74c4.55-2.15 9.28-3.91 13.51-6.7 7-4.66 13.59-10 20.69-14.63l1.28-.77a42.5 42.5 0 014.26-2.89z" fill="#f8c28e"/><path d="M68.33 133.77a15.16 15.16 0 013.13-12.29c.47-.56 12.08-11.52 17.39-7.38 7.69 6.11 17.54 43.76 17.54 43.76l-27.55 5z" fill="#86ccd7"/></g></g></svg>