<svg data-name="Calque 1" xmlns="http://www.w3.org/2000/svg" viewBox="0 0 50 50"><text transform="translate(-.08 -5.57)" font-size="5" font-family="GalanoGrotesqueAlt-Light" font-weight="300"><tspan letter-spacing="-.12em">Y</tspan><tspan x="2.7" y="0" letter-spacing="0">ou</tspan><tspan x="8.9" y="0" letter-spacing="-.01em">t</tspan><tspan x="10.71" y="0">ube</tspan></text><path d="M24.78 6.59a17.85 17.85 0 1017.85 17.85A17.85 17.85 0 0024.78 6.59z" fill="#06df86"/><path d="M33.37 20.09a2.24 2.24 0 00-1.59-1.59 52.71 52.71 0 00-7-.38 52.92 52.92 0 00-7 .38 2.26 2.26 0 00-1.59 1.59 24 24 0 00-.37 4.35 23.91 23.91 0 00.37 4.34 2.27 2.27 0 001.59 1.6 52.92 52.92 0 007 .38 52.71 52.71 0 007-.38 2.26 2.26 0 001.59-1.6 23.91 23.91 0 00.37-4.34 24 24 0 00-.37-4.35z" fill="#191b28"/><path fill="#06df86" d="M22.94 27.1v-5.33l4.69 2.67-4.69 2.66z"/></svg>